<?xml version="1.0" encoding="UTF-8" standalone="no"?>
<!-- Created with Inkscape (http://www.inkscape.org/) -->

<svg
    xmlns:cc="http://creativecommons.org/ns#"
    xmlns:dc="http://purl.org/dc/elements/1.1/"
    xmlns:inkscape="http://www.inkscape.org/namespaces/inkscape"
    xmlns:rdf="http://www.w3.org/1999/02/22-rdf-syntax-ns#"
    xmlns:sodipodi="http://sodipodi.sourceforge.net/DTD/sodipodi-0.dtd"
    xmlns:xlink="http://www.w3.org/1999/xlink"
    height="512"
    id="svg2"
    version="1.1"
    viewBox="0 0 512.00001 512.00001"
    width="512"
    xmlns="http://www.w3.org/2000/svg"
    inkscape:export-filename="js-shell-icon.png"
    inkscape:export-xdpi="75"
    inkscape:export-ydpi="75"
    inkscape:version="0.92.2 (5c3e80d, 2017-08-06)"
    sodipodi:docname="js-shell-icon.svg">
    <sodipodi:namedview
        bordercolor="#666666"
        borderopacity="1.0"
        id="base"
        pagecolor="#ffffff"
        showborder="true"
        showgrid="false"
        showguides="false"
        units="px"
        inkscape:current-layer="layer1"
        inkscape:cx="271.19744"
        inkscape:cy="197.01463"
        inkscape:document-units="px"
        inkscape:pageopacity="0"
        inkscape:pageshadow="2"
        inkscape:showpageshadow="false"
        inkscape:snap-global="false"
        inkscape:window-height="1017"
        inkscape:window-maximized="1"
        inkscape:window-width="1920"
        inkscape:window-x="-8"
        inkscape:window-y="-8"
        inkscape:zoom="0.7766103"/>
    <defs
        id="defs4">
        <linearGradient
            id="linearGradient15825"
            inkscape:collect="always">
            <stop
                style="stop-color:#e95200;stop-opacity:1"
                id="stop15827"
                offset="0"/>
            <stop
                style="stop-color:#ee8c33;stop-opacity:0"
                id="stop15829"
                offset="1"/>
        </linearGradient>
        <clipPath
            clipPathUnits="userSpaceOnUse"
            id="clipPath4175">
            <rect
                style="fill:#080808;fill-opacity:1"
                height="711.04456"
                id="rect4177"
                width="643.80292"
                x="-60.923595"
                y="-64.988785"/>
        </clipPath>
        <clipPath
            clipPathUnits="userSpaceOnUse"
            id="clipPath4203">
            <rect
                style="fill:#f0624f;fill-opacity:1"
                height="256"
                id="rect4205"
                width="512"
                x="0"
                y="796.36212"/>
        </clipPath>
        <linearGradient
            gradientTransform="translate(12)"
            gradientUnits="userSpaceOnUse"
            id="linearGradient15823"
            x1="222.98964"
            x2="349.48532"
            y1="723.14233"
            y2="984.80243"
            inkscape:collect="always"
            xlink:href="#linearGradient15825"/>
        <clipPath
            clipPathUnits="userSpaceOnUse"
            id="clipPath852">
            <circle
                style="fill:#ffc107;fill-opacity:1"
                cx="256"
                cy="796.36218"
                id="circle854"
                r="256"/>
        </clipPath>
        <clipPath
            clipPathUnits="userSpaceOnUse"
            id="clipPath846">
            <circle
                style="fill:#ffc107;fill-opacity:1;stroke-width:0.84065276"
                cx="267.02515"
                cy="793.85657"
                id="circle848"
                r="215.20711"/>
        </clipPath>
        <clipPath
            clipPathUnits="userSpaceOnUse"
            id="clipPath874">
            <rect
                style="fill:#ff0020;fill-opacity:0.4070352;stroke:none;stroke-width:22.6955719;stroke-linecap:round;stroke-miterlimit:4;stroke-dasharray:none;stroke-opacity:1"
                height="525.302"
                id="rect876"
                width="1582.4559"
                x="417.01083"
                y="232.05699"/>
        </clipPath>
        <linearGradient
            gradientTransform="translate(12)"
            gradientUnits="userSpaceOnUse"
            id="linearGradient15823-5"
            x1="222.98964"
            x2="349.48532"
            y1="723.14233"
            y2="984.80243"
            inkscape:collect="always"
            xlink:href="#linearGradient15825"/>
        <linearGradient
            gradientTransform="matrix(1.0977405,0,0,1.0977405,-32.605688,-83.809737)"
            gradientUnits="userSpaceOnUse"
            id="linearGradient952"
            x1="222.98964"
            x2="349.48532"
            y1="723.14233"
            y2="984.80243"
            inkscape:collect="always"
            xlink:href="#linearGradient15825"/>
        <mask
            id="mask981"
            maskUnits="userSpaceOnUse">
            <path
                style="fill:#ffc107;fill-opacity:1;stroke:none;stroke-width:8.83193779;stroke-linecap:round;stroke-miterlimit:4;stroke-dasharray:none;stroke-opacity:1"
                d="m 389.83068,1002.0845 c -6.05888,3.4981 -227.14742,3.4981 -233.2063,0 C 150.5655,998.58643 40.02124,807.11813 40.02124,800.12194 c 1e-6,-6.99619 110.54428,-198.46448 116.60316,-201.96258 6.05888,-3.49809 227.14742,-3.49808 233.2063,10e-6 6.05888,3.4981 116.60314,194.9664 116.60314,201.96259 0,6.99619 -110.54428,198.46448 -116.60316,201.96254 z"
                id="path983"
                inkscape:flatsided="true"
                inkscape:randomized="0"
                inkscape:rounded="0.03"
                inkscape:transform-center-y="-1.3893513e-006"
                sodipodi:arg1="1.0471976"
                sodipodi:arg2="1.5707963"
                sodipodi:cx="273.22754"
                sodipodi:cy="800.12195"
                sodipodi:r1="233.2063"
                sodipodi:r2="201.96259"
                sodipodi:sides="6"
                sodipodi:type="star"/>
        </mask>
        <clipPath
            clipPathUnits="userSpaceOnUse"
            id="clipPath993">
            <path
                style="fill:#ffc107;fill-opacity:1;stroke:none;stroke-width:9.69517612;stroke-linecap:round;stroke-miterlimit:4;stroke-dasharray:none;stroke-opacity:1"
                d="m 383.99999,1018.0647 c -6.65108,3.84 -249.34893,3.84 -256,0 C 121.34891,1014.2247 -3.7480982e-7,804.04217 0,796.36217 c 3.7481044e-7,-7.68 121.34894,-217.8625 128.00001,-221.7025 6.65108,-3.84 249.34893,-3.83998 256,2e-5 C 390.65109,578.49969 512,788.6822 512,796.3622 c 0,7.68 -121.34894,217.8625 -128.00001,221.7025 z"
                id="path995"
                inkscape:flatsided="true"
                inkscape:randomized="0"
                inkscape:rounded="0.03"
                inkscape:transform-center-y="-1.3893513e-006"
                sodipodi:arg1="1.0471976"
                sodipodi:arg2="1.5707963"
                sodipodi:cx="256"
                sodipodi:cy="796.36219"
                sodipodi:r1="256"
                sodipodi:r2="221.70251"
                sodipodi:sides="6"
                sodipodi:type="star"/>
        </clipPath>
    </defs>
    <metadata
        id="metadata7">
        <rdf:RDF>
            <cc:Work
                rdf:about="">
                <dc:format>image/svg+xml</dc:format>
                <dc:type
                    rdf:resource="http://purl.org/dc/dcmitype/StillImage"/>
                <dc:title></dc:title>
            </cc:Work>
        </rdf:RDF>
    </metadata>
    <g
        id="layer1"
        transform="translate(0,-540.36216)"
        inkscape:groupmode="layer"
        inkscape:label="Layer 1">
        <flowRoot
       style="font-style:normal;font-weight:normal;line-height:0.01%;font-family:sans-serif;letter-spacing:0px;word-spacing:0px;fill:#000000;fill-opacity:1;stroke:none;stroke-width:1px;stroke-linecap:butt;stroke-linejoin:miter;stroke-opacity:1"
       id="flowRoot4269"
       xml:space="preserve"><flowRegion
         id="flowRegion4271"><rect
           height="152.96468"
           id="rect4273"
           width="134.75459"
           x="605.48517"
           y="25.790867" /></flowRegion><flowPara
         style="font-size:40px;line-height:1.25"
         id="flowPara4275"> </flowPara></flowRoot>
        <g
            style="font-style:normal;font-weight:normal;font-size:52.1415863px;line-height:125%;font-family:sans-serif;letter-spacing:0px;word-spacing:0px;fill:#ffffff;fill-opacity:1;stroke:none;stroke-width:1px;stroke-linecap:butt;stroke-linejoin:miter;stroke-opacity:1"
            id="text4154-1"
            transform="translate(8.763916,-1.2840038)"/>
        <g
            style="font-style:normal;font-variant:normal;font-weight:normal;font-stretch:normal;font-size:193.20237732px;line-height:125%;font-family:sans-serif;-inkscape-font-specification:'sans-serif, Normal';text-align:start;letter-spacing:0px;word-spacing:0px;writing-mode:lr-tb;text-anchor:start;fill:#ffffff;fill-opacity:1;stroke:none;stroke-width:1px;stroke-linecap:butt;stroke-linejoin:miter;stroke-opacity:1"
            id="text4154-1-1"
            transform="translate(8.763916,-1.2840038)"/>
        <g
            id="g963"
            transform="translate(0,1.8209857)">
            <circle
                style="fill:#ffc107;fill-opacity:1"
                cx="995.32922"
                cy="794.54114"
                id="circle850"
                r="256"/>
            <circle
                style="fill:#ffa000;fill-opacity:1"
                clip-path="url(#clipPath4203)"
                cx="256"
                cy="796.36218"
                id="circle4199"
                r="256"
                transform="matrix(1,0,0,-1,739.32924,1590.9033)"/>
            <g
                clip-path="url(#clipPath846)"
                id="g842"
                transform="matrix(1.1895518,0,0,1.1895518,677.689,-149.7923)">
        <path
            style="font-style:normal;font-variant:normal;font-weight:500;font-stretch:normal;font-size:153.61869812px;line-height:125%;font-family:Roboto;-inkscape-font-specification:'Roboto, Medium';text-align:start;letter-spacing:0px;word-spacing:0px;writing-mode:lr-tb;text-anchor:start;fill:url(#linearGradient15823);fill-opacity:1;stroke:none;stroke-width:1;stroke-linecap:butt;stroke-linejoin:miter;stroke-opacity:1"
            clip-path="url(#clipPath852)"
            d="m 222.13086,747.11997 c -10.23547,-10.17173 -21.63112,-23.71183 -31.82294,-32.36438 -8.13649,0.86666 -15.61122,-0.48491 -18.37042,2.31872 -0.39743,27.70935 0.79122,56.45189 -0.58789,83.52177 -27.87459,-28.69698 -9.31032,-10.25929 -38.32227,-39.18873 l -62.783199,27.90234 c -0.295078,7.651 -0.04426,8.78369 -0.319334,13.87556 16.998349,16.50523 38.404563,38.85939 55.409173,55.36092 6.57369,6.89422 13.40511,13.62033 20.2754,20.3224 -0.0653,4.18896 -2.59749,8.96117 -2.9343,15.29893 364.11467,364.0015 21.16211,20.68193 293.11398,293.5569 80.28539,-18.4762 202.1014,-95.1049 294.32414,-134.2834 0,0 -179.35532,-178.97727 -263.85146,-264.02278 -10.80999,-3.82791 -20.22479,-7.21612 -33.48059,-14.20299 l -44.57699,-40.2272 c -15.01129,-1.584 -20.37383,42.97393 -25.77137,32.97643 -12.25099,-11.63681 -37.5986,-36.75912 -49.85042,-48.39404 -25.55444,-2.68954 -83.66949,-12.34685 -90.45151,27.54955 z"
            id="path11683"
            transform="translate(-1.6813055,-1.6813055)"
            inkscape:connector-curvature="0"
            sodipodi:nodetypes="cccccccccccccccccc"/>
        <path
            style="font-style:normal;font-variant:normal;font-weight:500;font-stretch:normal;font-size:153.61869812px;line-height:125%;font-family:Roboto;-inkscape-font-specification:'Roboto, Medium';text-align:start;letter-spacing:0px;word-spacing:0px;writing-mode:lr-tb;text-anchor:start;fill:#ffffff;fill-opacity:1;stroke:none;stroke-width:1px;stroke-linecap:butt;stroke-linejoin:miter;stroke-opacity:1"
            d="m 446.22113,794.69912 -46.35565,-17.02707 v -17.92718 l 64.80789,27.90339 v 14.47677 l -64.80789,27.90339 v -17.92718 z"
            id="path4345"
            inkscape:connector-curvature="0"/>
        <path
            style="font-style:normal;font-variant:normal;font-weight:500;font-stretch:normal;font-size:153.61869812px;line-height:125%;font-family:Roboto;-inkscape-font-specification:'Roboto, Medium';text-align:start;letter-spacing:0px;word-spacing:0px;writing-mode:lr-tb;text-anchor:start;fill:#ffffff;fill-opacity:1;stroke:none;stroke-width:1px;stroke-linecap:butt;stroke-linejoin:miter;stroke-opacity:1"
            d="M 343.83366,851.78107 H 329.50692 L 372.48715,733.19164 H 386.8139 Z"
            id="path4343"
            inkscape:connector-curvature="0"/>
        <path
            style="font-style:normal;font-variant:normal;font-weight:500;font-stretch:normal;font-size:153.61869812px;line-height:125%;font-family:Roboto;-inkscape-font-specification:'Roboto, Medium';text-align:start;letter-spacing:0px;word-spacing:0px;writing-mode:lr-tb;text-anchor:start;fill:#ffffff;fill-opacity:1;stroke:none;stroke-width:1px;stroke-linecap:butt;stroke-linejoin:miter;stroke-opacity:1"
            d="m 311.06801,717.72568 v 18.58441 q -10.84876,-5.18854 -20.47115,-7.73565 -9.62238,-2.5471 -18.58441,-2.5471 -15.56562,0 -24.05596,6.03758 -8.396,6.03757 -8.396,17.16935 0,9.33937 5.56589,14.15056 5.66023,4.71686 21.32018,7.64131 l 11.50913,2.35843 q 21.32018,4.05649 31.41425,14.33923 10.18841,10.18841 10.18841,27.35776 0,20.47115 -13.77322,31.03691 -13.67888,10.56575 -40.1876,10.56575 -9.99973,0 -21.32018,-2.26409 -11.22612,-2.26409 -23.30127,-6.69793 v -19.62212 q 11.60347,6.50926 22.73524,9.81106 11.13178,3.3018 21.88621,3.3018 16.32032,0 25.18801,-6.41492 8.86768,-6.41493 8.86768,-18.3014 0,-10.37708 -6.41492,-16.22598 -6.32059,-5.8489 -20.8485,-8.77335 l -11.60346,-2.26409 q -21.32019,-4.24517 -30.84823,-13.30153 -9.52805,-9.05636 -9.52805,-25.18801 0,-18.67874 13.11286,-29.43317 13.20719,-10.75443 36.31978,-10.75443 9.90539,0 20.18814,1.7924 10.28274,1.79241 21.03717,5.37722 z"
            id="path4341"
            inkscape:connector-curvature="0"/>
        <path
            style="font-style:normal;font-variant:normal;font-weight:500;font-stretch:normal;font-size:153.61869812px;line-height:125%;font-family:Roboto;-inkscape-font-specification:'Roboto, Medium';text-align:start;letter-spacing:0px;word-spacing:0px;writing-mode:lr-tb;text-anchor:start;fill:#ffffff;fill-opacity:1;stroke:none;stroke-width:1px;stroke-linecap:butt;stroke-linejoin:miter;stroke-opacity:1"
            d="m 169.6567,713.10316 h 19.0561 v 131.03423 q 0,25.47102 -9.71673,36.98014 -9.62238,11.50913 -31.0369,11.50913 h -7.26396 v -16.03731 h 5.94324 q 12.64117,0 17.82971,-7.07528 5.18854,-7.07528 5.18854,-25.37668 z"
            id="path4339"
            inkscape:connector-curvature="0"/>
                <path
                    style="font-style:normal;font-variant:normal;font-weight:500;font-stretch:normal;font-size:153.61869812px;line-height:125%;font-family:Roboto;-inkscape-font-specification:'Roboto, Medium';text-align:start;letter-spacing:0px;word-spacing:0px;writing-mode:lr-tb;text-anchor:start;fill:#ffffff;fill-opacity:1;stroke:none;stroke-width:1px;stroke-linecap:butt;stroke-linejoin:miter;stroke-opacity:1"
                    d="m 86.491271,794.45741 44.255389,16.80204 v 18.22722 L 67.964016,801.50827 V 787.0315 l 62.782644,-27.90339 v 18.22722 z"
                    id="path4314"
                    inkscape:connector-curvature="0"/>
            </g>
    </g>
        <path
            style="fill:#ffc107;fill-opacity:1;stroke:none;stroke-width:9.69517612;stroke-linecap:round;stroke-miterlimit:4;stroke-dasharray:none;stroke-opacity:1"
            d="m 383.99999,1018.0647 c -6.65108,3.84 -249.34893,3.84 -256,0 C 121.34891,1014.2247 -3.7480982e-7,804.04217 0,796.36217 c 3.7481044e-7,-7.68 121.34894,-217.8625 128.00001,-221.7025 6.65108,-3.84 249.34893,-3.83998 256,2e-5 C 390.65109,578.49969 512,788.6822 512,796.3622 c 0,7.68 -121.34894,217.8625 -128.00001,221.7025 z"
            id="path819"
            inkscape:flatsided="true"
            inkscape:randomized="0"
            inkscape:rounded="0.03"
            inkscape:transform-center-y="-1.3893513e-006"
            sodipodi:arg1="1.0471976"
            sodipodi:arg2="1.5707963"
            sodipodi:cx="256"
            sodipodi:cy="796.36218"
            sodipodi:r1="256"
            sodipodi:r2="221.70251"
            sodipodi:sides="6"
            sodipodi:type="star"/>
        <path
            style="fill:#ffa000;fill-opacity:1;stroke:none;stroke-width:22.67716599;stroke-linecap:round;stroke-miterlimit:4;stroke-dasharray:none;stroke-opacity:1"
            clip-path="url(#clipPath874)"
            d="m 1462.1075,1275.9244 c -15.5569,8.9819 -583.23089,8.9818 -598.78785,0 -15.55697,-8.9818 -299.39393,-500.60191 -299.39393,-518.56554 0,-17.96364 283.83701,-509.58371 299.39398,-518.56552 15.55696,-8.98182 583.2309,-8.98179 598.7879,3e-5 15.557,8.98182 299.3939,500.60191 299.3939,518.56555 0,17.96363 -283.837,509.58368 -299.394,518.56548 z"
            id="path860"
            transform="matrix(0.42753034,0,0,0.42753034,-241.09535,472.56826)"
            inkscape:flatsided="true"
            inkscape:randomized="0"
            inkscape:rounded="0.03"
            inkscape:transform-center-y="-1.3893513e-006"
            sodipodi:arg1="1.0471976"
            sodipodi:arg2="1.5707963"
            sodipodi:cx="1162.7136"
            sodipodi:cy="757.35889"
            sodipodi:r1="598.7879"
            sodipodi:r2="518.56555"
            sodipodi:sides="6"
            sodipodi:type="star"/>
        <path
            style="font-style:normal;font-variant:normal;font-weight:500;font-stretch:normal;font-size:153.61869812px;line-height:125%;font-family:Roboto;-inkscape-font-specification:'Roboto, Medium';text-align:start;letter-spacing:0px;word-spacing:0px;writing-mode:lr-tb;text-anchor:start;fill:url(#linearGradient952);fill-opacity:1;stroke:none;stroke-width:1.09774053;stroke-linecap:butt;stroke-linejoin:miter;stroke-opacity:1"
            clip-path="url(#clipPath993)"
            d="m 198.06347,736.33411 c -11.23589,-11.16592 -23.74536,-26.02943 -34.93333,-35.52769 -8.93176,0.95137 -17.13707,-0.5323 -20.16596,2.54535 -0.43627,30.41768 0.86856,61.96953 -0.64535,91.68523 -30.59906,-31.50183 -10.22031,-11.26203 -42.06791,-43.01905 l -68.919656,30.62953 c -0.323919,8.39881 -0.04859,9.64221 -0.350545,15.23176 18.659776,18.11846 42.158244,42.65753 60.824893,60.77192 7.216206,7.56807 14.715328,14.95159 22.257128,22.30873 -0.0717,4.59839 -2.85137,9.83704 -3.2211,16.79425 399.70342,399.57916 23.2305,22.70339 321.76309,322.24926 88.13252,-20.282 221.85489,-104.4005 323.09153,-147.4083 0,0 -196.8856,-196.47058 -289.64044,-289.82849 -11.86656,-4.20205 -22.20157,-7.92142 -36.753,-15.59119 l -48.93397,-44.15903 c -16.4785,-1.73882 -22.36517,47.17422 -28.29027,36.19956 -13.44841,-12.77419 -41.27351,-40.35197 -54.72283,-53.12409 -28.05214,-2.95242 -91.84738,-13.55364 -99.29228,30.24225 z"
            id="path11683-3"
            inkscape:connector-curvature="0"
            sodipodi:nodetypes="cccccccccccccccccc"/>
        <path
            style="font-style:normal;font-variant:normal;font-weight:500;font-stretch:normal;font-size:153.61869812px;line-height:125%;font-family:Roboto;-inkscape-font-specification:'Roboto, Medium';text-align:start;letter-spacing:0px;word-spacing:0px;writing-mode:lr-tb;text-anchor:start;fill:#ffffff;fill-opacity:1;stroke:none;stroke-width:1.09774053px;stroke-linecap:butt;stroke-linejoin:miter;stroke-opacity:1"
            d="m 445.90207,790.40931 -50.88648,-18.6913 v -19.6794 l 71.14225,30.63068 v 15.89174 l -71.14225,30.63068 v -19.67939 z"
            id="path4345-6"
            inkscape:connector-curvature="0"/>
        <path
            style="font-style:normal;font-variant:normal;font-weight:500;font-stretch:normal;font-size:153.61869812px;line-height:125%;font-family:Roboto;-inkscape-font-specification:'Roboto, Medium';text-align:start;letter-spacing:0px;word-spacing:0px;writing-mode:lr-tb;text-anchor:start;fill:#ffffff;fill-opacity:1;stroke:none;stroke-width:1.09774053px;stroke-linecap:butt;stroke-linejoin:miter;stroke-opacity:1"
            d="m 333.5072,853.07048 h -15.72705 l 47.18114,-130.18042 h 15.72706 z"
            id="path4343-6"
            inkscape:connector-curvature="0"/>
        <path
            style="font-style:normal;font-variant:normal;font-weight:500;font-stretch:normal;font-size:153.61869812px;line-height:125%;font-family:Roboto;-inkscape-font-specification:'Roboto, Medium';text-align:start;letter-spacing:0px;word-spacing:0px;writing-mode:lr-tb;text-anchor:start;fill:#ffffff;fill-opacity:1;stroke:none;stroke-width:1.09774053px;stroke-linecap:butt;stroke-linejoin:miter;stroke-opacity:1"
            d="m 297.53902,705.91245 v 20.40086 q -11.90913,-5.69567 -22.47201,-8.49174 -10.56288,-2.79605 -20.40086,-2.79605 -17.08702,0 -26.40721,6.62769 -9.21662,6.62769 -9.21662,18.84749 0,10.25221 6.1099,15.53364 6.21346,5.17789 23.40402,8.38818 l 12.63404,2.58894 q 23.40403,4.45298 34.4847,15.74076 11.18423,11.18423 11.18423,30.03172 0,22.47201 -15.11943,34.07047 -15.01586,11.59845 -44.11555,11.59845 -10.97711,0 -23.40403,-2.48538 -12.32336,-2.48538 -25.57874,-7.35259 V 827.0749 q 12.73759,7.14547 24.95739,10.76999 12.21981,3.62452 24.02538,3.62452 17.91547,0 27.6499,-7.04191 9.73441,-7.04193 9.73441,-20.09019 0,-11.39134 -7.04192,-17.81192 -6.93837,-6.42057 -22.88624,-9.63086 l -12.73759,-2.48538 q -23.40404,-4.6601 -33.86335,-14.60163 -10.45933,-9.94153 -10.45933,-27.6499 0,-20.50441 14.39452,-32.30998 14.49807,-11.80558 39.86969,-11.80558 10.87355,0 22.16134,1.96759 11.28778,1.96761 23.09336,5.9028 z"
            id="path4341-3"
            inkscape:connector-curvature="0"/>
        <path
            style="font-style:normal;font-variant:normal;font-weight:500;font-stretch:normal;font-size:153.61869812px;line-height:125%;font-family:Roboto;-inkscape-font-specification:'Roboto, Medium';text-align:start;letter-spacing:0px;word-spacing:0px;writing-mode:lr-tb;text-anchor:start;fill:#ffffff;fill-opacity:1;stroke:none;stroke-width:1.09774053px;stroke-linecap:butt;stroke-linejoin:miter;stroke-opacity:1"
            d="m 142.30609,700.83812 h 20.91866 V 844.6797 q 0,27.96057 -10.66645,40.5946 -10.56288,12.63404 -34.07046,12.63404 h -7.97395 v -17.60481 h 6.52414 q 13.87672,0 19.57239,-7.76682 5.69567,-7.76682 5.69567,-27.85701 z"
            id="path4339-9"
            inkscape:connector-curvature="0"/>
        <path
            style="font-style:normal;font-variant:normal;font-weight:500;font-stretch:normal;font-size:153.61869812px;line-height:125%;font-family:Roboto;-inkscape-font-specification:'Roboto, Medium';text-align:start;letter-spacing:0px;word-spacing:0px;writing-mode:lr-tb;text-anchor:start;fill:#ffffff;fill-opacity:1;stroke:none;stroke-width:1.09774053px;stroke-linecap:butt;stroke-linejoin:miter;stroke-opacity:1"
            d="m 51.012034,790.14397 48.580933,18.44428 v 20.00876 L 30.673916,797.88399 v -15.89174 l 68.919051,-30.63068 v 20.00876 z"
            id="path4314-1"
            inkscape:connector-curvature="0"/>
    </g>
</svg>
