<?xml version="1.0" encoding="UTF-8" standalone="no"?>
<!-- Created with Inkscape (http://www.inkscape.org/) -->

<svg
    xmlns:cc="http://creativecommons.org/ns#"
    xmlns:dc="http://purl.org/dc/elements/1.1/"
    xmlns:inkscape="http://www.inkscape.org/namespaces/inkscape"
    xmlns:rdf="http://www.w3.org/1999/02/22-rdf-syntax-ns#"
    xmlns:sodipodi="http://sodipodi.sourceforge.net/DTD/sodipodi-0.dtd"
    xmlns:xlink="http://www.w3.org/1999/xlink"
    height="512"
    id="svg2"
    version="1.1"
    viewBox="0 0 512.00001 512.00001"
    width="512"
    xmlns="http://www.w3.org/2000/svg"
    inkscape:export-filename="js-shell-icon.png"
    inkscape:export-xdpi="75"
    inkscape:export-ydpi="75"
    inkscape:version="0.92.2 (5c3e80d, 2017-08-06)"
    sodipodi:docname="js-shell-icon.svg">
    <sodipodi:namedview
        bordercolor="#666666"
        borderopacity="1.0"
        id="base"
        pagecolor="#ffffff"
        showborder="true"
        showgrid="false"
        showguides="false"
        units="px"
        inkscape:current-layer="layer1"
        inkscape:cx="-154.54634"
        inkscape:cy="414.20404"
        inkscape:document-units="px"
        inkscape:pageopacity="0"
        inkscape:pageshadow="2"
        inkscape:showpageshadow="false"
        inkscape:snap-global="false"
        inkscape:window-height="1017"
        inkscape:window-maximized="1"
        inkscape:window-width="1920"
        inkscape:window-x="-8"
        inkscape:window-y="-8"
        inkscape:zoom="0.54914641"/>
    <defs
        id="defs4">
        <linearGradient
            id="linearGradient15825"
            inkscape:collect="always">
            <stop
                style="stop-color:#e95200;stop-opacity:1"
                id="stop15827"
                offset="0"/>
            <stop
                style="stop-color:#ee8c33;stop-opacity:0"
                id="stop15829"
                offset="1"/>
        </linearGradient>
        <clipPath
            clipPathUnits="userSpaceOnUse"
            id="clipPath4175">
            <rect
                style="fill:#080808;fill-opacity:1"
                height="711.04456"
                id="rect4177"
                width="643.80292"
                x="-60.923595"
                y="-64.988785"/>
        </clipPath>
        <clipPath
            clipPathUnits="userSpaceOnUse"
            id="clipPath4203">
            <rect
                style="fill:#f0624f;fill-opacity:1"
                height="256"
                id="rect4205"
                width="512"
                x="0"
                y="796.36212"/>
        </clipPath>
        <clipPath
            clipPathUnits="userSpaceOnUse"
            id="clipPath852">
            <circle
                style="fill:#ffc107;fill-opacity:1"
                cx="256"
                cy="796.36218"
                id="circle854"
                r="256"/>
        </clipPath>
        <clipPath
            clipPathUnits="userSpaceOnUse"
            id="clipPath846">
            <circle
                style="fill:#ffc107;fill-opacity:1;stroke-width:0.84065276"
                cx="267.02515"
                cy="793.85657"
                id="circle848"
                r="215.20711"/>
        </clipPath>
        <clipPath
            clipPathUnits="userSpaceOnUse"
            id="clipPath874">
            <rect
                style="fill:#ff0020;fill-opacity:0.4070352;stroke:none;stroke-width:22.6955719;stroke-linecap:round;stroke-miterlimit:4;stroke-dasharray:none;stroke-opacity:1"
                height="525.302"
                id="rect876"
                width="1582.4559"
                x="417.01083"
                y="232.05699"/>
        </clipPath>
        <linearGradient
            gradientTransform="translate(12)"
            gradientUnits="userSpaceOnUse"
            id="linearGradient15823-5"
            x1="222.98964"
            x2="349.48532"
            y1="723.14233"
            y2="984.80243"
            inkscape:collect="always"
            xlink:href="#linearGradient15825"/>
        <mask
            id="mask981"
            maskUnits="userSpaceOnUse">
            <path
                style="fill:#ffc107;fill-opacity:1;stroke:none;stroke-width:8.83193779;stroke-linecap:round;stroke-miterlimit:4;stroke-dasharray:none;stroke-opacity:1"
                d="m 389.83068,1002.0845 c -6.05888,3.4981 -227.14742,3.4981 -233.2063,0 C 150.5655,998.58643 40.02124,807.11813 40.02124,800.12194 c 1e-6,-6.99619 110.54428,-198.46448 116.60316,-201.96258 6.05888,-3.49809 227.14742,-3.49808 233.2063,10e-6 6.05888,3.4981 116.60314,194.9664 116.60314,201.96259 0,6.99619 -110.54428,198.46448 -116.60316,201.96254 z"
                id="path983"
                inkscape:flatsided="true"
                inkscape:randomized="0"
                inkscape:rounded="0.03"
                inkscape:transform-center-y="-1.3893513e-006"
                sodipodi:arg1="1.0471976"
                sodipodi:arg2="1.5707963"
                sodipodi:cx="273.22754"
                sodipodi:cy="800.12195"
                sodipodi:r1="233.2063"
                sodipodi:r2="201.96259"
                sodipodi:sides="6"
                sodipodi:type="star"/>
        </mask>
        <clipPath
            clipPathUnits="userSpaceOnUse"
            id="clipPath993">
            <path
                style="fill:#ffc107;fill-opacity:1;stroke:none;stroke-width:9.69517612;stroke-linecap:round;stroke-miterlimit:4;stroke-dasharray:none;stroke-opacity:1"
                d="m 383.99999,1018.0647 c -6.65108,3.84 -249.34893,3.84 -256,0 C 121.34891,1014.2247 -3.7480982e-7,804.04217 0,796.36217 c 3.7481044e-7,-7.68 121.34894,-217.8625 128.00001,-221.7025 6.65108,-3.84 249.34893,-3.83998 256,2e-5 C 390.65109,578.49969 512,788.6822 512,796.3622 c 0,7.68 -121.34894,217.8625 -128.00001,221.7025 z"
                id="path995"
                inkscape:flatsided="true"
                inkscape:randomized="0"
                inkscape:rounded="0.03"
                inkscape:transform-center-y="-1.3893513e-006"
                sodipodi:arg1="1.0471976"
                sodipodi:arg2="1.5707963"
                sodipodi:cx="256"
                sodipodi:cy="796.36219"
                sodipodi:r1="256"
                sodipodi:r2="221.70251"
                sodipodi:sides="6"
                sodipodi:type="star"/>
        </clipPath>
        <clipPath
            clipPathUnits="userSpaceOnUse"
            id="clipPath869">
            <rect
                style="fill:#ffc107;fill-opacity:0.55778898;stroke:none;stroke-width:20.59689903;stroke-linecap:round;stroke-miterlimit:4;stroke-dasharray:none;stroke-opacity:1"
                height="256"
                id="rect871"
                width="795.76593"
                x="-141.88297"
                y="540.36218"/>
        </clipPath>
        <linearGradient
            gradientTransform="matrix(1.0977405,0,0,1.0977405,-32.605688,-83.809737)"
            gradientUnits="userSpaceOnUse"
            id="linearGradient885"
            x1="222.98964"
            x2="395.03329"
            y1="723.14233"
            y2="1043.3641"
            inkscape:collect="always"
            xlink:href="#linearGradient15825"/>
        <clipPath
            clipPathUnits="userSpaceOnUse"
            id="clipPath916">
            <path
                style="fill:#ffc107;fill-opacity:1;stroke:none;stroke-width:21.15226936;stroke-linecap:round;stroke-miterlimit:4;stroke-dasharray:none;stroke-opacity:1"
                d="m 498.92461,931.07915 c -4.3035,7.45389 -239.85589,143.45015 -248.4629,143.45015 -8.607,0 -244.1593859,-135.99627 -248.4628894,-143.45015 C -2.304683,923.62526 -2.3046818,651.6328 1.9988218,644.17891 6.3023254,636.72502 241.85471,500.72879 250.46172,500.72879 c 8.607,0 244.15939,135.99623 248.46289,143.45012 4.3035,7.45389 4.3035,279.44635 0,286.90024 z"
                id="path918"
                inkscape:flatsided="true"
                inkscape:randomized="0"
                inkscape:rounded="0.03"
                sodipodi:arg1="0.52359878"
                sodipodi:arg2="1.0471976"
                sodipodi:cx="250.46172"
                sodipodi:cy="787.62903"
                sodipodi:r1="286.90024"
                sodipodi:r2="248.46291"
                sodipodi:sides="6"
                sodipodi:type="star"/>
        </clipPath>
    </defs>
    <metadata
        id="metadata7">
        <rdf:RDF>
            <cc:Work
                rdf:about="">
                <dc:format>image/svg+xml</dc:format>
                <dc:type
                    rdf:resource="http://purl.org/dc/dcmitype/StillImage"/>
                <dc:title/>
            </cc:Work>
        </rdf:RDF>
    </metadata>
    <g
        id="layer1"
        transform="translate(0,-540.36216)"
        inkscape:groupmode="layer"
        inkscape:label="Layer 1">
        <flowRoot
       style="font-style:normal;font-weight:normal;line-height:0.01%;font-family:sans-serif;letter-spacing:0px;word-spacing:0px;fill:#000000;fill-opacity:1;stroke:none;stroke-width:1px;stroke-linecap:butt;stroke-linejoin:miter;stroke-opacity:1"
       id="flowRoot4269"
       xml:space="preserve"><flowRegion
         id="flowRegion4271"><rect
           height="152.96468"
           id="rect4273"
           width="134.75459"
           x="605.48517"
           y="25.790867" /></flowRegion><flowPara
         style="font-size:40px;line-height:1.25"
         id="flowPara4275"> </flowPara></flowRoot>
        <g
            style="font-style:normal;font-weight:normal;font-size:52.1415863px;line-height:125%;font-family:sans-serif;letter-spacing:0px;word-spacing:0px;fill:#ffffff;fill-opacity:1;stroke:none;stroke-width:1px;stroke-linecap:butt;stroke-linejoin:miter;stroke-opacity:1"
            id="text4154-1"
            transform="translate(8.763916,-1.2840038)"/>
        <g
            style="font-style:normal;font-variant:normal;font-weight:normal;font-stretch:normal;font-size:193.20237732px;line-height:125%;font-family:sans-serif;-inkscape-font-specification:'sans-serif, Normal';text-align:start;letter-spacing:0px;word-spacing:0px;writing-mode:lr-tb;text-anchor:start;fill:#ffffff;fill-opacity:1;stroke:none;stroke-width:1px;stroke-linecap:butt;stroke-linejoin:miter;stroke-opacity:1"
            id="text4154-1-1"
            transform="translate(8.763916,-1.2840038)"/>
        <path
            style="fill:#ffc107;fill-opacity:1;stroke:none;stroke-width:18.87409019;stroke-linecap:round;stroke-miterlimit:4;stroke-dasharray:none;stroke-opacity:1"
            d="M 477.7025,924.36218 C 473.8625,931.01326 263.68,1052.3622 256,1052.3622 c -7.68,0 -217.862504,-121.34894 -221.702504,-128.00002 -3.84,-6.65107 -3.839999,-249.34892 10e-7,-256 3.84,-6.65107 214.022503,-128 221.702503,-128 7.68,0 217.8625,121.34893 221.7025,128 3.84,6.65108 3.84,249.34893 0,256 z"
            id="path863"
            inkscape:flatsided="true"
            inkscape:randomized="0"
            inkscape:rounded="0.03"
            sodipodi:arg1="0.52359878"
            sodipodi:arg2="1.0471976"
            sodipodi:cx="256"
            sodipodi:cy="796.36216"
            sodipodi:r1="256"
            sodipodi:r2="221.70251"
            sodipodi:sides="6"
            sodipodi:type="star"/>
        <path
            style="fill:#ffa000;fill-opacity:1;stroke:none;stroke-width:18.87409019;stroke-linecap:round;stroke-miterlimit:4;stroke-dasharray:none;stroke-opacity:1"
            clip-path="url(#clipPath869)"
            d="M 477.7025,924.36218 C 473.8625,931.01326 263.68,1052.3622 256,1052.3622 c -7.68,0 -217.862504,-121.34894 -221.702504,-128.00002 -3.84,-6.65107 -3.839999,-249.34892 10e-7,-256 3.84,-6.65107 214.022503,-128 221.702503,-128 7.68,0 217.8625,121.34893 221.7025,128 3.84,6.65108 3.84,249.34893 0,256 z"
            id="path865"
            inkscape:flatsided="true"
            inkscape:randomized="0"
            inkscape:rounded="0.03"
            sodipodi:arg1="0.52359878"
            sodipodi:arg2="1.0471976"
            sodipodi:cx="256"
            sodipodi:cy="796.36216"
            sodipodi:r1="256"
            sodipodi:r2="221.70251"
            sodipodi:sides="6"
            sodipodi:type="star"/>
        <path
            style="font-style:normal;font-variant:normal;font-weight:500;font-stretch:normal;font-size:153.61869812px;line-height:125%;font-family:Roboto;-inkscape-font-specification:'Roboto, Medium';text-align:start;letter-spacing:0px;word-spacing:0px;writing-mode:lr-tb;text-anchor:start;fill:url(#linearGradient885);fill-opacity:1;stroke:none;stroke-width:1.09774053;stroke-linecap:butt;stroke-linejoin:miter;stroke-opacity:1"
            clip-path="url(#clipPath916)"
            d="m 198.06347,736.33411 c -11.23589,-11.16592 -23.74536,-26.02943 -34.93333,-35.52769 -8.93176,0.95137 -17.13707,-0.5323 -20.16596,2.54535 -0.43627,30.41768 0.86856,61.96953 -0.64535,91.68523 -30.59906,-31.50183 -10.22031,-11.26203 -42.06791,-43.01905 l -68.919656,30.62953 c -0.323919,8.39881 -0.04859,9.64221 -0.350545,15.23176 18.659776,18.11846 42.158244,42.65753 60.824893,60.77192 7.216206,7.56807 14.715328,14.95159 22.257128,22.30873 -0.0717,4.59839 -2.85137,9.83704 -3.2211,16.79425 399.70342,399.57916 23.2305,22.70339 321.76309,322.24926 88.13252,-20.282 221.85489,-104.4005 323.09153,-147.4083 0,0 -196.8856,-196.47058 -289.64044,-289.82849 -11.86656,-4.20205 -22.20157,-7.92142 -36.753,-15.59119 l -48.93397,-44.15903 c -16.4785,-1.73882 -22.36517,47.17422 -28.29027,36.19956 -13.44841,-12.77419 -41.27351,-40.35197 -54.72283,-53.12409 -28.05214,-2.95242 -91.84738,-13.55364 -99.29228,30.24225 z"
            id="path873"
            transform="matrix(0.89229621,0,0,0.89229621,32.513968,93.563771)"
            inkscape:connector-curvature="0"
            sodipodi:nodetypes="cccccccccccccccccc"/>
        <path
            style="font-style:normal;font-variant:normal;font-weight:500;font-stretch:normal;font-size:153.61869812px;line-height:125%;font-family:Roboto;-inkscape-font-specification:'Roboto, Medium';text-align:start;letter-spacing:0px;word-spacing:0px;writing-mode:lr-tb;text-anchor:start;fill:#ffffff;fill-opacity:1;stroke:none;stroke-width:0.97950971px;stroke-linecap:butt;stroke-linejoin:miter;stroke-opacity:1"
            d="m 430.39072,798.843 -45.40583,-16.67817 v -17.55986 l 63.47992,27.33164 v 14.18014 l -63.47992,27.33164 v -17.55985 z"
            id="path875"
            inkscape:connector-curvature="0"/>
        <path
            style="font-style:normal;font-variant:normal;font-weight:500;font-stretch:normal;font-size:153.61869812px;line-height:125%;font-family:Roboto;-inkscape-font-specification:'Roboto, Medium';text-align:start;letter-spacing:0px;word-spacing:0px;writing-mode:lr-tb;text-anchor:start;fill:#ffffff;fill-opacity:1;stroke:none;stroke-width:0.97950971px;stroke-linecap:butt;stroke-linejoin:miter;stroke-opacity:1"
            d="m 330.10118,854.75533 h -14.03315 l 42.09952,-116.1595 h 14.03323 z"
            id="path877"
            inkscape:connector-curvature="0"/>
        <path
            style="font-style:normal;font-variant:normal;font-weight:500;font-stretch:normal;font-size:153.61869812px;line-height:125%;font-family:Roboto;-inkscape-font-specification:'Roboto, Medium';text-align:start;letter-spacing:0px;word-spacing:0px;writing-mode:lr-tb;text-anchor:start;fill:#ffffff;fill-opacity:1;stroke:none;stroke-width:0.97950971px;stroke-linecap:butt;stroke-linejoin:miter;stroke-opacity:1"
            d="m 298.00689,723.44677 v 18.20361 q -10.62645,-5.08222 -20.05168,-7.57714 -9.42524,-2.49491 -18.20356,-2.49491 -15.24675,0 -23.56313,5.91386 -8.22392,5.91387 -8.22392,16.81755 0,9.14801 5.45182,13.86061 5.54428,4.62021 20.8833,7.48474 l 11.27336,2.3101 q 20.8833,3.97338 30.77057,14.04542 9.97962,9.97965 9.97962,26.79719 0,20.05169 -13.49099,30.40095 -13.39863,10.34925 -39.36418,10.34925 -9.79482,0 -20.8833,-2.21769 -10.99609,-2.2177 -22.82381,-6.56069 v -19.22005 q 11.3657,6.37587 22.26938,9.61002 10.90373,3.23415 21.43773,3.23415 15.98593,0 24.6719,-6.28347 8.68597,-6.28349 8.68597,-17.9264 0,-10.16445 -6.28346,-15.89351 -6.19102,-5.72905 -20.42127,-8.59358 l -11.36571,-2.2177 q -20.88335,-4.15819 -30.21615,-13.02898 -9.33282,-8.87079 -9.33282,-24.6719 0,-18.29601 12.84418,-28.83007 12.93657,-10.53408 35.57555,-10.53408 9.70247,0 19.77453,1.75568 10.07198,1.75569 20.60607,5.26704 z"
            id="path879"
            inkscape:connector-curvature="0"/>
        <path
            style="font-style:normal;font-variant:normal;font-weight:500;font-stretch:normal;font-size:153.61869812px;line-height:125%;font-family:Roboto;-inkscape-font-specification:'Roboto, Medium';text-align:start;letter-spacing:0px;word-spacing:0px;writing-mode:lr-tb;text-anchor:start;fill:#ffffff;fill-opacity:1;stroke:none;stroke-width:0.97950971px;stroke-linecap:butt;stroke-linejoin:miter;stroke-opacity:1"
            d="m 159.49315,718.91897 h 18.66564 v 128.34929 q 0,24.94912 -9.51763,36.22241 -9.42522,11.27331 -30.40094,11.27331 h -7.11512 v -15.70871 h 5.82146 q 12.38214,0 17.46437,-6.9303 5.08222,-6.9303 5.08222,-24.85671 z"
            id="path881"
            inkscape:connector-curvature="0"/>
        <path
            style="font-style:normal;font-variant:normal;font-weight:500;font-stretch:normal;font-size:153.61869812px;line-height:125%;font-family:Roboto;-inkscape-font-specification:'Roboto, Medium';text-align:start;letter-spacing:0px;word-spacing:0px;writing-mode:lr-tb;text-anchor:start;fill:#ffffff;fill-opacity:1;stroke:none;stroke-width:0.97950971px;stroke-linecap:butt;stroke-linejoin:miter;stroke-opacity:1"
            d="M 78.031819,798.60624 121.3804,815.064 v 17.85374 L 59.884191,805.51263 V 791.33249 L 121.3804,764.00085 v 17.85374 z"
            id="path883"
            inkscape:connector-curvature="0"/>
    </g>
</svg>
