<?xml version="1.0" encoding="UTF-8" standalone="no"?>
<!-- Created with Inkscape (http://www.inkscape.org/) -->

<svg
   xmlns:dc="http://purl.org/dc/elements/1.1/"
   xmlns:cc="http://creativecommons.org/ns#"
   xmlns:rdf="http://www.w3.org/1999/02/22-rdf-syntax-ns#"
   xmlns:svg="http://www.w3.org/2000/svg"
   xmlns="http://www.w3.org/2000/svg"
   xmlns:xlink="http://www.w3.org/1999/xlink"
   xmlns:sodipodi="http://sodipodi.sourceforge.net/DTD/sodipodi-0.dtd"
   xmlns:inkscape="http://www.inkscape.org/namespaces/inkscape"
   sodipodi:docname="js-shell-icon.svg"
   inkscape:version="0.92.2 (5c3e80d, 2017-08-06)"
   inkscape:export-ydpi="75"
   inkscape:export-xdpi="75"
   inkscape:export-filename="js-shell-icon.png"
   width="512"
   viewBox="0 0 512.00001 512.00001"
   version="1.1"
   id="svg2"
   height="512">
  <sodipodi:namedview
     inkscape:zoom="0.7766103"
     inkscape:window-y="-8"
     inkscape:window-x="-8"
     inkscape:window-width="1920"
     inkscape:window-maximized="1"
     inkscape:window-height="1017"
     inkscape:snap-global="false"
     inkscape:showpageshadow="false"
     inkscape:pageshadow="2"
     inkscape:pageopacity="0"
     inkscape:document-units="px"
     inkscape:cy="142.28497"
     inkscape:cx="93.333873"
     inkscape:current-layer="g4241"
     units="px"
     showguides="false"
     showgrid="false"
     showborder="true"
     pagecolor="#ffffff"
     id="base"
     borderopacity="1.0"
     bordercolor="#666666" />
  <defs
     id="defs4">
    <linearGradient
       inkscape:collect="always"
       id="linearGradient8385">
      <stop
         offset="0"
         id="stop8381"
         style="stop-color:#e94000;stop-opacity:1" />
      <stop
         offset="1"
         id="stop8383"
         style="stop-color:#ee8c33;stop-opacity:0" />
    </linearGradient>
    <linearGradient
       inkscape:collect="always"
       id="linearGradient8379">
      <stop
         offset="0"
         id="stop8375"
         style="stop-color:#e95200;stop-opacity:0.9522059" />
      <stop
         offset="1"
         id="stop8377"
         style="stop-color:#ee8c33;stop-opacity:0" />
    </linearGradient>
    <linearGradient
       id="linearGradient15825"
       inkscape:collect="always">
      <stop
         style="stop-color:#e95200;stop-opacity:1"
         id="stop15827"
         offset="0" />
      <stop
         style="stop-color:#ee8c33;stop-opacity:0"
         id="stop15829"
         offset="1" />
    </linearGradient>
    <clipPath
       clipPathUnits="userSpaceOnUse"
       id="clipPath4175">
      <rect
         style="fill:#080808;fill-opacity:1"
         height="711.04456"
         id="rect4177"
         width="643.80292"
         x="-60.923595"
         y="-64.988785" />
    </clipPath>
    <clipPath
       clipPathUnits="userSpaceOnUse"
       id="clipPath4203">
      <rect
         style="fill:#f0624f;fill-opacity:1"
         height="256"
         id="rect4205"
         width="512"
         x="0"
         y="796.36212" />
    </clipPath>
    <clipPath
       clipPathUnits="userSpaceOnUse"
       id="clipPath852">
      <circle
         style="fill:#ffc107;fill-opacity:1"
         cx="256"
         cy="796.36218"
         id="circle854"
         r="256" />
    </clipPath>
    <clipPath
       clipPathUnits="userSpaceOnUse"
       id="clipPath846">
      <circle
         style="fill:#ffc107;fill-opacity:1;stroke-width:0.84065276"
         cx="267.02515"
         cy="793.85657"
         id="circle848"
         r="215.20711" />
    </clipPath>
    <clipPath
       clipPathUnits="userSpaceOnUse"
       id="clipPath874">
      <rect
         style="fill:#ff0020;fill-opacity:0.4070352;stroke:none;stroke-width:22.6955719;stroke-linecap:round;stroke-miterlimit:4;stroke-dasharray:none;stroke-opacity:1"
         height="525.302"
         id="rect876"
         width="1582.4559"
         x="417.01083"
         y="232.05699" />
    </clipPath>
    <linearGradient
       gradientTransform="translate(12)"
       gradientUnits="userSpaceOnUse"
       id="linearGradient15823-5"
       x1="222.98964"
       x2="349.48532"
       y1="723.14233"
       y2="984.80243"
       inkscape:collect="always"
       xlink:href="#linearGradient15825" />
    <mask
       id="mask981"
       maskUnits="userSpaceOnUse">
      <path
         style="fill:#ffc107;fill-opacity:1;stroke:none;stroke-width:8.83193779;stroke-linecap:round;stroke-miterlimit:4;stroke-dasharray:none;stroke-opacity:1"
         d="m 389.83068,1002.0845 c -6.05888,3.4981 -227.14742,3.4981 -233.2063,0 C 150.5655,998.58643 40.02124,807.11813 40.02124,800.12194 c 1e-6,-6.99619 110.54428,-198.46448 116.60316,-201.96258 6.05888,-3.49809 227.14742,-3.49808 233.2063,10e-6 6.05888,3.4981 116.60314,194.9664 116.60314,201.96259 0,6.99619 -110.54428,198.46448 -116.60316,201.96254 z"
         id="path983"
         inkscape:flatsided="true"
         inkscape:randomized="0"
         inkscape:rounded="0.03"
         inkscape:transform-center-y="-1.3893513e-006"
         sodipodi:arg1="1.0471976"
         sodipodi:arg2="1.5707963"
         sodipodi:cx="273.22754"
         sodipodi:cy="800.12195"
         sodipodi:r1="233.2063"
         sodipodi:r2="201.96259"
         sodipodi:sides="6"
         sodipodi:type="star" />
    </mask>
    <clipPath
       clipPathUnits="userSpaceOnUse"
       id="clipPath993">
      <path
         style="fill:#ffc107;fill-opacity:1;stroke:none;stroke-width:9.69517612;stroke-linecap:round;stroke-miterlimit:4;stroke-dasharray:none;stroke-opacity:1"
         d="m 383.99999,1018.0647 c -6.65108,3.84 -249.34893,3.84 -256,0 C 121.34891,1014.2247 -3.7480982e-7,804.04217 0,796.36217 c 3.7481044e-7,-7.68 121.34894,-217.8625 128.00001,-221.7025 6.65108,-3.84 249.34893,-3.83998 256,2e-5 C 390.65109,578.49969 512,788.6822 512,796.3622 c 0,7.68 -121.34894,217.8625 -128.00001,221.7025 z"
         id="path995"
         inkscape:flatsided="true"
         inkscape:randomized="0"
         inkscape:rounded="0.03"
         inkscape:transform-center-y="-1.3893513e-006"
         sodipodi:arg1="1.0471976"
         sodipodi:arg2="1.5707963"
         sodipodi:cx="256"
         sodipodi:cy="796.36219"
         sodipodi:r1="256"
         sodipodi:r2="221.70251"
         sodipodi:sides="6"
         sodipodi:type="star" />
    </clipPath>
    <clipPath
       clipPathUnits="userSpaceOnUse"
       id="clipPath869">
      <rect
         style="fill:#ffc107;fill-opacity:0.55778898;stroke:none;stroke-width:20.59689903;stroke-linecap:round;stroke-miterlimit:4;stroke-dasharray:none;stroke-opacity:1"
         height="256"
         id="rect871"
         width="795.76593"
         x="-141.88297"
         y="540.36218" />
    </clipPath>
    <clipPath
       clipPathUnits="userSpaceOnUse"
       id="clipPath916">
      <path
         style="fill:#ffc107;fill-opacity:1;stroke:none;stroke-width:21.15226936;stroke-linecap:round;stroke-miterlimit:4;stroke-dasharray:none;stroke-opacity:1"
         d="m 498.92461,931.07915 c -4.3035,7.45389 -239.85589,143.45015 -248.4629,143.45015 -8.607,0 -244.1593859,-135.99627 -248.4628894,-143.45015 C -2.304683,923.62526 -2.3046818,651.6328 1.9988218,644.17891 6.3023254,636.72502 241.85471,500.72879 250.46172,500.72879 c 8.607,0 244.15939,135.99623 248.46289,143.45012 4.3035,7.45389 4.3035,279.44635 0,286.90024 z"
         id="path918"
         inkscape:flatsided="true"
         inkscape:randomized="0"
         inkscape:rounded="0.03"
         sodipodi:arg1="0.52359878"
         sodipodi:arg2="1.0471976"
         sodipodi:cx="250.46172"
         sodipodi:cy="787.62903"
         sodipodi:r1="286.90024"
         sodipodi:r2="248.46291"
         sodipodi:sides="6"
         sodipodi:type="star" />
    </clipPath>
    <linearGradient
       inkscape:collect="always"
       xlink:href="#linearGradient8385"
       id="linearGradient945"
       gradientUnits="userSpaceOnUse"
       gradientTransform="matrix(0.97950969,0,0,0.97950969,1.1866992,9.9635683)"
       x1="222.98964"
       y1="723.14233"
       x2="508.43848"
       y2="1074.9689" />
    <clipPath
       clipPathUnits="userSpaceOnUse"
       id="clipPath970">
      <rect
         style="fill:#ffc107;fill-opacity:1;stroke-width:1.00359225"
         id="rect972"
         width="604.94604"
         height="300"
         x="-46.473022"
         y="540.36218" />
    </clipPath>
    <clipPath
       id="clipPath4208"
       clipPathUnits="userSpaceOnUse">
      <rect
         y="596.36218"
         x="-65.485626"
         height="328.32825"
         width="742.97125"
         id="rect4210"
         style="fill:#ffa000;fill-opacity:1;stroke-width:1.1093775" />
    </clipPath>
    <clipPath
       id="clipPath4249"
       clipPathUnits="userSpaceOnUse">
      <path
         sodipodi:type="star"
         style="fill:#ffc107;fill-opacity:1;stroke-width:1.04220557"
         id="path4251"
         sodipodi:sides="6"
         sodipodi:cx="1468.9636"
         sodipodi:cy="1417.81"
         sodipodi:r1="250"
         sodipodi:r2="216.50633"
         sodipodi:arg1="0.52359878"
         sodipodi:arg2="1.0471976"
         inkscape:flatsided="true"
         inkscape:rounded="0.14"
         inkscape:randomized="0"
         d="m 1685.47,1542.8101 c -17.5,30.3108 -181.5064,125 -216.5064,125 -35,0 -199.0063,-94.6892 -216.5063,-125 -17.5,-30.3109 -17.5,-219.6892 0,-250 17.5,-30.3109 181.5063,-125 216.5063,-125 35,0 199.0064,94.6891 216.5064,125 17.5,30.3108 17.5,219.6891 0,250 z" />
    </clipPath>
    <clipPath
       id="clipPath4258"
       clipPathUnits="userSpaceOnUse">
      <rect
         y="540.36212"
         x="-37.341774"
         height="250"
         width="608.77484"
         id="rect4260"
         style="fill:#ffc107;fill-opacity:1;stroke-width:0.91904479" />
    </clipPath>
    <clipPath
       clipPathUnits="userSpaceOnUse"
       id="clipPath8162">
      <path
         inkscape:connector-curvature="0"
         style="fill:#ffc107;fill-opacity:1;stroke-width:1.04220557"
         mask="none"
         clip-path="none"
         d="m 1625.756,2059.0242 c -35,0 -199.0059,94.6891 -216.5059,125 -11.4688,19.8646 -15.4211,108.0445 -11.8574,175 h 456.7266 c 3.5637,-66.9555 -0.3886,-155.1354 -11.8574,-175 -17.5,-30.3109 -181.5059,-125 -216.5059,-125 z"
         id="path8164" />
    </clipPath>
    <clipPath
       clipPathUnits="userSpaceOnUse"
       id="clipPath8252">
      <g
         id="g8260"
         transform="translate(495.73433,684.699)">
        <path
           inkscape:connector-curvature="0"
           style="fill:#ffa802;fill-opacity:1;stroke-width:1.04220557"
           clip-path="none"
           d="m 868.69627,1524.4696 c -3.0985,66.2452 0.9276,150.4454 12.1036,169.8027 17.5,30.3109 181.50583,125 216.50583,125 35,0 199.0059,-94.6891 216.5059,-125 11.1759,-19.3573 15.202,-103.5575 12.1035,-169.8027 z"
           id="path8254" />
        <path
           inkscape:connector-curvature="0"
           style="fill:#ff5307;fill-opacity:1;stroke-width:1.00359225"
           d="m 868.76277,1524.4696 c 0,0.039 0,0.076 -0.01,0.1152 h 0.064 c 0,0.039 0,0.078 -0.01,0.1172 h 0.066 c 0,0.039 0,0.076 -0.01,0.1152 h 0.066 c 0,0.039 0,0.076 -0.01,0.1152 h 0.064 c 0,0.039 0,0.076 -0.01,0.1153 h 0.066 c 0,0.039 0,0.078 -0.01,0.1172 h 0.066 c 0,0.039 0,0.076 -0.01,0.1152 h 0.064 c 0,0.039 0,0.076 -0.01,0.1152 h 0.066 c 0,0.039 0,0.076 -0.01,0.1153 h 0.066 c 0,0.039 0,0.078 -0.01,0.1172 h 0.064 c 0,0.039 0,0.076 -0.01,0.1152 h 0.066 c 0,0.039 0,0.076 -0.01,0.1152 h 0.066 c 0,0.039 0,0.078 -0.01,0.1172 h 0.064 c 0,0.039 0,0.076 -0.01,0.1152 h 0.066 c 0,0.039 0,0.077 -0.01,0.1153 h 0.066 c 0,0.039 0,0.076 -0.01,0.1152 h 0.064 c 0,0.039 0,0.078 -0.01,0.1172 h 0.066 c 0,0.039 0,0.076 -0.01,0.1152 h 0.066 c 0,0.039 0,0.077 -0.01,0.1153 h 0.064 c 0,0.039 0,0.076 -0.01,0.1152 h 0.066 c 0,0.039 0,0.078 -0.01,0.1172 h 0.064 c 0,0.039 0,0.076 -0.01,0.1152 v 0 h 0.064 c 0,0.039 0,0.077 -0.01,0.1153 h 0.066 c 0,0.039 0,0.078 -0.01,0.1172 h 0.065 c 0,0.039 0,0.076 -0.01,0.1152 v 0 h 0.064 c 0,0.039 0,0.076 -0.01,0.1152 h 0.066 c 0,0.039 0,0.076 -0.01,0.1153 h 0.064 c 0,0.039 0,0.078 -0.01,0.1171 v 0 h 0.064 c 0,0.039 0,0.077 -0.01,0.1153 h 0.066 c 0,0.039 0,0.076 -0.01,0.1152 h 0.064 c 0,0.039 0,0.076 -0.01,0.1152 v 0 h 0.064 c 0,0.039 0,0.078 -0.01,0.1172 h 0.066 c 0,0.039 0,0.077 -0.01,0.1153 h 0.064 c 0,0.039 0,0.076 -0.01,0.1152 v 0 h 0.064 c 0,0.039 0,0.078 -0.01,0.1172 h 0.066 c 0,0.039 0,0.076 -0.01,0.1152 h 0.064 c 0,0.039 0,0.077 -0.01,0.1153 v 0 h 0.064 c 0,0.039 0,0.076 -0.01,0.1152 h 0.066 c 0,0.039 0,0.078 -0.01,0.1172 h 0.064 c 0,0.039 0,0.076 -0.01,0.1152 v 0 h 0.064 c 0,0.039 0,0.076 -0.01,0.1152 h 0.066 c 0,0.039 0,0.077 -0.01,0.1153 h 0.064 c 0,0.039 0,0.078 -0.01,0.1172 h 0.066 c 0,0.039 0,0.076 -0.01,0.1152 h 0.066 c 0,0.039 0,0.076 -0.01,0.1152 h 0.064 c 0,0.039 0,0.078 -0.01,0.1172 h 0.066 c 0,0.039 0,0.076 -0.01,0.1153 h 0.066 c 0,0.039 0,0.076 -0.01,0.1152 h 0.065 c 0,0.039 0,0.076 -0.01,0.1152 h 0.066 c 0,0.039 0,0.078 -0.01,0.1172 h 0.066 c 0,0.039 0,0.076 -0.01,0.1153 h 0.064 c 0,0.039 0,0.076 -0.01,0.1152 h 0.066 c 0,0.039 0,0.076 -0.01,0.1152 h 0.066 c 0,0.039 0,0.078 -0.01,0.1172 h 0.064 c 0,0.039 0,0.076 -0.01,0.1152 h 0.066 c 0,0.039 0,0.077 -0.01,0.1153 h 0.066 c 0,0.039 0,0.078 -0.01,0.1172 h 0.064 c 0,0.039 0,0.076 -0.01,0.1152 h 0.066 c 0,0.039 0,0.076 -0.01,0.1152 h 0.066 c 0,0.039 0,0.077 -0.01,0.1153 h 0.064 c 0,0.039 0,0.078 -0.01,0.1172 h 0.066 c 0,0.039 0,0.076 -0.01,0.1152 h 0.065 c 0,0.039 0,0.076 -0.01,0.1152 v 0 h 0.064 c 0,0.04 0,0.078 -0.01,0.1172 h 0.066 c 0,0.039 0,0.077 -0.01,0.1152 h 0.064 c 0,0.039 0,0.076 -0.01,0.1153 v 0 h 0.064 c 0,0.039 0,0.076 -0.01,0.1152 h 0.066 c 0,0.04 0,0.078 -0.01,0.1172 h 0.064 c 0,0.039 0,0.076 -0.01,0.1152 v 0 h 0.064 c 0,0.039 0,0.076 -0.01,0.1153 h 0.066 c 0,0.039 0,0.076 -0.01,0.1152 h 0.064 c 0,0.039 0,0.078 -0.01,0.1172 v 0 h 0.065 c 0,0.039 0,0.076 -0.01,0.1152 h 0.066 c 0,0.039 0,0.076 -0.01,0.1153 h 0.064 c 0,0.039 0,0.078 -0.01,0.1171 v 0 h 0.064 c 0,0.039 0,0.077 -0.01,0.1153 h 0.066 c 0,0.039 0,0.076 -0.01,0.1152 h 0.064 c 0,0.039 0,0.076 -0.01,0.1153 v 0 h 0.064 c 0,0.039 0,0.078 -0.01,0.1171 h 0.066 c 0,0.039 0,0.077 -0.01,0.1153 h 0.064 c 0,0.039 0,0.076 -0.01,0.1152 h 0.066 c 0,0.039 0,0.076 -0.01,0.1152 h 0.066 c 0,0.04 0,0.078 -0.01,0.1172 h 0.064 c 0,0.039 0,0.077 -0.01,0.1153 h 0.066 c 0,0.039 0,0.076 -0.01,0.1152 h 0.066 c 0,0.039 0,0.078 -0.01,0.1172 h 0.065 c 0,0.039 0,0.076 -0.01,0.1152 h 0.066 c 0,0.039 0,0.076 -0.01,0.1153 h 0.066 c 0,0.039 0,0.076 -0.01,0.1152 h 0.064 c 0,0.039 0,0.078 -0.01,0.1172 h 0.066 c 0,0.039 0,0.076 -0.01,0.1152 h 0.066 c 0,0.039 0,0.076 -0.01,0.1152 h 0.064 c 0,0.039 0,0.076 -0.01,0.1153 h 0.066 c 0,0.039 0,0.078 -0.01,0.1172 h 0.066 c 0,0.039 0,0.076 -0.01,0.1152 h 0.064 c 0,0.039 0,0.076 -0.01,0.1152 h 0.066 c 0,0.039 0,0.078 -0.01,0.1172 h 0.066 c 0,0.039 0,0.077 -0.01,0.1153 h 0.064 c 0,0.039 0,0.076 -0.01,0.1152 h 0.066 c 0,0.039 0,0.076 -0.01,0.1152 h 0.066 c 0,0.039 0,0.078 -0.01,0.1172 h 0.064 c 0,0.039 0,0.076 -0.01,0.1152 h 0.066 c 0,0.039 0,0.077 -0.01,0.1153 h 0.066 c 0,0.039 0,0.076 -0.01,0.1152 h 0.064 c 0,0.039 0,0.078 -0.01,0.1172 h 0.066 c 0,0.039 0,0.076 -0.01,0.1152 h 0.064 c 0,0.039 0,0.077 -0.01,0.1153 v 0 h 0.064 c 0,0.039 0,0.078 -0.01,0.1172 h 0.066 c 0,0.039 0,0.076 -0.01,0.1152 h 0.064 c 0,0.039 0,0.076 -0.01,0.1152 v 0 h 0.065 c 0,0.039 0,0.077 -0.01,0.1153 h 0.066 c 0,0.039 0,0.078 -0.01,0.1172 h 0.064 c 0,0.039 0,0.076 -0.01,0.1152 v 0 h 0.064 c 0,0.039 0,0.076 -0.01,0.1152 h 0.066 c 0,0.039 0,0.076 -0.01,0.1153 h 0.064 c 0,0.039 0,0.078 -0.01,0.1171 v 0 h 0.064 c 0,0.039 0,0.077 -0.01,0.1153 h 0.066 c 0,0.039 0,0.076 -0.01,0.1152 h 0.064 c 0,0.039 0,0.078 -0.01,0.1172 v 0 h 0.064 c 0,0.039 0,0.076 -0.01,0.1152 h 0.066 c 0,0.039 0,0.077 -0.01,0.1153 h 0.064 c 0,0.039 0,0.076 -0.01,0.1152 h 0.066 c 0,0.039 0,0.078 -0.01,0.1172 h 0.066 c 0,0.039 0,0.076 -0.01,0.1152 h 0.065 c 0,0.039 0,0.077 -0.01,0.1153 h 0.066 c 0,0.039 0,0.076 -0.01,0.1152 h 0.066 c 0,0.039 0,0.078 -0.01,0.1172 h 0.064 c 0,0.039 0,0.076 -0.01,0.1152 h 0.066 c 0,0.039 0,0.076 -0.01,0.1152 h 0.066 c 0,0.039 0,0.078 -0.01,0.1172 h 0.064 c 0,0.039 0,0.076 -0.01,0.1153 h 0.066 c 0,0.039 0,0.076 -0.01,0.1152 h 0.066 c 0,0.039 0,0.076 -0.01,0.1152 h 0.064 c 0,0.039 0,0.078 -0.01,0.1172 h 0.066 c 0,0.039 0,0.076 -0.01,0.1153 h 0.066 c 0,0.039 0,0.076 -0.01,0.1152 h 0.064 c 0,0.039 0,0.076 -0.01,0.1152 h 0.066 c 0,0.039 0,0.078 -0.01,0.1172 h 0.066 c 0,0.039 0,0.076 -0.01,0.1153 h 0.064 c 0,0.039 0,0.076 -0.01,0.1152 h 0.066 c 0,0.039 0,0.078 -0.01,0.1172 h 0.066 c 0,0.039 0,0.076 -0.01,0.1152 h 0.064 c 0,0.039 0,0.076 -0.01,0.1152 h 0.067 c 0,0.039 0,0.077 -0.01,0.1153 h 0.066 c 0,0.039 0,0.078 -0.01,0.1172 h 0.064 c 0,0.039 0,0.076 -0.01,0.1152 h 0.066 c 0,0.039 0,0.076 -0.01,0.1152 h 0.064 c 0,0.039 0,0.077 -0.01,0.1153 v 0 h 0.065 c 0,0.039 0,0.078 -0.01,0.1172 h 0.066 c 0,0.039 0,0.076 -0.01,0.1152 h 0.064 c 0,0.039 0,0.076 -0.01,0.1152 v 0 h 0.064 c 0,0.04 0,0.078 -0.01,0.1172 h 0.066 c 0,0.039 0,0.077 -0.01,0.1152 h 0.064 c 0,0.039 0,0.076 -0.01,0.1153 v 0 h 0.064 c 0,0.039 0,0.076 -0.01,0.1152 h 0.066 c 0,0.04 0,0.078 -0.01,0.1172 h 0.064 c 0,0.039 0,0.076 -0.01,0.1152 v 0 h 0.064 c 0,0.039 0,0.076 -0.01,0.1153 h 0.066 c 0,0.039 0,0.076 -0.01,0.1152 h 0.064 c 0,0.039 0,0.078 -0.01,0.1172 v 0 h 0.064 c 0,0.039 0,0.076 -0.01,0.1152 h 0.066 c 0,0.039 0,0.076 -0.01,0.1153 h 0.064 c 0,0.039 0,0.078 -0.01,0.1171 h 0.066 c 0,0.039 0,0.077 -0.01,0.1153 h 0.066 c 0,0.039 0,0.076 -0.01,0.1152 h 0.064 c 0,0.039 0,0.076 -0.01,0.1153 h 0.066 c 0,0.039 0,0.078 -0.01,0.1171 h 0.067 c 0,0.039 0,0.077 -0.01,0.1153 h 0.064 c 0,0.039 0,0.076 -0.01,0.1152 h 0.066 c 0,0.039 0,0.076 -0.01,0.1152 h 0.066 c 0,0.04 0,0.078 -0.01,0.1172 h 0.064 c 0,0.039 0,0.077 -0.01,0.1153 h 0.066 c 0,0.039 0,0.076 -0.01,0.1152 h 0.066 c 0,0.039 0,0.078 -0.01,0.1172 h 0.064 c 0,0.039 0,0.076 -0.01,0.1152 h 0.066 c 0,0.039 0,0.076 -0.01,0.1153 h 0.066 c 0,0.039 0,0.076 -0.01,0.1152 h 0.064 c 0,0.039 0,0.078 -0.01,0.1172 h 0.066 c 0,0.039 0,0.076 -0.01,0.1152 h 0.066 c 0,0.039 0,0.076 -0.01,0.1152 h 0.064 c 0,0.039 0,0.076 -0.01,0.1153 h 0.066 c 0,0.039 0,0.078 -0.01,0.1172 h 0.066 c 0,0.039 0,0.076 -0.01,0.1152 h 0.064 c 0,0.039 0,0.076 -0.01,0.1152 h 0.066 c 0,0.039 0,0.078 -0.01,0.1172 h 0.066 c 0,0.039 0,0.077 -0.01,0.1153 h 0.064 c 0,0.039 0,0.076 -0.01,0.1152 h 0.066 c 0,0.039 0,0.076 -0.01,0.1152 h 0.064 c 0,0.039 0,0.078 -0.01,0.1172 v 0 h 0.064 c 0,0.039 0,0.076 -0.01,0.1152 h 0.066 c 0,0.039 0,0.077 -0.01,0.1153 h 0.065 c 0,0.039 0,0.078 -0.01,0.1172 v 0 h 0.064 c 0,0.039 0,0.076 -0.01,0.1152 h 0.066 c 0,0.039 0,0.076 -0.01,0.1152 h 0.064 c 0,0.039 0,0.077 -0.01,0.1153 v 0 h 0.064 c 0,0.039 0,0.078 -0.01,0.1172 h 0.066 c 0,0.039 0,0.076 -0.01,0.1152 h 0.064 c 0,0.039 0,0.076 -0.01,0.1152 v 0 h 0.064 c 0,0.039 0,0.077 -0.01,0.1153 h 0.066 c 0,0.039 0,0.078 -0.01,0.1172 h 0.064 c 0,0.039 0,0.076 -0.01,0.1152 h 0.066 c 0,0.039 0,0.076 -0.01,0.1152 h 0.066 c 0,0.039 0,0.078 -0.01,0.1172 h 0.064 c 0,0.039 0,0.076 -0.01,0.1152 h 0.066 c 0,0.039 0,0.077 -0.01,0.1153 h 0.066 c 0,0.039 0,0.076 -0.01,0.1152 h 0.064 c 0,0.039 0,0.078 -0.01,0.1172 h 0.066 c 0,0.039 0,0.076 -0.01,0.1152 h 0.066 c 0,0.039 0,0.077 -0.01,0.1153 h 0.064 c 0,0.039 0,0.076 -0.01,0.1152 h 0.066 c 0,0.039 0,0.078 -0.01,0.1172 h 0.066 c 0,0.039 0,0.076 -0.01,0.1152 h 0.064 c 0,0.039 0,0.077 -0.01,0.1153 h 0.066 c 0,0.039 0,0.078 -0.01,0.1171 h 0.066 c 0,0.039 0,0.076 -0.01,0.1153 h 0.065 c 0,0.039 0,0.076 -0.01,0.1152 h 0.066 c 0,0.039 0,0.076 -0.01,0.1152 h 0.066 c 0,0.039 0,0.078 -0.01,0.1172 h 0.064 c 0,0.039 0,0.076 -0.01,0.1153 h 0.066 c 0,0.039 0,0.076 -0.01,0.1152 h 0.066 c 0,0.039 0,0.076 -0.01,0.1152 h 0.064 c 0,0.039 0,0.078 -0.01,0.1172 h 0.066 c 0,0.039 0,0.076 -0.01,0.1153 h 0.066 c 0,0.039 0,0.076 -0.01,0.1152 h 0.064 c 0,0.039 0,0.078 -0.01,0.1172 h 0.066 c 0,0.039 0,0.076 -0.01,0.1152 h 0.066 c 0,0.039 0,0.076 -0.01,0.1153 h 0.064 c 0,0.039 0,0.076 -0.01,0.1152 h 0.066 c 0,0.039 0,0.078 -0.01,0.1172 h 0.065 c 0,0.039 0,0.076 -0.01,0.1152 v 0 h 0.064 c 0,0.039 0,0.076 -0.01,0.1152 h 0.066 c 0,0.039 0,0.077 -0.01,0.1153 h 0.064 c 0,0.039 0,0.078 -0.01,0.1172 v 0 h 0.064 c 0,0.039 0,0.076 -0.01,0.1152 h 0.066 c 0,0.039 0,0.076 -0.01,0.1152 h 0.064 c 0,0.04 0,0.078 -0.01,0.1172 v 0 h 0.064 c 0,0.039 0,0.077 -0.01,0.1153 h 0.066 c 0,0.039 0,0.076 -0.01,0.1152 h 0.064 c 0,0.039 0,0.076 -0.01,0.1152 v 0 h 0.065 c 0,0.04 0,0.078 -0.01,0.1172 h 0.066 c 0,0.039 0,0.076 -0.01,0.1152 h 0.064 c 0,0.039 0,0.076 -0.01,0.1153 h 0.066 c 0,0.039 0,0.076 -0.01,0.1152 h 0.066 c 0,0.04 0,0.078 -0.01,0.1172 h 0.064 c 0,0.039 0,0.076 -0.01,0.1152 h 0.066 c 0,0.039 0,0.076 -0.01,0.1153 h 0.066 c 0,0.039 0,0.078 -0.01,0.1172 h 0.064 c 0,0.039 0,0.076 -0.01,0.1152 h 0.066 c 0,0.039 0,0.076 -0.01,0.1152 h 0.066 c 0,0.039 0,0.076 -0.01,0.1153 h 0.064 c 0,0.039 0,0.078 -0.01,0.1171 h 0.066 c 0,0.039 0,0.077 -0.01,0.1153 h 0.066 c 0,0.039 0,0.076 -0.01,0.1152 h 0.065 c 0,0.039 0,0.076 -0.01,0.1153 h 0.066 c 0,0.039 0,0.078 -0.01,0.1171 h 0.066 c 0,0.039 0,0.077 -0.01,0.1153 h 0.064 c 0,0.039 0,0.076 -0.01,0.1152 h 0.066 c 0,0.039 0,0.078 -0.01,0.1172 h 0.066 c 0,0.039 0,0.076 -0.01,0.1152 h 0.064 c 0,0.039 0,0.077 -0.01,0.1153 h 0.066 c 0,0.039 0,0.076 -0.01,0.1152 h 0.066 c 0,0.039 0,0.078 -0.01,0.1172 h 0.064 c 0,0.039 0,0.076 -0.01,0.1152 h 0.066 c 0,0.039 0,0.076 -0.01,0.1153 h 0.066 c 0,0.039 0,0.076 -0.01,0.1152 h 0.064 c 0,0.039 0,0.078 -0.01,0.1172 h 0.066 c 0,0.039 0,0.076 -0.01,0.1152 h 0.066 c 0,0.039 0,0.076 -0.01,0.1152 h 0.064 c 0,0.039 0,0.078 -0.01,0.1172 h 0.066 c 0,0.039 0,0.077 -0.01,0.1153 h 0.066 c 0,0.039 0,0.076 -0.01,0.1152 h 0.064 c 0,0.039 0,0.076 -0.01,0.1152 h 0.066 c 0,0.039 0,0.078 -0.01,0.1172 h 0.064 c 0,0.039 0,0.077 -0.01,0.1153 v 0 h 0.064 c 0,0.039 0,0.076 -0.01,0.1152 h 0.066 c 0,0.039 0,0.076 -0.01,0.1152 h 0.064 c 0,0.039 0,0.078 -0.01,0.1172 v 0 h 0.065 c 0,0.039 0,0.076 -0.01,0.1152 h 0.066 c 0,0.039 0,0.077 -0.01,0.1153 h 0.064 c 0,0.039 0,0.078 -0.01,0.1172 v 0 h 0.064 c 0,0.039 0,0.076 -0.01,0.1152 h 0.066 c 0,0.039 0,0.076 -0.01,0.1152 h 0.064 c 0,0.039 0,0.077 -0.01,0.1153 h 0.066 c 0,0.039 0,0.078 -0.01,0.1172 h 0.066 c 0,0.039 0,0.076 -0.01,0.1152 h 0.064 c 0,0.039 0,0.076 -0.01,0.1152 h 0.067 c 0,0.039 0,0.077 -0.01,0.1153 h 0.066 c 0,0.039 0,0.078 -0.01,0.1172 h 0.064 c 0,0.039 0,0.076 -0.01,0.1152 h 0.066 c 0,0.039 0,0.076 -0.01,0.1152 h 0.066 c 0,0.039 0,0.078 -0.01,0.1172 h 0.065 c 0,0.039 0,0.076 -0.01,0.1152 h 0.066 c 0,0.039 0,0.077 -0.01,0.1153 h 0.066 c 0,0.039 0,0.076 -0.01,0.1152 h 0.064 c 0,0.039 0,0.078 -0.01,0.1172 h 0.066 c 0,0.039 0,0.076 -0.01,0.1152 h 0.066 c 0,0.039 0,0.077 -0.01,0.1153 h 0.064 c 0,0.039 0,0.076 -0.01,0.1152 h 0.066 c 0,0.039 0,0.078 -0.01,0.1172 h 0.066 c 0,0.039 0,0.076 -0.01,0.1152 h 0.064 c 0,0.039 0,0.077 -0.01,0.1153 h 0.066 c 0,0.039 0,0.078 -0.01,0.1171 h 0.066 c 0,0.039 0,0.076 -0.01,0.1153 h 0.064 c 0,0.039 0,0.076 -0.01,0.1152 h 0.066 c 0,0.039 0,0.076 -0.01,0.1152 h 0.066 c 0,0.039 0,0.078 -0.01,0.1172 h 0.064 c 0,0.039 0,0.076 -0.01,0.1153 h 0.066 c 0,0.039 0,0.076 -0.01,0.1152 h 0.066 c 0,0.039 0,0.076 -0.01,0.1152 h 0.064 c 0,0.039 0,0.078 -0.01,0.1172 h 0.067 c 0,0.039 0,0.076 -0.01,0.1153 h 0.066 c 0,0.039 0,0.076 -0.01,0.1152 h 0.064 c 0,0.039 0,0.078 -0.01,0.1172 h 0.066 c 0,0.039 0,0.076 -0.01,0.1152 h 0.064 c 0,0.039 0,0.076 -0.01,0.1153 v 0 h 0.065 c 0,0.039 0,0.076 -0.01,0.1152 h 0.066 c 0,0.039 0,0.078 -0.01,0.1172 h 0.064 c 0,0.039 0,0.076 -0.01,0.1152 v 0 h 0.064 c 0,0.039 0,0.076 -0.01,0.1152 h 0.066 c 0,0.04 0,0.078 -0.01,0.1172 h 0.064 c 0,0.039 0,0.077 -0.01,0.1153 h 0.066 c 0,0.039 0,0.076 -0.01,0.1152 h 0.066 c 0,0.039 0,0.076 -0.01,0.1152 h 0.064 c 0,0.04 0,0.078 -0.01,0.1172 h 0.066 c 0,0.039 0,0.076 -0.01,0.1153 h 0.066 c 0,0.039 0,0.076 -0.01,0.1152 h 0.064 c 0,0.039 0,0.076 -0.01,0.1152 h 0.066 c 0,0.04 0,0.078 -0.01,0.1172 h 0.066 c 0,0.039 0,0.076 -0.01,0.1152 h 0.064 c 0,0.039 0,0.076 -0.01,0.1153 h 0.066 c 0,0.039 0,0.078 -0.01,0.1172 h 0.066 c 0,0.039 0,0.076 -0.01,0.1152 h 0.064 c 0,0.039 0,0.076 -0.01,0.1152 h 0.066 c 0,0.039 0,0.076 -0.01,0.1153 h 0.067 c 0,0.039 0,0.078 -0.01,0.1172 h 0.064 c 0,0.039 0,0.076 -0.01,0.1152 h 0.066 c 0,0.039 0,0.076 -0.01,0.1152 h 0.066 c 0,0.039 0,0.076 -0.01,0.1153 h 0.064 c 0,0.039 0,0.078 -0.01,0.1171 h 0.066 c 0,0.039 0,0.077 -0.01,0.1153 h 0.066 c 0,0.039 0,0.076 -0.01,0.1152 h 0.064 c 0,0.039 0,0.078 -0.01,0.1172 h 0.066 c 0,0.039 0,0.076 -0.01,0.1152 h 0.066 c 0,0.039 0,0.077 -0.01,0.1153 h 0.064 c 0,0.039 0,0.076 -0.01,0.1152 h 0.066 c 0,0.039 0,0.078 -0.01,0.1172 h 0.066 c 0,0.039 0,0.076 -0.01,0.1152 h 0.064 c 0,0.039 0,0.077 -0.01,0.1153 h 0.066 c 0,0.039 0,0.076 -0.01,0.1152 h 0.066 c 0,0.039 0,0.078 -0.01,0.1172 h 0.064 c 0,0.039 0,0.076 -0.01,0.1152 h 0.066 c 0,0.039 0,0.076 -0.01,0.1153 h 0.066 c 0,0.039 0,0.078 -0.01,0.1171 h 0.064 c 0,0.039 0,0.077 -0.01,0.1153 h 0.066 c 0,0.039 0,0.076 -0.01,0.1152 h 0.064 c 0,0.039 0,0.076 -0.01,0.1152 v 0 h 0.064 c 0,0.039 0,0.078 -0.01,0.1172 h 0.066 c 0,0.039 0,0.077 -0.01,0.1153 h 0.065 c 0,0.039 0,0.076 -0.01,0.1152 v 0 h 0.064 c 0,0.039 0,0.076 -0.01,0.1152 h 0.066 c 0,0.039 0,0.078 -0.01,0.1172 h 0.064 c 0,0.039 0,0.077 -0.01,0.1153 h 0.066 c 0,0.039 0,0.076 -0.01,0.1152 h 0.066 c 0,0.039 0,0.078 -0.01,0.1172 h 0.064 c 0,0.039 0,0.076 -0.01,0.1152 h 0.066 c 0,0.039 0,0.076 -0.01,0.1152 h 0.066 c 0,0.039 0,0.077 -0.01,0.1153 h 0.064 c 0,0.039 0,0.078 -0.01,0.1172 h 0.066 c 0,0.039 0,0.076 -0.01,0.1152 h 0.066 c 0,0.039 0,0.076 -0.01,0.1152 h 0.064 c 0,0.039 0,0.077 -0.01,0.1153 h 0.066 c 0,0.039 0,0.078 -0.01,0.1172 h 0.066 c 0,0.039 0,0.076 -0.01,0.1152 h 0.064 c 0,0.039 0,0.076 -0.01,0.1152 h 0.066 c 0,0.039 0,0.078 -0.01,0.1172 h 0.066 c 0,0.039 0,0.076 -0.01,0.1153 h 0.064 c 0,0.039 0,0.076 -0.01,0.1152 h 0.066 c 0,0.039 0,0.076 -0.01,0.1152 h 0.066 c 0,0.039 0,0.078 -0.01,0.1172 h 0.064 c 0,0.039 0,0.076 -0.01,0.1152 h 0.066 c 0,0.039 0,0.077 -0.01,0.1153 h 0.066 c 0,0.039 0,0.076 -0.01,0.1152 h 0.065 c 0,0.039 0,0.078 -0.01,0.1172 h 0.066 c 0,0.039 0,0.076 -0.01,0.1152 h 0.066 c 0,0.039 0,0.077 -0.01,0.1153 h 0.064 c 0,0.039 0,0.078 -0.01,0.1172 h 0.066 c 0,0.039 0,0.076 -0.01,0.1152 h 0.066 c 0,0.039 0,0.076 -0.01,0.1152 h 0.064 c 0,0.039 0,0.077 -0.01,0.1153 h 0.066 c 0,0.039 0,0.078 -0.01,0.1171 h 0.066 c 0,0.039 0,0.076 -0.01,0.1153 h 0.064 c 0,0.039 0,0.076 -0.01,0.1152 h 0.066 c 0,0.039 0,0.076 -0.01,0.1152 h 0.066 c 0,0.039 0,0.078 -0.01,0.1172 h 0.064 c 0,0.039 0,0.076 -0.01,0.1153 h 0.066 c 0,0.039 0,0.076 -0.01,0.1152 h 0.065 c 0,0.039 0,0.078 -0.01,0.1172 v 0 h 0.064 c 0,0.039 0,0.076 -0.01,0.1152 h 0.066 c 0,0.039 0,0.076 -0.01,0.1153 h 0.064 c 0,0.039 0,0.076 -0.01,0.1152 v 0 h 0.064 c 0,0.039 0,0.078 -0.01,0.1172 h 0.066 c 0,0.039 0,0.076 -0.01,0.1152 h 0.064 c 0,0.039 0,0.076 -0.01,0.1153 h 0.066 c 0,0.039 0,0.076 -0.01,0.1152 h 0.066 c 0,0.039 0,0.078 -0.01,0.1172 h 0.064 c 0,0.039 0,0.076 -0.01,0.1152 h 0.066 c 0,0.039 0,0.076 -0.01,0.1152 h 0.066 c 0,0.04 0,0.078 -0.01,0.1172 h 0.064 c 0,0.039 0,0.077 -0.01,0.1153 h 0.066 c 0,0.039 0,0.076 -0.01,0.1152 h 0.066 c 0,0.039 0,0.076 -0.01,0.1152 h 0.064 c 0,0.04 0,0.078 -0.01,0.1172 h 0.066 c 0,0.039 0,0.076 -0.01,0.1153 h 0.066 c 0,0.039 0,0.076 -0.01,0.1152 h 0.064 c 0,0.039 0,0.076 -0.01,0.1152 h 0.066 c 0,0.04 0,0.078 -0.01,0.1172 h 0.066 c 0,0.039 0,0.076 -0.01,0.1152 h 0.064 c 0,0.039 0,0.076 -0.01,0.1153 h 0.066 c 0,0.039 0,0.078 -0.01,0.1172 h 0.066 c 0,0.039 0,0.076 -0.01,0.1152 h 0.065 c 0,0.039 0,0.076 -0.01,0.1152 h 0.066 c 0,0.039 0,0.076 -0.01,0.1153 h 0.066 c 0,0.039 0,0.078 -0.01,0.1172 h 0.064 c 0,0.039 0,0.076 -0.01,0.1152 h 0.066 c 0,0.039 0,0.076 -0.01,0.1152 h 0.066 c 0,0.039 0,0.076 -0.01,0.1153 h 0.064 c 0,0.039 0,0.078 -0.01,0.1171 h 0.066 c 0,0.039 0,0.077 -0.01,0.1153 h 0.066 c 0,0.039 0,0.076 -0.01,0.1152 h 0.064 c 0,0.039 0,0.078 -0.01,0.1172 h 0.066 c 0,0.039 0,0.076 -0.01,0.1152 h 0.066 c 0,0.039 0,0.077 -0.01,0.1153 h 0.064 c 0,0.039 0,0.076 -0.01,0.1152 h 0.066 c 0,0.039 0,0.078 -0.01,0.1172 h 0.066 c 0,0.039 0,0.076 -0.01,0.1152 h 0.064 c 0,0.039 0,0.077 -0.01,0.1153 h 0.066 c 0,0.039 0,0.076 -0.01,0.1152 h 0.066 c 0,0.039 0,0.078 -0.01,0.1172 h 0.064 c 0,0.039 0,0.076 -0.01,0.1152 h 0.066 c 0,0.039 0,0.076 -0.01,0.1153 h 0.064 c 0,0.039 0,0.078 -0.01,0.1171 h 0.066 c 0,0.039 0,0.077 -0.01,0.1153 h 0.066 c 0,0.039 0,0.076 -0.01,0.1152 h 0.064 c 0,0.039 0,0.076 -0.01,0.1152 h 0.066 c 0,0.039 0,0.078 -0.01,0.1172 h 0.066 c 0,0.039 0,0.077 -0.01,0.1153 h 0.064 c 0,0.039 0,0.076 -0.01,0.1152 h 0.066 c 0,0.039 0,0.078 -0.01,0.1172 h 0.066 c 0,0.039 0,0.076 -0.01,0.1152 h 0.064 c 0,0.039 0,0.077 -0.01,0.1153 h 0.066 c 0,0.039 0,0.076 -0.01,0.1152 h 0.066 c 0,0.039 0,0.078 -0.01,0.1172 h 0.064 c 0,0.039 0,0.076 -0.01,0.1152 h 0.067 c 0,0.039 0,0.076 -0.01,0.1152 h 0.066 c 0,0.039 0,0.077 -0.01,0.1153 h 0.064 c 0,0.039 0,0.078 -0.01,0.1172 h 0.066 c 0,0.039 0,0.076 -0.01,0.1152 h 0.066 c 0,0.039 0,0.076 -0.01,0.1152 h 0.065 c 0,0.039 0,0.078 -0.01,0.1172 h 0.066 c 0,0.039 0,0.076 -0.01,0.1153 h 0.066 c 0,0.039 0,0.076 -0.01,0.1152 h 0.064 c 0,0.039 0,0.076 -0.01,0.1152 h 0.066 c 0,0.039 0,0.078 -0.01,0.1172 h 0.066 c 0,0.039 0,0.076 -0.01,0.1153 h 0.064 c 0,0.039 0,0.076 -0.01,0.1152 h 0.066 c 0,0.039 0,0.076 -0.01,0.1152 h 0.066 c 0,0.039 0,0.078 -0.01,0.1172 h 0.064 c 0,0.039 0,0.076 -0.01,0.1152 h 0.066 c 0,0.039 0,0.077 -0.01,0.1153 h 0.066 c 0,0.039 0,0.078 -0.01,0.1172 h 0.064 c 0,0.039 0,0.076 -0.01,0.1152 h 0.066 c 0,0.039 0,0.076 -0.01,0.1152 h 0.066 c 0,0.039 0,0.077 -0.01,0.1153 h 0.064 c 0,0.039 0,0.078 -0.01,0.1172 h 0.066 c 0,0.039 0,0.076 -0.01,0.1152 h 0.066 c 0,0.039 0,0.076 -0.01,0.1152 h 0.064 c 0,0.039 0,0.077 -0.01,0.1153 h 0.067 c 0,0.039 0,0.078 -0.01,0.1171 h 0.066 c 0,0.039 0,0.076 -0.01,0.1153 h 0.064 c 0,0.039 0,0.076 -0.01,0.1152 h 0.066 c 0,0.04 0,0.078 -0.01,0.1172 h 0.064 c 0,0.039 0,0.076 -0.01,0.1152 h 0.066 c 0,0.039 0,0.076 -0.01,0.1153 h 0.066 c 0,0.039 0,0.076 -0.01,0.1152 h 0.064 c 0,0.039 0,0.078 -0.01,0.1172 h 0.066 c 0,0.039 0,0.076 -0.01,0.1152 h 0.066 c 0,0.039 0,0.076 -0.01,0.1153 h 0.064 c 0,0.039 0,0.076 -0.01,0.1152 h 0.066 c 0,0.039 0,0.078 -0.01,0.1172 h 0.066 c 0,0.039 0,0.076 -0.01,0.1152 h 0.064 c 0,0.039 0,0.076 -0.01,0.1153 h 0.066 c 0,0.039 0,0.078 -0.01,0.1171 h 0.066 c 0,0.039 0,0.077 -0.01,0.1153 h 0.064 c 0,0.039 0,0.076 -0.01,0.1152 h 0.066 c 0,0.039 0,0.076 -0.01,0.1152 h 0.066 c 0,0.04 0,0.078 -0.01,0.1172 h 0.064 c 0,0.039 0,0.077 -0.01,0.1153 h 0.066 c 0,0.039 0,0.076 -0.01,0.1152 h 0.066 c 0,0.039 0,0.076 -0.01,0.1152 h 0.064 c 0,0.04 0,0.078 -0.01,0.1172 h 428.18753 c 0.2466,-19.4983 -0.043,-39.3837 -0.9082,-57.8847 z"
           id="path8256" />
        <path
           transform="translate(871.30567,742.1074)"
           clip-path="url(#clipPath970)"
           mask="none"
           sodipodi:type="star"
           style="fill:#ffc107;fill-opacity:1;stroke-width:1.04220557"
           id="path8258"
           sodipodi:sides="6"
           sodipodi:cx="256"
           sodipodi:cy="797.16412"
           sodipodi:r1="250"
           sodipodi:r2="216.50633"
           sodipodi:arg1="0.52359878"
           sodipodi:arg2="1.0471976"
           inkscape:flatsided="true"
           inkscape:rounded="0.14"
           inkscape:randomized="0"
           d="M 472.50635,922.16412 C 455.00635,952.47501 291,1047.1641 256,1047.1641 c -35,0 -199.006352,-94.68909 -216.506351,-124.99998 -17.5,-30.31089 -17.5,-219.68911 1e-6,-250 17.5,-30.31089 181.50635,-125 216.50635,-125 35,0 199.00635,94.68912 216.50635,125 17.5,30.31089 17.5,219.68912 0,250 z" />
      </g>
    </clipPath>
    <linearGradient
       inkscape:collect="always"
       xlink:href="#linearGradient8379"
       id="linearGradient8373"
       x1="125.51751"
       y1="614.80396"
       x2="383.67062"
       y2="705.99023"
       gradientUnits="userSpaceOnUse" />
  </defs>
  <metadata
     id="metadata7">
    <rdf:RDF>
      <cc:Work
         rdf:about="">
        <dc:format>image/svg+xml</dc:format>
        <dc:type
           rdf:resource="http://purl.org/dc/dcmitype/StillImage" />
        <dc:title />
      </cc:Work>
    </rdf:RDF>
  </metadata>
  <g
     id="layer1"
     transform="translate(0,-540.36216)"
     inkscape:groupmode="layer"
     inkscape:label="Layer 1">
    <path
       d="m 472.50638,921.36218 c -17.5,30.31089 -181.50635,125.00002 -216.50635,125.00002 -35,0 -199.006351,-94.68913 -216.506351,-125.00002 -17.5,-30.31089 -17.499999,-219.68911 10e-7,-250 17.5,-30.31089 181.50635,-125 216.50635,-125 35,0 199.00635,94.68911 216.50635,125 17.5,30.31089 17.5,219.68911 0,250 z"
       inkscape:randomized="0"
       inkscape:rounded="0.14"
       inkscape:flatsided="true"
       sodipodi:arg2="1.0471976"
       sodipodi:arg1="0.52359878"
       sodipodi:r2="216.50633"
       sodipodi:r1="250"
       sodipodi:cy="796.36218"
       sodipodi:cx="256.00003"
       sodipodi:sides="6"
       id="path929"
       style="fill:#ffe107;fill-opacity:1;stroke-width:1.04220557"
       sodipodi:type="star" />
    <path
       clip-path="url(#clipPath4258)"
       mask="none"
       sodipodi:type="star"
       style="fill:#ffa000;fill-opacity:1;stroke-width:1.04220557"
       id="path931"
       sodipodi:sides="6"
       sodipodi:cx="256"
       sodipodi:cy="797.16412"
       sodipodi:r1="250"
       sodipodi:r2="216.50633"
       sodipodi:arg1="0.52359878"
       sodipodi:arg2="1.0471976"
       inkscape:flatsided="true"
       inkscape:rounded="0.14"
       inkscape:randomized="0"
       d="M 472.50635,922.16412 C 455.00635,952.47501 291,1047.1641 256,1047.1641 c -35,0 -199.006352,-94.68909 -216.506351,-124.99998 -17.5,-30.31089 -17.5,-219.68911 1e-6,-250 17.5,-30.31089 181.50635,-125 216.50635,-125 35,0 199.00635,94.68912 216.50635,125 17.5,30.31089 17.5,219.68912 0,250 z"
       transform="translate(-1.5e-5,-0.80199)" />
    <path
       sodipodi:type="star"
       style="fill:url(#linearGradient8373);fill-opacity:1;stroke-width:1.04220557"
       id="path8365"
       sodipodi:sides="6"
       sodipodi:cx="256.00003"
       sodipodi:cy="796.36218"
       sodipodi:r1="250"
       sodipodi:r2="216.50633"
       sodipodi:arg1="0.52359878"
       sodipodi:arg2="1.0471976"
       inkscape:flatsided="true"
       inkscape:rounded="0.14"
       inkscape:randomized="0"
       d="m 472.50638,921.36218 c -17.5,30.31089 -181.50635,125.00002 -216.50635,125.00002 -35,0 -199.006351,-94.68913 -216.506351,-125.00002 -17.5,-30.31089 -17.499999,-219.68911 10e-7,-250 17.5,-30.31089 181.50635,-125 216.50635,-125 35,0 199.00635,94.68911 216.50635,125 17.5,30.31089 17.5,219.68911 0,250 z" />
    <g
       style="font-style:normal;font-weight:normal;font-size:52.1415863px;line-height:125%;font-family:sans-serif;letter-spacing:0px;word-spacing:0px;fill:#ffffff;fill-opacity:1;stroke:none;stroke-width:1px;stroke-linecap:butt;stroke-linejoin:miter;stroke-opacity:1"
       id="text4154-1"
       transform="translate(8.763916,-1.2840038)" />
    <g
       style="font-style:normal;font-variant:normal;font-weight:normal;font-stretch:normal;font-size:193.20237732px;line-height:125%;font-family:sans-serif;-inkscape-font-specification:'sans-serif, Normal';text-align:start;letter-spacing:0px;word-spacing:0px;writing-mode:lr-tb;text-anchor:start;fill:#ffffff;fill-opacity:1;stroke:none;stroke-width:1px;stroke-linecap:butt;stroke-linejoin:miter;stroke-opacity:1"
       id="text4154-1-1"
       transform="translate(8.763916,-1.2840038)" />
    <g
       clip-path="url(#clipPath4249)"
       id="g4241"
       transform="translate(-1212.9636,-621.44789)">
      <path
         transform="translate(1212.9636,635.93355)"
         sodipodi:nodetypes="cccccccccccccccccc"
         inkscape:connector-curvature="0"
         id="path933"
         d="m 207.01191,741.77481 c -10.02574,-9.9633 -21.18789,-23.22596 -31.17087,-31.70122 -7.96978,0.84891 -15.29135,-0.47497 -17.99401,2.27121 -0.38929,27.14158 0.77501,55.29517 -0.57585,81.81038 -27.30342,-28.10896 -9.11954,-10.04907 -37.53703,-38.38573 l -61.496751,27.33061 c -0.289032,7.49423 -0.04336,8.60371 -0.31279,13.59124 16.650048,16.16703 37.617641,38.06315 54.273821,54.22655 6.43899,6.75296 13.13043,13.34125 19.85995,19.906 -0.064,4.10313 -2.54427,8.77755 -2.87417,14.98545 356.65384,356.543 20.72848,20.25814 287.10798,287.5418 78.64032,-18.0976 197.96028,-93.1562 288.29335,-131.5319 0,0 -175.68027,-175.30993 -258.44507,-258.61284 -10.58848,-3.74947 -19.81037,-7.06825 -32.79456,-13.91196 l -43.6636,-39.40294 c -14.7037,-1.55154 -19.95635,42.09338 -25.2433,32.30073 -11.99996,-11.39836 -36.82819,-36.00591 -48.82897,-47.40242 -25.03082,-2.63443 -81.95507,-12.09386 -88.59813,26.98504 z"
         clip-path="none"
         style="font-style:normal;font-variant:normal;font-weight:500;font-stretch:normal;font-size:153.61869812px;line-height:125%;font-family:Roboto;-inkscape-font-specification:'Roboto, Medium';text-align:start;letter-spacing:0px;word-spacing:0px;writing-mode:lr-tb;text-anchor:start;fill:url(#linearGradient945);fill-opacity:1;stroke:none;stroke-width:0.97950971;stroke-linecap:butt;stroke-linejoin:miter;stroke-opacity:1" />
      <path
         inkscape:connector-curvature="0"
         id="path935"
         d="m 1641.1209,1425.9594 -45.4058,-16.6782 v -17.5598 l 63.4799,27.3316 v 14.1802 l -63.4799,27.3316 v -17.5599 z"
         style="font-style:normal;font-variant:normal;font-weight:500;font-stretch:normal;font-size:153.61869812px;line-height:125%;font-family:Roboto;-inkscape-font-specification:'Roboto, Medium';text-align:start;letter-spacing:0px;word-spacing:0px;writing-mode:lr-tb;text-anchor:start;fill:#ffffff;fill-opacity:1;stroke:none;stroke-width:0.97950971px;stroke-linecap:butt;stroke-linejoin:miter;stroke-opacity:1"
         clip-path="none" />
      <path
         inkscape:connector-curvature="0"
         id="path937"
         d="m 1540.8314,1481.8717 h -14.0332 l 42.0996,-116.1595 h 14.0332 z"
         style="font-style:normal;font-variant:normal;font-weight:500;font-stretch:normal;font-size:153.61869812px;line-height:125%;font-family:Roboto;-inkscape-font-specification:'Roboto, Medium';text-align:start;letter-spacing:0px;word-spacing:0px;writing-mode:lr-tb;text-anchor:start;fill:#ffffff;fill-opacity:1;stroke:none;stroke-width:0.97950971px;stroke-linecap:butt;stroke-linejoin:miter;stroke-opacity:1"
         clip-path="none" />
      <path
         inkscape:connector-curvature="0"
         id="path939"
         d="m 1508.7371,1350.5632 v 18.2036 q -10.6265,-5.0822 -20.0517,-7.5772 -9.4252,-2.4949 -18.2035,-2.4949 -15.2468,0 -23.5632,5.9139 -8.2239,5.9139 -8.2239,16.8175 0,9.1481 5.4518,13.8607 5.5443,4.6202 20.8833,7.4847 l 11.2734,2.3101 q 20.8833,3.9734 30.7706,14.0454 9.9796,9.9797 9.9796,26.7972 0,20.0517 -13.491,30.401 -13.3986,10.3492 -39.3642,10.3492 -9.7948,0 -20.8833,-2.2177 -10.9961,-2.2177 -22.8238,-6.5607 v -19.22 q 11.3657,6.3758 22.2694,9.61 10.9037,3.2341 21.4377,3.2341 15.9859,0 24.6719,-6.2834 8.686,-6.2835 8.686,-17.9264 0,-10.1645 -6.2835,-15.8935 -6.191,-5.7291 -20.4213,-8.5936 l -11.3657,-2.2177 q -20.8833,-4.1582 -30.2161,-13.029 -9.3328,-8.8708 -9.3328,-24.6719 0,-18.296 12.8441,-28.8301 12.9366,-10.534 35.5756,-10.534 9.7025,0 19.7745,1.7556 10.072,1.7557 20.6061,5.2671 z"
         style="font-style:normal;font-variant:normal;font-weight:500;font-stretch:normal;font-size:153.61869812px;line-height:125%;font-family:Roboto;-inkscape-font-specification:'Roboto, Medium';text-align:start;letter-spacing:0px;word-spacing:0px;writing-mode:lr-tb;text-anchor:start;fill:#ffffff;fill-opacity:1;stroke:none;stroke-width:0.97950971px;stroke-linecap:butt;stroke-linejoin:miter;stroke-opacity:1"
         clip-path="none" />
      <path
         inkscape:connector-curvature="0"
         id="path941"
         d="m 1370.2234,1346.0354 h 18.6656 v 128.3493 q 0,24.9491 -9.5176,36.2224 -9.4253,11.2733 -30.401,11.2733 h -7.1151 v -15.7087 h 5.8215 q 12.3821,0 17.4643,-6.9303 5.0823,-6.9303 5.0823,-24.8567 z"
         style="font-style:normal;font-variant:normal;font-weight:500;font-stretch:normal;font-size:153.61869812px;line-height:125%;font-family:Roboto;-inkscape-font-specification:'Roboto, Medium';text-align:start;letter-spacing:0px;word-spacing:0px;writing-mode:lr-tb;text-anchor:start;fill:#ffffff;fill-opacity:1;stroke:none;stroke-width:0.97950971px;stroke-linecap:butt;stroke-linejoin:miter;stroke-opacity:1"
         clip-path="none" />
      <path
         inkscape:connector-curvature="0"
         id="path943"
         d="m 1288.762,1425.7226 43.3486,16.4578 v 17.8537 l -61.4962,-27.4051 v -14.1801 l 61.4962,-27.3316 v 17.8537 z"
         style="font-style:normal;font-variant:normal;font-weight:500;font-stretch:normal;font-size:153.61869812px;line-height:125%;font-family:Roboto;-inkscape-font-specification:'Roboto, Medium';text-align:start;letter-spacing:0px;word-spacing:0px;writing-mode:lr-tb;text-anchor:start;fill:#ffffff;fill-opacity:1;stroke:none;stroke-width:0.97950971px;stroke-linecap:butt;stroke-linejoin:miter;stroke-opacity:1"
         clip-path="none" />
      <path
         clip-path="none"
         style="font-style:normal;font-variant:normal;font-weight:500;font-stretch:normal;font-size:153.61869812px;line-height:125%;font-family:Roboto;-inkscape-font-specification:'Roboto, Medium';text-align:start;letter-spacing:0px;word-spacing:0px;writing-mode:lr-tb;text-anchor:start;fill:#ffffff;fill-opacity:1;stroke:none;stroke-width:0.97950971px;stroke-linecap:butt;stroke-linejoin:miter;stroke-opacity:1"
         d="m 1641.1209,1425.9594 -45.4058,-16.6782 v -17.5598 l 63.4799,27.3316 v 14.1802 l -63.4799,27.3316 v -17.5599 z"
         id="path8395"
         inkscape:connector-curvature="0" />
      <path
         clip-path="none"
         style="font-style:normal;font-variant:normal;font-weight:500;font-stretch:normal;font-size:153.61869812px;line-height:125%;font-family:Roboto;-inkscape-font-specification:'Roboto, Medium';text-align:start;letter-spacing:0px;word-spacing:0px;writing-mode:lr-tb;text-anchor:start;fill:#ffffff;fill-opacity:1;stroke:none;stroke-width:0.97950971px;stroke-linecap:butt;stroke-linejoin:miter;stroke-opacity:1"
         d="m 1540.8314,1481.8717 h -14.0332 l 42.0996,-116.1595 h 14.0332 z"
         id="path8397"
         inkscape:connector-curvature="0" />
      <path
         clip-path="none"
         style="font-style:normal;font-variant:normal;font-weight:500;font-stretch:normal;font-size:153.61869812px;line-height:125%;font-family:Roboto;-inkscape-font-specification:'Roboto, Medium';text-align:start;letter-spacing:0px;word-spacing:0px;writing-mode:lr-tb;text-anchor:start;fill:#ffffff;fill-opacity:1;stroke:none;stroke-width:0.97950971px;stroke-linecap:butt;stroke-linejoin:miter;stroke-opacity:1"
         d="m 1508.7371,1350.5632 v 18.2036 q -10.6265,-5.0822 -20.0517,-7.5772 -9.4252,-2.4949 -18.2035,-2.4949 -15.2468,0 -23.5632,5.9139 -8.2239,5.9139 -8.2239,16.8175 0,9.1481 5.4518,13.8607 5.5443,4.6202 20.8833,7.4847 l 11.2734,2.3101 q 20.8833,3.9734 30.7706,14.0454 9.9796,9.9797 9.9796,26.7972 0,20.0517 -13.491,30.401 -13.3986,10.3492 -39.3642,10.3492 -9.7948,0 -20.8833,-2.2177 -10.9961,-2.2177 -22.8238,-6.5607 v -19.22 q 11.3657,6.3758 22.2694,9.61 10.9037,3.2341 21.4377,3.2341 15.9859,0 24.6719,-6.2834 8.686,-6.2835 8.686,-17.9264 0,-10.1645 -6.2835,-15.8935 -6.191,-5.7291 -20.4213,-8.5936 l -11.3657,-2.2177 q -20.8833,-4.1582 -30.2161,-13.029 -9.3328,-8.8708 -9.3328,-24.6719 0,-18.296 12.8441,-28.8301 12.9366,-10.534 35.5756,-10.534 9.7025,0 19.7745,1.7556 10.072,1.7557 20.6061,5.2671 z"
         id="path8399"
         inkscape:connector-curvature="0" />
      <path
         clip-path="none"
         style="font-style:normal;font-variant:normal;font-weight:500;font-stretch:normal;font-size:153.61869812px;line-height:125%;font-family:Roboto;-inkscape-font-specification:'Roboto, Medium';text-align:start;letter-spacing:0px;word-spacing:0px;writing-mode:lr-tb;text-anchor:start;fill:#ffffff;fill-opacity:1;stroke:none;stroke-width:0.97950971px;stroke-linecap:butt;stroke-linejoin:miter;stroke-opacity:1"
         d="m 1370.2234,1346.0354 h 18.6656 v 128.3493 q 0,24.9491 -9.5176,36.2224 -9.4253,11.2733 -30.401,11.2733 h -7.1151 v -15.7087 h 5.8215 q 12.3821,0 17.4643,-6.9303 5.0823,-6.9303 5.0823,-24.8567 z"
         id="path8401"
         inkscape:connector-curvature="0" />
      <path
         clip-path="none"
         style="font-style:normal;font-variant:normal;font-weight:500;font-stretch:normal;font-size:153.61869812px;line-height:125%;font-family:Roboto;-inkscape-font-specification:'Roboto, Medium';text-align:start;letter-spacing:0px;word-spacing:0px;writing-mode:lr-tb;text-anchor:start;fill:#ffffff;fill-opacity:1;stroke:none;stroke-width:0.97950971px;stroke-linecap:butt;stroke-linejoin:miter;stroke-opacity:1"
         d="m 1288.762,1425.7226 43.3486,16.4578 v 17.8537 l -61.4962,-27.4051 v -14.1801 l 61.4962,-27.3316 v 17.8537 z"
         id="path8403"
         inkscape:connector-curvature="0" />
    </g>
  </g>
</svg>
