<?xml version="1.0" encoding="UTF-8" standalone="no"?>
<!-- Created with Inkscape (http://www.inkscape.org/) -->

<svg
    xmlns:cc="http://creativecommons.org/ns#"
    xmlns:dc="http://purl.org/dc/elements/1.1/"
    xmlns:inkscape="http://www.inkscape.org/namespaces/inkscape"
    xmlns:rdf="http://www.w3.org/1999/02/22-rdf-syntax-ns#"
    xmlns:sodipodi="http://sodipodi.sourceforge.net/DTD/sodipodi-0.dtd"
    xmlns:xlink="http://www.w3.org/1999/xlink"
    height="512"
    id="svg2"
    version="1.1"
    viewBox="0 0 512.00001 512.00001"
    width="512"
    xmlns="http://www.w3.org/2000/svg"
    inkscape:export-filename="logo.png"
    inkscape:export-xdpi="75"
    inkscape:export-ydpi="75"
    inkscape:version="0.92.2 (5c3e80d, 2017-08-06)"
    sodipodi:docname="logo.svg">
    <sodipodi:namedview
        bordercolor="#666666"
        borderopacity="1.0"
        id="base"
        pagecolor="#ffffff"
        showborder="true"
        showgrid="false"
        showguides="false"
        units="px"
        inkscape:current-layer="layer1"
        inkscape:cx="57.518129"
        inkscape:cy="278.94844"
        inkscape:document-units="px"
        inkscape:pageopacity="0"
        inkscape:pageshadow="2"
        inkscape:showpageshadow="false"
        inkscape:snap-global="false"
        inkscape:window-height="1017"
        inkscape:window-maximized="1"
        inkscape:window-width="1920"
        inkscape:window-x="-8"
        inkscape:window-y="-8"
        inkscape:zoom="0.54914641"/>
    <defs
        id="defs4">
        <linearGradient
            id="linearGradient8385"
            inkscape:collect="always">
            <stop
                style="stop-color:#e94000;stop-opacity:1"
                id="stop8381"
                offset="0"/>
            <stop
                style="stop-color:#ee8c33;stop-opacity:0"
                id="stop8383"
                offset="1"/>
        </linearGradient>
        <linearGradient
            id="linearGradient8379"
            inkscape:collect="always">
            <stop
                style="stop-color:#eb4500;stop-opacity:0.9254902"
                id="stop8375"
                offset="0"/>
            <stop
                style="stop-color:#ee8c33;stop-opacity:0"
                id="stop8377"
                offset="1"/>
        </linearGradient>
        <linearGradient
            id="linearGradient15825"
            inkscape:collect="always">
            <stop
                style="stop-color:#e95200;stop-opacity:1"
                id="stop15827"
                offset="0"/>
            <stop
                style="stop-color:#ee8c33;stop-opacity:0"
                id="stop15829"
                offset="1"/>
        </linearGradient>
        <clipPath
            clipPathUnits="userSpaceOnUse"
            id="clipPath4175">
            <rect
                style="fill:#080808;fill-opacity:1"
                height="711.04456"
                id="rect4177"
                width="643.80292"
                x="-60.923595"
                y="-64.988785"/>
        </clipPath>
        <clipPath
            clipPathUnits="userSpaceOnUse"
            id="clipPath4203">
            <rect
                style="fill:#f0624f;fill-opacity:1"
                height="256"
                id="rect4205"
                width="512"
                x="0"
                y="796.36212"/>
        </clipPath>
        <clipPath
            clipPathUnits="userSpaceOnUse"
            id="clipPath852">
            <circle
                style="fill:#ffc107;fill-opacity:1"
                cx="256"
                cy="796.36218"
                id="circle854"
                r="256"/>
        </clipPath>
        <clipPath
            clipPathUnits="userSpaceOnUse"
            id="clipPath846">
            <circle
                style="fill:#ffc107;fill-opacity:1;stroke-width:0.84065276"
                cx="267.02515"
                cy="793.85657"
                id="circle848"
                r="215.20711"/>
        </clipPath>
        <clipPath
            clipPathUnits="userSpaceOnUse"
            id="clipPath874">
            <rect
                style="fill:#ff0020;fill-opacity:0.4070352;stroke:none;stroke-width:22.6955719;stroke-linecap:round;stroke-miterlimit:4;stroke-dasharray:none;stroke-opacity:1"
                height="525.302"
                id="rect876"
                width="1582.4559"
                x="417.01083"
                y="232.05699"/>
        </clipPath>
        <linearGradient
            gradientTransform="translate(12)"
            gradientUnits="userSpaceOnUse"
            id="linearGradient15823-5"
            x1="222.98964"
            x2="349.48532"
            y1="723.14233"
            y2="984.80243"
            inkscape:collect="always"
            xlink:href="#linearGradient15825"/>
        <mask
            id="mask981"
            maskUnits="userSpaceOnUse">
            <path
                style="fill:#ffc107;fill-opacity:1;stroke:none;stroke-width:8.83193779;stroke-linecap:round;stroke-miterlimit:4;stroke-dasharray:none;stroke-opacity:1"
                d="m 389.83068,1002.0845 c -6.05888,3.4981 -227.14742,3.4981 -233.2063,0 C 150.5655,998.58643 40.02124,807.11813 40.02124,800.12194 c 1e-6,-6.99619 110.54428,-198.46448 116.60316,-201.96258 6.05888,-3.49809 227.14742,-3.49808 233.2063,10e-6 6.05888,3.4981 116.60314,194.9664 116.60314,201.96259 0,6.99619 -110.54428,198.46448 -116.60316,201.96254 z"
                id="path983"
                inkscape:flatsided="true"
                inkscape:randomized="0"
                inkscape:rounded="0.03"
                inkscape:transform-center-y="-1.3893513e-006"
                sodipodi:arg1="1.0471976"
                sodipodi:arg2="1.5707963"
                sodipodi:cx="273.22754"
                sodipodi:cy="800.12195"
                sodipodi:r1="233.2063"
                sodipodi:r2="201.96259"
                sodipodi:sides="6"
                sodipodi:type="star"/>
        </mask>
        <clipPath
            clipPathUnits="userSpaceOnUse"
            id="clipPath993">
            <path
                style="fill:#ffc107;fill-opacity:1;stroke:none;stroke-width:9.69517612;stroke-linecap:round;stroke-miterlimit:4;stroke-dasharray:none;stroke-opacity:1"
                d="m 383.99999,1018.0647 c -6.65108,3.84 -249.34893,3.84 -256,0 C 121.34891,1014.2247 -3.7480982e-7,804.04217 0,796.36217 c 3.7481044e-7,-7.68 121.34894,-217.8625 128.00001,-221.7025 6.65108,-3.84 249.34893,-3.83998 256,2e-5 C 390.65109,578.49969 512,788.6822 512,796.3622 c 0,7.68 -121.34894,217.8625 -128.00001,221.7025 z"
                id="path995"
                inkscape:flatsided="true"
                inkscape:randomized="0"
                inkscape:rounded="0.03"
                inkscape:transform-center-y="-1.3893513e-006"
                sodipodi:arg1="1.0471976"
                sodipodi:arg2="1.5707963"
                sodipodi:cx="256"
                sodipodi:cy="796.36219"
                sodipodi:r1="256"
                sodipodi:r2="221.70251"
                sodipodi:sides="6"
                sodipodi:type="star"/>
        </clipPath>
        <clipPath
            clipPathUnits="userSpaceOnUse"
            id="clipPath869">
            <rect
                style="fill:#ffc107;fill-opacity:0.55778898;stroke:none;stroke-width:20.59689903;stroke-linecap:round;stroke-miterlimit:4;stroke-dasharray:none;stroke-opacity:1"
                height="256"
                id="rect871"
                width="795.76593"
                x="-141.88297"
                y="540.36218"/>
        </clipPath>
        <clipPath
            clipPathUnits="userSpaceOnUse"
            id="clipPath916">
            <path
                style="fill:#ffc107;fill-opacity:1;stroke:none;stroke-width:21.15226936;stroke-linecap:round;stroke-miterlimit:4;stroke-dasharray:none;stroke-opacity:1"
                d="m 498.92461,931.07915 c -4.3035,7.45389 -239.85589,143.45015 -248.4629,143.45015 -8.607,0 -244.1593859,-135.99627 -248.4628894,-143.45015 C -2.304683,923.62526 -2.3046818,651.6328 1.9988218,644.17891 6.3023254,636.72502 241.85471,500.72879 250.46172,500.72879 c 8.607,0 244.15939,135.99623 248.46289,143.45012 4.3035,7.45389 4.3035,279.44635 0,286.90024 z"
                id="path918"
                inkscape:flatsided="true"
                inkscape:randomized="0"
                inkscape:rounded="0.03"
                sodipodi:arg1="0.52359878"
                sodipodi:arg2="1.0471976"
                sodipodi:cx="250.46172"
                sodipodi:cy="787.62903"
                sodipodi:r1="286.90024"
                sodipodi:r2="248.46291"
                sodipodi:sides="6"
                sodipodi:type="star"/>
        </clipPath>
        <linearGradient
            gradientTransform="matrix(1.0541903,0,0,1.0541903,-13.813008,-51.374264)"
            gradientUnits="userSpaceOnUse"
            id="linearGradient945"
            x1="222.98964"
            x2="508.43848"
            y1="723.14233"
            y2="1074.9689"
            inkscape:collect="always"
            xlink:href="#linearGradient8385"/>
        <clipPath
            clipPathUnits="userSpaceOnUse"
            id="clipPath970">
            <rect
                style="fill:#ffc107;fill-opacity:1;stroke-width:1.00359225"
                height="300"
                id="rect972"
                width="604.94604"
                x="-46.473022"
                y="540.36218"/>
        </clipPath>
        <clipPath
            clipPathUnits="userSpaceOnUse"
            id="clipPath4208">
            <rect
                style="fill:#ffa000;fill-opacity:1;stroke-width:1.1093775"
                height="328.32825"
                id="rect4210"
                width="742.97125"
                x="-65.485626"
                y="596.36218"/>
        </clipPath>
        <clipPath
            clipPathUnits="userSpaceOnUse"
            id="clipPath4249">
            <path
                style="fill:#ffc107;fill-opacity:1;stroke-width:1.04220557"
                d="m 1685.47,1542.8101 c -17.5,30.3108 -181.5064,125 -216.5064,125 -35,0 -199.0063,-94.6892 -216.5063,-125 -17.5,-30.3109 -17.5,-219.6892 0,-250 17.5,-30.3109 181.5063,-125 216.5063,-125 35,0 199.0064,94.6891 216.5064,125 17.5,30.3108 17.5,219.6891 0,250 z"
                id="path4251"
                inkscape:flatsided="true"
                inkscape:randomized="0"
                inkscape:rounded="0.14"
                sodipodi:arg1="0.52359878"
                sodipodi:arg2="1.0471976"
                sodipodi:cx="1468.9636"
                sodipodi:cy="1417.81"
                sodipodi:r1="250"
                sodipodi:r2="216.50633"
                sodipodi:sides="6"
                sodipodi:type="star"/>
        </clipPath>
        <clipPath
            clipPathUnits="userSpaceOnUse"
            id="clipPath4258">
            <rect
                style="fill:#ffc107;fill-opacity:1;stroke-width:0.91904479"
                height="250"
                id="rect4260"
                width="608.77484"
                x="-37.341774"
                y="540.36212"/>
        </clipPath>
        <clipPath
            clipPathUnits="userSpaceOnUse"
            id="clipPath8162">
            <path
                style="fill:#ffc107;fill-opacity:1;stroke-width:1.04220557"
                clip-path="none"
                d="m 1625.756,2059.0242 c -35,0 -199.0059,94.6891 -216.5059,125 -11.4688,19.8646 -15.4211,108.0445 -11.8574,175 h 456.7266 c 3.5637,-66.9555 -0.3886,-155.1354 -11.8574,-175 -17.5,-30.3109 -181.5059,-125 -216.5059,-125 z"
                id="path8164"
                mask="none"
                inkscape:connector-curvature="0"/>
        </clipPath>
        <clipPath
            clipPathUnits="userSpaceOnUse"
            id="clipPath8252">
            <g
                id="g8260"
                transform="translate(495.73433,684.699)">
        <path
            style="fill:#ffa802;fill-opacity:1;stroke-width:1.04220557"
            clip-path="none"
            d="m 868.69627,1524.4696 c -3.0985,66.2452 0.9276,150.4454 12.1036,169.8027 17.5,30.3109 181.50583,125 216.50583,125 35,0 199.0059,-94.6891 216.5059,-125 11.1759,-19.3573 15.202,-103.5575 12.1035,-169.8027 z"
            id="path8254"
            inkscape:connector-curvature="0"/>
        <path
            style="fill:#ff5307;fill-opacity:1;stroke-width:1.00359225"
            d="m 868.76277,1524.4696 c 0,0.039 0,0.076 -0.01,0.1152 h 0.064 c 0,0.039 0,0.078 -0.01,0.1172 h 0.066 c 0,0.039 0,0.076 -0.01,0.1152 h 0.066 c 0,0.039 0,0.076 -0.01,0.1152 h 0.064 c 0,0.039 0,0.076 -0.01,0.1153 h 0.066 c 0,0.039 0,0.078 -0.01,0.1172 h 0.066 c 0,0.039 0,0.076 -0.01,0.1152 h 0.064 c 0,0.039 0,0.076 -0.01,0.1152 h 0.066 c 0,0.039 0,0.076 -0.01,0.1153 h 0.066 c 0,0.039 0,0.078 -0.01,0.1172 h 0.064 c 0,0.039 0,0.076 -0.01,0.1152 h 0.066 c 0,0.039 0,0.076 -0.01,0.1152 h 0.066 c 0,0.039 0,0.078 -0.01,0.1172 h 0.064 c 0,0.039 0,0.076 -0.01,0.1152 h 0.066 c 0,0.039 0,0.077 -0.01,0.1153 h 0.066 c 0,0.039 0,0.076 -0.01,0.1152 h 0.064 c 0,0.039 0,0.078 -0.01,0.1172 h 0.066 c 0,0.039 0,0.076 -0.01,0.1152 h 0.066 c 0,0.039 0,0.077 -0.01,0.1153 h 0.064 c 0,0.039 0,0.076 -0.01,0.1152 h 0.066 c 0,0.039 0,0.078 -0.01,0.1172 h 0.064 c 0,0.039 0,0.076 -0.01,0.1152 v 0 h 0.064 c 0,0.039 0,0.077 -0.01,0.1153 h 0.066 c 0,0.039 0,0.078 -0.01,0.1172 h 0.065 c 0,0.039 0,0.076 -0.01,0.1152 v 0 h 0.064 c 0,0.039 0,0.076 -0.01,0.1152 h 0.066 c 0,0.039 0,0.076 -0.01,0.1153 h 0.064 c 0,0.039 0,0.078 -0.01,0.1171 v 0 h 0.064 c 0,0.039 0,0.077 -0.01,0.1153 h 0.066 c 0,0.039 0,0.076 -0.01,0.1152 h 0.064 c 0,0.039 0,0.076 -0.01,0.1152 v 0 h 0.064 c 0,0.039 0,0.078 -0.01,0.1172 h 0.066 c 0,0.039 0,0.077 -0.01,0.1153 h 0.064 c 0,0.039 0,0.076 -0.01,0.1152 v 0 h 0.064 c 0,0.039 0,0.078 -0.01,0.1172 h 0.066 c 0,0.039 0,0.076 -0.01,0.1152 h 0.064 c 0,0.039 0,0.077 -0.01,0.1153 v 0 h 0.064 c 0,0.039 0,0.076 -0.01,0.1152 h 0.066 c 0,0.039 0,0.078 -0.01,0.1172 h 0.064 c 0,0.039 0,0.076 -0.01,0.1152 v 0 h 0.064 c 0,0.039 0,0.076 -0.01,0.1152 h 0.066 c 0,0.039 0,0.077 -0.01,0.1153 h 0.064 c 0,0.039 0,0.078 -0.01,0.1172 h 0.066 c 0,0.039 0,0.076 -0.01,0.1152 h 0.066 c 0,0.039 0,0.076 -0.01,0.1152 h 0.064 c 0,0.039 0,0.078 -0.01,0.1172 h 0.066 c 0,0.039 0,0.076 -0.01,0.1153 h 0.066 c 0,0.039 0,0.076 -0.01,0.1152 h 0.065 c 0,0.039 0,0.076 -0.01,0.1152 h 0.066 c 0,0.039 0,0.078 -0.01,0.1172 h 0.066 c 0,0.039 0,0.076 -0.01,0.1153 h 0.064 c 0,0.039 0,0.076 -0.01,0.1152 h 0.066 c 0,0.039 0,0.076 -0.01,0.1152 h 0.066 c 0,0.039 0,0.078 -0.01,0.1172 h 0.064 c 0,0.039 0,0.076 -0.01,0.1152 h 0.066 c 0,0.039 0,0.077 -0.01,0.1153 h 0.066 c 0,0.039 0,0.078 -0.01,0.1172 h 0.064 c 0,0.039 0,0.076 -0.01,0.1152 h 0.066 c 0,0.039 0,0.076 -0.01,0.1152 h 0.066 c 0,0.039 0,0.077 -0.01,0.1153 h 0.064 c 0,0.039 0,0.078 -0.01,0.1172 h 0.066 c 0,0.039 0,0.076 -0.01,0.1152 h 0.065 c 0,0.039 0,0.076 -0.01,0.1152 v 0 h 0.064 c 0,0.04 0,0.078 -0.01,0.1172 h 0.066 c 0,0.039 0,0.077 -0.01,0.1152 h 0.064 c 0,0.039 0,0.076 -0.01,0.1153 v 0 h 0.064 c 0,0.039 0,0.076 -0.01,0.1152 h 0.066 c 0,0.04 0,0.078 -0.01,0.1172 h 0.064 c 0,0.039 0,0.076 -0.01,0.1152 v 0 h 0.064 c 0,0.039 0,0.076 -0.01,0.1153 h 0.066 c 0,0.039 0,0.076 -0.01,0.1152 h 0.064 c 0,0.039 0,0.078 -0.01,0.1172 v 0 h 0.065 c 0,0.039 0,0.076 -0.01,0.1152 h 0.066 c 0,0.039 0,0.076 -0.01,0.1153 h 0.064 c 0,0.039 0,0.078 -0.01,0.1171 v 0 h 0.064 c 0,0.039 0,0.077 -0.01,0.1153 h 0.066 c 0,0.039 0,0.076 -0.01,0.1152 h 0.064 c 0,0.039 0,0.076 -0.01,0.1153 v 0 h 0.064 c 0,0.039 0,0.078 -0.01,0.1171 h 0.066 c 0,0.039 0,0.077 -0.01,0.1153 h 0.064 c 0,0.039 0,0.076 -0.01,0.1152 h 0.066 c 0,0.039 0,0.076 -0.01,0.1152 h 0.066 c 0,0.04 0,0.078 -0.01,0.1172 h 0.064 c 0,0.039 0,0.077 -0.01,0.1153 h 0.066 c 0,0.039 0,0.076 -0.01,0.1152 h 0.066 c 0,0.039 0,0.078 -0.01,0.1172 h 0.065 c 0,0.039 0,0.076 -0.01,0.1152 h 0.066 c 0,0.039 0,0.076 -0.01,0.1153 h 0.066 c 0,0.039 0,0.076 -0.01,0.1152 h 0.064 c 0,0.039 0,0.078 -0.01,0.1172 h 0.066 c 0,0.039 0,0.076 -0.01,0.1152 h 0.066 c 0,0.039 0,0.076 -0.01,0.1152 h 0.064 c 0,0.039 0,0.076 -0.01,0.1153 h 0.066 c 0,0.039 0,0.078 -0.01,0.1172 h 0.066 c 0,0.039 0,0.076 -0.01,0.1152 h 0.064 c 0,0.039 0,0.076 -0.01,0.1152 h 0.066 c 0,0.039 0,0.078 -0.01,0.1172 h 0.066 c 0,0.039 0,0.077 -0.01,0.1153 h 0.064 c 0,0.039 0,0.076 -0.01,0.1152 h 0.066 c 0,0.039 0,0.076 -0.01,0.1152 h 0.066 c 0,0.039 0,0.078 -0.01,0.1172 h 0.064 c 0,0.039 0,0.076 -0.01,0.1152 h 0.066 c 0,0.039 0,0.077 -0.01,0.1153 h 0.066 c 0,0.039 0,0.076 -0.01,0.1152 h 0.064 c 0,0.039 0,0.078 -0.01,0.1172 h 0.066 c 0,0.039 0,0.076 -0.01,0.1152 h 0.064 c 0,0.039 0,0.077 -0.01,0.1153 v 0 h 0.064 c 0,0.039 0,0.078 -0.01,0.1172 h 0.066 c 0,0.039 0,0.076 -0.01,0.1152 h 0.064 c 0,0.039 0,0.076 -0.01,0.1152 v 0 h 0.065 c 0,0.039 0,0.077 -0.01,0.1153 h 0.066 c 0,0.039 0,0.078 -0.01,0.1172 h 0.064 c 0,0.039 0,0.076 -0.01,0.1152 v 0 h 0.064 c 0,0.039 0,0.076 -0.01,0.1152 h 0.066 c 0,0.039 0,0.076 -0.01,0.1153 h 0.064 c 0,0.039 0,0.078 -0.01,0.1171 v 0 h 0.064 c 0,0.039 0,0.077 -0.01,0.1153 h 0.066 c 0,0.039 0,0.076 -0.01,0.1152 h 0.064 c 0,0.039 0,0.078 -0.01,0.1172 v 0 h 0.064 c 0,0.039 0,0.076 -0.01,0.1152 h 0.066 c 0,0.039 0,0.077 -0.01,0.1153 h 0.064 c 0,0.039 0,0.076 -0.01,0.1152 h 0.066 c 0,0.039 0,0.078 -0.01,0.1172 h 0.066 c 0,0.039 0,0.076 -0.01,0.1152 h 0.065 c 0,0.039 0,0.077 -0.01,0.1153 h 0.066 c 0,0.039 0,0.076 -0.01,0.1152 h 0.066 c 0,0.039 0,0.078 -0.01,0.1172 h 0.064 c 0,0.039 0,0.076 -0.01,0.1152 h 0.066 c 0,0.039 0,0.076 -0.01,0.1152 h 0.066 c 0,0.039 0,0.078 -0.01,0.1172 h 0.064 c 0,0.039 0,0.076 -0.01,0.1153 h 0.066 c 0,0.039 0,0.076 -0.01,0.1152 h 0.066 c 0,0.039 0,0.076 -0.01,0.1152 h 0.064 c 0,0.039 0,0.078 -0.01,0.1172 h 0.066 c 0,0.039 0,0.076 -0.01,0.1153 h 0.066 c 0,0.039 0,0.076 -0.01,0.1152 h 0.064 c 0,0.039 0,0.076 -0.01,0.1152 h 0.066 c 0,0.039 0,0.078 -0.01,0.1172 h 0.066 c 0,0.039 0,0.076 -0.01,0.1153 h 0.064 c 0,0.039 0,0.076 -0.01,0.1152 h 0.066 c 0,0.039 0,0.078 -0.01,0.1172 h 0.066 c 0,0.039 0,0.076 -0.01,0.1152 h 0.064 c 0,0.039 0,0.076 -0.01,0.1152 h 0.067 c 0,0.039 0,0.077 -0.01,0.1153 h 0.066 c 0,0.039 0,0.078 -0.01,0.1172 h 0.064 c 0,0.039 0,0.076 -0.01,0.1152 h 0.066 c 0,0.039 0,0.076 -0.01,0.1152 h 0.064 c 0,0.039 0,0.077 -0.01,0.1153 v 0 h 0.065 c 0,0.039 0,0.078 -0.01,0.1172 h 0.066 c 0,0.039 0,0.076 -0.01,0.1152 h 0.064 c 0,0.039 0,0.076 -0.01,0.1152 v 0 h 0.064 c 0,0.04 0,0.078 -0.01,0.1172 h 0.066 c 0,0.039 0,0.077 -0.01,0.1152 h 0.064 c 0,0.039 0,0.076 -0.01,0.1153 v 0 h 0.064 c 0,0.039 0,0.076 -0.01,0.1152 h 0.066 c 0,0.04 0,0.078 -0.01,0.1172 h 0.064 c 0,0.039 0,0.076 -0.01,0.1152 v 0 h 0.064 c 0,0.039 0,0.076 -0.01,0.1153 h 0.066 c 0,0.039 0,0.076 -0.01,0.1152 h 0.064 c 0,0.039 0,0.078 -0.01,0.1172 v 0 h 0.064 c 0,0.039 0,0.076 -0.01,0.1152 h 0.066 c 0,0.039 0,0.076 -0.01,0.1153 h 0.064 c 0,0.039 0,0.078 -0.01,0.1171 h 0.066 c 0,0.039 0,0.077 -0.01,0.1153 h 0.066 c 0,0.039 0,0.076 -0.01,0.1152 h 0.064 c 0,0.039 0,0.076 -0.01,0.1153 h 0.066 c 0,0.039 0,0.078 -0.01,0.1171 h 0.067 c 0,0.039 0,0.077 -0.01,0.1153 h 0.064 c 0,0.039 0,0.076 -0.01,0.1152 h 0.066 c 0,0.039 0,0.076 -0.01,0.1152 h 0.066 c 0,0.04 0,0.078 -0.01,0.1172 h 0.064 c 0,0.039 0,0.077 -0.01,0.1153 h 0.066 c 0,0.039 0,0.076 -0.01,0.1152 h 0.066 c 0,0.039 0,0.078 -0.01,0.1172 h 0.064 c 0,0.039 0,0.076 -0.01,0.1152 h 0.066 c 0,0.039 0,0.076 -0.01,0.1153 h 0.066 c 0,0.039 0,0.076 -0.01,0.1152 h 0.064 c 0,0.039 0,0.078 -0.01,0.1172 h 0.066 c 0,0.039 0,0.076 -0.01,0.1152 h 0.066 c 0,0.039 0,0.076 -0.01,0.1152 h 0.064 c 0,0.039 0,0.076 -0.01,0.1153 h 0.066 c 0,0.039 0,0.078 -0.01,0.1172 h 0.066 c 0,0.039 0,0.076 -0.01,0.1152 h 0.064 c 0,0.039 0,0.076 -0.01,0.1152 h 0.066 c 0,0.039 0,0.078 -0.01,0.1172 h 0.066 c 0,0.039 0,0.077 -0.01,0.1153 h 0.064 c 0,0.039 0,0.076 -0.01,0.1152 h 0.066 c 0,0.039 0,0.076 -0.01,0.1152 h 0.064 c 0,0.039 0,0.078 -0.01,0.1172 v 0 h 0.064 c 0,0.039 0,0.076 -0.01,0.1152 h 0.066 c 0,0.039 0,0.077 -0.01,0.1153 h 0.065 c 0,0.039 0,0.078 -0.01,0.1172 v 0 h 0.064 c 0,0.039 0,0.076 -0.01,0.1152 h 0.066 c 0,0.039 0,0.076 -0.01,0.1152 h 0.064 c 0,0.039 0,0.077 -0.01,0.1153 v 0 h 0.064 c 0,0.039 0,0.078 -0.01,0.1172 h 0.066 c 0,0.039 0,0.076 -0.01,0.1152 h 0.064 c 0,0.039 0,0.076 -0.01,0.1152 v 0 h 0.064 c 0,0.039 0,0.077 -0.01,0.1153 h 0.066 c 0,0.039 0,0.078 -0.01,0.1172 h 0.064 c 0,0.039 0,0.076 -0.01,0.1152 h 0.066 c 0,0.039 0,0.076 -0.01,0.1152 h 0.066 c 0,0.039 0,0.078 -0.01,0.1172 h 0.064 c 0,0.039 0,0.076 -0.01,0.1152 h 0.066 c 0,0.039 0,0.077 -0.01,0.1153 h 0.066 c 0,0.039 0,0.076 -0.01,0.1152 h 0.064 c 0,0.039 0,0.078 -0.01,0.1172 h 0.066 c 0,0.039 0,0.076 -0.01,0.1152 h 0.066 c 0,0.039 0,0.077 -0.01,0.1153 h 0.064 c 0,0.039 0,0.076 -0.01,0.1152 h 0.066 c 0,0.039 0,0.078 -0.01,0.1172 h 0.066 c 0,0.039 0,0.076 -0.01,0.1152 h 0.064 c 0,0.039 0,0.077 -0.01,0.1153 h 0.066 c 0,0.039 0,0.078 -0.01,0.1171 h 0.066 c 0,0.039 0,0.076 -0.01,0.1153 h 0.065 c 0,0.039 0,0.076 -0.01,0.1152 h 0.066 c 0,0.039 0,0.076 -0.01,0.1152 h 0.066 c 0,0.039 0,0.078 -0.01,0.1172 h 0.064 c 0,0.039 0,0.076 -0.01,0.1153 h 0.066 c 0,0.039 0,0.076 -0.01,0.1152 h 0.066 c 0,0.039 0,0.076 -0.01,0.1152 h 0.064 c 0,0.039 0,0.078 -0.01,0.1172 h 0.066 c 0,0.039 0,0.076 -0.01,0.1153 h 0.066 c 0,0.039 0,0.076 -0.01,0.1152 h 0.064 c 0,0.039 0,0.078 -0.01,0.1172 h 0.066 c 0,0.039 0,0.076 -0.01,0.1152 h 0.066 c 0,0.039 0,0.076 -0.01,0.1153 h 0.064 c 0,0.039 0,0.076 -0.01,0.1152 h 0.066 c 0,0.039 0,0.078 -0.01,0.1172 h 0.065 c 0,0.039 0,0.076 -0.01,0.1152 v 0 h 0.064 c 0,0.039 0,0.076 -0.01,0.1152 h 0.066 c 0,0.039 0,0.077 -0.01,0.1153 h 0.064 c 0,0.039 0,0.078 -0.01,0.1172 v 0 h 0.064 c 0,0.039 0,0.076 -0.01,0.1152 h 0.066 c 0,0.039 0,0.076 -0.01,0.1152 h 0.064 c 0,0.04 0,0.078 -0.01,0.1172 v 0 h 0.064 c 0,0.039 0,0.077 -0.01,0.1153 h 0.066 c 0,0.039 0,0.076 -0.01,0.1152 h 0.064 c 0,0.039 0,0.076 -0.01,0.1152 v 0 h 0.065 c 0,0.04 0,0.078 -0.01,0.1172 h 0.066 c 0,0.039 0,0.076 -0.01,0.1152 h 0.064 c 0,0.039 0,0.076 -0.01,0.1153 h 0.066 c 0,0.039 0,0.076 -0.01,0.1152 h 0.066 c 0,0.04 0,0.078 -0.01,0.1172 h 0.064 c 0,0.039 0,0.076 -0.01,0.1152 h 0.066 c 0,0.039 0,0.076 -0.01,0.1153 h 0.066 c 0,0.039 0,0.078 -0.01,0.1172 h 0.064 c 0,0.039 0,0.076 -0.01,0.1152 h 0.066 c 0,0.039 0,0.076 -0.01,0.1152 h 0.066 c 0,0.039 0,0.076 -0.01,0.1153 h 0.064 c 0,0.039 0,0.078 -0.01,0.1171 h 0.066 c 0,0.039 0,0.077 -0.01,0.1153 h 0.066 c 0,0.039 0,0.076 -0.01,0.1152 h 0.065 c 0,0.039 0,0.076 -0.01,0.1153 h 0.066 c 0,0.039 0,0.078 -0.01,0.1171 h 0.066 c 0,0.039 0,0.077 -0.01,0.1153 h 0.064 c 0,0.039 0,0.076 -0.01,0.1152 h 0.066 c 0,0.039 0,0.078 -0.01,0.1172 h 0.066 c 0,0.039 0,0.076 -0.01,0.1152 h 0.064 c 0,0.039 0,0.077 -0.01,0.1153 h 0.066 c 0,0.039 0,0.076 -0.01,0.1152 h 0.066 c 0,0.039 0,0.078 -0.01,0.1172 h 0.064 c 0,0.039 0,0.076 -0.01,0.1152 h 0.066 c 0,0.039 0,0.076 -0.01,0.1153 h 0.066 c 0,0.039 0,0.076 -0.01,0.1152 h 0.064 c 0,0.039 0,0.078 -0.01,0.1172 h 0.066 c 0,0.039 0,0.076 -0.01,0.1152 h 0.066 c 0,0.039 0,0.076 -0.01,0.1152 h 0.064 c 0,0.039 0,0.078 -0.01,0.1172 h 0.066 c 0,0.039 0,0.077 -0.01,0.1153 h 0.066 c 0,0.039 0,0.076 -0.01,0.1152 h 0.064 c 0,0.039 0,0.076 -0.01,0.1152 h 0.066 c 0,0.039 0,0.078 -0.01,0.1172 h 0.064 c 0,0.039 0,0.077 -0.01,0.1153 v 0 h 0.064 c 0,0.039 0,0.076 -0.01,0.1152 h 0.066 c 0,0.039 0,0.076 -0.01,0.1152 h 0.064 c 0,0.039 0,0.078 -0.01,0.1172 v 0 h 0.065 c 0,0.039 0,0.076 -0.01,0.1152 h 0.066 c 0,0.039 0,0.077 -0.01,0.1153 h 0.064 c 0,0.039 0,0.078 -0.01,0.1172 v 0 h 0.064 c 0,0.039 0,0.076 -0.01,0.1152 h 0.066 c 0,0.039 0,0.076 -0.01,0.1152 h 0.064 c 0,0.039 0,0.077 -0.01,0.1153 h 0.066 c 0,0.039 0,0.078 -0.01,0.1172 h 0.066 c 0,0.039 0,0.076 -0.01,0.1152 h 0.064 c 0,0.039 0,0.076 -0.01,0.1152 h 0.067 c 0,0.039 0,0.077 -0.01,0.1153 h 0.066 c 0,0.039 0,0.078 -0.01,0.1172 h 0.064 c 0,0.039 0,0.076 -0.01,0.1152 h 0.066 c 0,0.039 0,0.076 -0.01,0.1152 h 0.066 c 0,0.039 0,0.078 -0.01,0.1172 h 0.065 c 0,0.039 0,0.076 -0.01,0.1152 h 0.066 c 0,0.039 0,0.077 -0.01,0.1153 h 0.066 c 0,0.039 0,0.076 -0.01,0.1152 h 0.064 c 0,0.039 0,0.078 -0.01,0.1172 h 0.066 c 0,0.039 0,0.076 -0.01,0.1152 h 0.066 c 0,0.039 0,0.077 -0.01,0.1153 h 0.064 c 0,0.039 0,0.076 -0.01,0.1152 h 0.066 c 0,0.039 0,0.078 -0.01,0.1172 h 0.066 c 0,0.039 0,0.076 -0.01,0.1152 h 0.064 c 0,0.039 0,0.077 -0.01,0.1153 h 0.066 c 0,0.039 0,0.078 -0.01,0.1171 h 0.066 c 0,0.039 0,0.076 -0.01,0.1153 h 0.064 c 0,0.039 0,0.076 -0.01,0.1152 h 0.066 c 0,0.039 0,0.076 -0.01,0.1152 h 0.066 c 0,0.039 0,0.078 -0.01,0.1172 h 0.064 c 0,0.039 0,0.076 -0.01,0.1153 h 0.066 c 0,0.039 0,0.076 -0.01,0.1152 h 0.066 c 0,0.039 0,0.076 -0.01,0.1152 h 0.064 c 0,0.039 0,0.078 -0.01,0.1172 h 0.067 c 0,0.039 0,0.076 -0.01,0.1153 h 0.066 c 0,0.039 0,0.076 -0.01,0.1152 h 0.064 c 0,0.039 0,0.078 -0.01,0.1172 h 0.066 c 0,0.039 0,0.076 -0.01,0.1152 h 0.064 c 0,0.039 0,0.076 -0.01,0.1153 v 0 h 0.065 c 0,0.039 0,0.076 -0.01,0.1152 h 0.066 c 0,0.039 0,0.078 -0.01,0.1172 h 0.064 c 0,0.039 0,0.076 -0.01,0.1152 v 0 h 0.064 c 0,0.039 0,0.076 -0.01,0.1152 h 0.066 c 0,0.04 0,0.078 -0.01,0.1172 h 0.064 c 0,0.039 0,0.077 -0.01,0.1153 h 0.066 c 0,0.039 0,0.076 -0.01,0.1152 h 0.066 c 0,0.039 0,0.076 -0.01,0.1152 h 0.064 c 0,0.04 0,0.078 -0.01,0.1172 h 0.066 c 0,0.039 0,0.076 -0.01,0.1153 h 0.066 c 0,0.039 0,0.076 -0.01,0.1152 h 0.064 c 0,0.039 0,0.076 -0.01,0.1152 h 0.066 c 0,0.04 0,0.078 -0.01,0.1172 h 0.066 c 0,0.039 0,0.076 -0.01,0.1152 h 0.064 c 0,0.039 0,0.076 -0.01,0.1153 h 0.066 c 0,0.039 0,0.078 -0.01,0.1172 h 0.066 c 0,0.039 0,0.076 -0.01,0.1152 h 0.064 c 0,0.039 0,0.076 -0.01,0.1152 h 0.066 c 0,0.039 0,0.076 -0.01,0.1153 h 0.067 c 0,0.039 0,0.078 -0.01,0.1172 h 0.064 c 0,0.039 0,0.076 -0.01,0.1152 h 0.066 c 0,0.039 0,0.076 -0.01,0.1152 h 0.066 c 0,0.039 0,0.076 -0.01,0.1153 h 0.064 c 0,0.039 0,0.078 -0.01,0.1171 h 0.066 c 0,0.039 0,0.077 -0.01,0.1153 h 0.066 c 0,0.039 0,0.076 -0.01,0.1152 h 0.064 c 0,0.039 0,0.078 -0.01,0.1172 h 0.066 c 0,0.039 0,0.076 -0.01,0.1152 h 0.066 c 0,0.039 0,0.077 -0.01,0.1153 h 0.064 c 0,0.039 0,0.076 -0.01,0.1152 h 0.066 c 0,0.039 0,0.078 -0.01,0.1172 h 0.066 c 0,0.039 0,0.076 -0.01,0.1152 h 0.064 c 0,0.039 0,0.077 -0.01,0.1153 h 0.066 c 0,0.039 0,0.076 -0.01,0.1152 h 0.066 c 0,0.039 0,0.078 -0.01,0.1172 h 0.064 c 0,0.039 0,0.076 -0.01,0.1152 h 0.066 c 0,0.039 0,0.076 -0.01,0.1153 h 0.066 c 0,0.039 0,0.078 -0.01,0.1171 h 0.064 c 0,0.039 0,0.077 -0.01,0.1153 h 0.066 c 0,0.039 0,0.076 -0.01,0.1152 h 0.064 c 0,0.039 0,0.076 -0.01,0.1152 v 0 h 0.064 c 0,0.039 0,0.078 -0.01,0.1172 h 0.066 c 0,0.039 0,0.077 -0.01,0.1153 h 0.065 c 0,0.039 0,0.076 -0.01,0.1152 v 0 h 0.064 c 0,0.039 0,0.076 -0.01,0.1152 h 0.066 c 0,0.039 0,0.078 -0.01,0.1172 h 0.064 c 0,0.039 0,0.077 -0.01,0.1153 h 0.066 c 0,0.039 0,0.076 -0.01,0.1152 h 0.066 c 0,0.039 0,0.078 -0.01,0.1172 h 0.064 c 0,0.039 0,0.076 -0.01,0.1152 h 0.066 c 0,0.039 0,0.076 -0.01,0.1152 h 0.066 c 0,0.039 0,0.077 -0.01,0.1153 h 0.064 c 0,0.039 0,0.078 -0.01,0.1172 h 0.066 c 0,0.039 0,0.076 -0.01,0.1152 h 0.066 c 0,0.039 0,0.076 -0.01,0.1152 h 0.064 c 0,0.039 0,0.077 -0.01,0.1153 h 0.066 c 0,0.039 0,0.078 -0.01,0.1172 h 0.066 c 0,0.039 0,0.076 -0.01,0.1152 h 0.064 c 0,0.039 0,0.076 -0.01,0.1152 h 0.066 c 0,0.039 0,0.078 -0.01,0.1172 h 0.066 c 0,0.039 0,0.076 -0.01,0.1153 h 0.064 c 0,0.039 0,0.076 -0.01,0.1152 h 0.066 c 0,0.039 0,0.076 -0.01,0.1152 h 0.066 c 0,0.039 0,0.078 -0.01,0.1172 h 0.064 c 0,0.039 0,0.076 -0.01,0.1152 h 0.066 c 0,0.039 0,0.077 -0.01,0.1153 h 0.066 c 0,0.039 0,0.076 -0.01,0.1152 h 0.065 c 0,0.039 0,0.078 -0.01,0.1172 h 0.066 c 0,0.039 0,0.076 -0.01,0.1152 h 0.066 c 0,0.039 0,0.077 -0.01,0.1153 h 0.064 c 0,0.039 0,0.078 -0.01,0.1172 h 0.066 c 0,0.039 0,0.076 -0.01,0.1152 h 0.066 c 0,0.039 0,0.076 -0.01,0.1152 h 0.064 c 0,0.039 0,0.077 -0.01,0.1153 h 0.066 c 0,0.039 0,0.078 -0.01,0.1171 h 0.066 c 0,0.039 0,0.076 -0.01,0.1153 h 0.064 c 0,0.039 0,0.076 -0.01,0.1152 h 0.066 c 0,0.039 0,0.076 -0.01,0.1152 h 0.066 c 0,0.039 0,0.078 -0.01,0.1172 h 0.064 c 0,0.039 0,0.076 -0.01,0.1153 h 0.066 c 0,0.039 0,0.076 -0.01,0.1152 h 0.065 c 0,0.039 0,0.078 -0.01,0.1172 v 0 h 0.064 c 0,0.039 0,0.076 -0.01,0.1152 h 0.066 c 0,0.039 0,0.076 -0.01,0.1153 h 0.064 c 0,0.039 0,0.076 -0.01,0.1152 v 0 h 0.064 c 0,0.039 0,0.078 -0.01,0.1172 h 0.066 c 0,0.039 0,0.076 -0.01,0.1152 h 0.064 c 0,0.039 0,0.076 -0.01,0.1153 h 0.066 c 0,0.039 0,0.076 -0.01,0.1152 h 0.066 c 0,0.039 0,0.078 -0.01,0.1172 h 0.064 c 0,0.039 0,0.076 -0.01,0.1152 h 0.066 c 0,0.039 0,0.076 -0.01,0.1152 h 0.066 c 0,0.04 0,0.078 -0.01,0.1172 h 0.064 c 0,0.039 0,0.077 -0.01,0.1153 h 0.066 c 0,0.039 0,0.076 -0.01,0.1152 h 0.066 c 0,0.039 0,0.076 -0.01,0.1152 h 0.064 c 0,0.04 0,0.078 -0.01,0.1172 h 0.066 c 0,0.039 0,0.076 -0.01,0.1153 h 0.066 c 0,0.039 0,0.076 -0.01,0.1152 h 0.064 c 0,0.039 0,0.076 -0.01,0.1152 h 0.066 c 0,0.04 0,0.078 -0.01,0.1172 h 0.066 c 0,0.039 0,0.076 -0.01,0.1152 h 0.064 c 0,0.039 0,0.076 -0.01,0.1153 h 0.066 c 0,0.039 0,0.078 -0.01,0.1172 h 0.066 c 0,0.039 0,0.076 -0.01,0.1152 h 0.065 c 0,0.039 0,0.076 -0.01,0.1152 h 0.066 c 0,0.039 0,0.076 -0.01,0.1153 h 0.066 c 0,0.039 0,0.078 -0.01,0.1172 h 0.064 c 0,0.039 0,0.076 -0.01,0.1152 h 0.066 c 0,0.039 0,0.076 -0.01,0.1152 h 0.066 c 0,0.039 0,0.076 -0.01,0.1153 h 0.064 c 0,0.039 0,0.078 -0.01,0.1171 h 0.066 c 0,0.039 0,0.077 -0.01,0.1153 h 0.066 c 0,0.039 0,0.076 -0.01,0.1152 h 0.064 c 0,0.039 0,0.078 -0.01,0.1172 h 0.066 c 0,0.039 0,0.076 -0.01,0.1152 h 0.066 c 0,0.039 0,0.077 -0.01,0.1153 h 0.064 c 0,0.039 0,0.076 -0.01,0.1152 h 0.066 c 0,0.039 0,0.078 -0.01,0.1172 h 0.066 c 0,0.039 0,0.076 -0.01,0.1152 h 0.064 c 0,0.039 0,0.077 -0.01,0.1153 h 0.066 c 0,0.039 0,0.076 -0.01,0.1152 h 0.066 c 0,0.039 0,0.078 -0.01,0.1172 h 0.064 c 0,0.039 0,0.076 -0.01,0.1152 h 0.066 c 0,0.039 0,0.076 -0.01,0.1153 h 0.064 c 0,0.039 0,0.078 -0.01,0.1171 h 0.066 c 0,0.039 0,0.077 -0.01,0.1153 h 0.066 c 0,0.039 0,0.076 -0.01,0.1152 h 0.064 c 0,0.039 0,0.076 -0.01,0.1152 h 0.066 c 0,0.039 0,0.078 -0.01,0.1172 h 0.066 c 0,0.039 0,0.077 -0.01,0.1153 h 0.064 c 0,0.039 0,0.076 -0.01,0.1152 h 0.066 c 0,0.039 0,0.078 -0.01,0.1172 h 0.066 c 0,0.039 0,0.076 -0.01,0.1152 h 0.064 c 0,0.039 0,0.077 -0.01,0.1153 h 0.066 c 0,0.039 0,0.076 -0.01,0.1152 h 0.066 c 0,0.039 0,0.078 -0.01,0.1172 h 0.064 c 0,0.039 0,0.076 -0.01,0.1152 h 0.067 c 0,0.039 0,0.076 -0.01,0.1152 h 0.066 c 0,0.039 0,0.077 -0.01,0.1153 h 0.064 c 0,0.039 0,0.078 -0.01,0.1172 h 0.066 c 0,0.039 0,0.076 -0.01,0.1152 h 0.066 c 0,0.039 0,0.076 -0.01,0.1152 h 0.065 c 0,0.039 0,0.078 -0.01,0.1172 h 0.066 c 0,0.039 0,0.076 -0.01,0.1153 h 0.066 c 0,0.039 0,0.076 -0.01,0.1152 h 0.064 c 0,0.039 0,0.076 -0.01,0.1152 h 0.066 c 0,0.039 0,0.078 -0.01,0.1172 h 0.066 c 0,0.039 0,0.076 -0.01,0.1153 h 0.064 c 0,0.039 0,0.076 -0.01,0.1152 h 0.066 c 0,0.039 0,0.076 -0.01,0.1152 h 0.066 c 0,0.039 0,0.078 -0.01,0.1172 h 0.064 c 0,0.039 0,0.076 -0.01,0.1152 h 0.066 c 0,0.039 0,0.077 -0.01,0.1153 h 0.066 c 0,0.039 0,0.078 -0.01,0.1172 h 0.064 c 0,0.039 0,0.076 -0.01,0.1152 h 0.066 c 0,0.039 0,0.076 -0.01,0.1152 h 0.066 c 0,0.039 0,0.077 -0.01,0.1153 h 0.064 c 0,0.039 0,0.078 -0.01,0.1172 h 0.066 c 0,0.039 0,0.076 -0.01,0.1152 h 0.066 c 0,0.039 0,0.076 -0.01,0.1152 h 0.064 c 0,0.039 0,0.077 -0.01,0.1153 h 0.067 c 0,0.039 0,0.078 -0.01,0.1171 h 0.066 c 0,0.039 0,0.076 -0.01,0.1153 h 0.064 c 0,0.039 0,0.076 -0.01,0.1152 h 0.066 c 0,0.04 0,0.078 -0.01,0.1172 h 0.064 c 0,0.039 0,0.076 -0.01,0.1152 h 0.066 c 0,0.039 0,0.076 -0.01,0.1153 h 0.066 c 0,0.039 0,0.076 -0.01,0.1152 h 0.064 c 0,0.039 0,0.078 -0.01,0.1172 h 0.066 c 0,0.039 0,0.076 -0.01,0.1152 h 0.066 c 0,0.039 0,0.076 -0.01,0.1153 h 0.064 c 0,0.039 0,0.076 -0.01,0.1152 h 0.066 c 0,0.039 0,0.078 -0.01,0.1172 h 0.066 c 0,0.039 0,0.076 -0.01,0.1152 h 0.064 c 0,0.039 0,0.076 -0.01,0.1153 h 0.066 c 0,0.039 0,0.078 -0.01,0.1171 h 0.066 c 0,0.039 0,0.077 -0.01,0.1153 h 0.064 c 0,0.039 0,0.076 -0.01,0.1152 h 0.066 c 0,0.039 0,0.076 -0.01,0.1152 h 0.066 c 0,0.04 0,0.078 -0.01,0.1172 h 0.064 c 0,0.039 0,0.077 -0.01,0.1153 h 0.066 c 0,0.039 0,0.076 -0.01,0.1152 h 0.066 c 0,0.039 0,0.076 -0.01,0.1152 h 0.064 c 0,0.04 0,0.078 -0.01,0.1172 h 428.18753 c 0.2466,-19.4983 -0.043,-39.3837 -0.9082,-57.8847 z"
            id="path8256"
            inkscape:connector-curvature="0"/>
                <path
                    style="fill:#ffc107;fill-opacity:1;stroke-width:1.04220557"
                    clip-path="url(#clipPath970)"
                    d="M 472.50635,922.16412 C 455.00635,952.47501 291,1047.1641 256,1047.1641 c -35,0 -199.006352,-94.68909 -216.506351,-124.99998 -17.5,-30.31089 -17.5,-219.68911 1e-6,-250 17.5,-30.31089 181.50635,-125 216.50635,-125 35,0 199.00635,94.68912 216.50635,125 17.5,30.31089 17.5,219.68912 0,250 z"
                    id="path8258"
                    mask="none"
                    transform="translate(871.30567,742.1074)"
                    inkscape:flatsided="true"
                    inkscape:randomized="0"
                    inkscape:rounded="0.14"
                    sodipodi:arg1="0.52359878"
                    sodipodi:arg2="1.0471976"
                    sodipodi:cx="256"
                    sodipodi:cy="797.16412"
                    sodipodi:r1="250"
                    sodipodi:r2="216.50633"
                    sodipodi:sides="6"
                    sodipodi:type="star"/>
            </g>
        </clipPath>
        <linearGradient
            gradientTransform="translate(0,-540.36216)"
            gradientUnits="userSpaceOnUse"
            id="linearGradient890"
            x1="128.34509"
            x2="338.1297"
            y1="615.17188"
            y2="789.07812"
            inkscape:collect="always"
            xlink:href="#linearGradient8379"/>
        <clipPath
            clipPathUnits="userSpaceOnUse"
            id="clipPath913">
            <path
                style="fill:#ffbf07;fill-opacity:1;stroke-width:1.16142321"
                d="M 493.92107,929.58565 C 474.41925,963.36379 291.65225,1068.8844 252.6486,1068.8844 213.64496,1068.8844 30.877963,963.36379 11.376142,929.58565 -8.1256788,895.8075 -8.1256779,684.76635 11.376143,650.9882 30.877964,617.21006 213.64496,511.68948 252.64861,511.68948 c 39.00364,0 221.77064,105.52058 241.27246,139.29873 19.50182,33.77814 19.50182,244.81929 0,278.59744 z"
                id="path915"
                inkscape:flatsided="true"
                inkscape:randomized="0"
                inkscape:rounded="0.14"
                sodipodi:arg1="0.52359878"
                sodipodi:arg2="1.0471976"
                sodipodi:cx="252.64861"
                sodipodi:cy="790.28693"
                sodipodi:r1="278.59744"
                sodipodi:r2="241.27243"
                sodipodi:sides="6"
                sodipodi:type="star"/>
        </clipPath>
    </defs>
    <metadata
        id="metadata7">
        <rdf:RDF>
            <cc:Work
                rdf:about="">
                <dc:format>image/svg+xml</dc:format>
                <dc:type
                    rdf:resource="http://purl.org/dc/dcmitype/StillImage"/>
                <dc:title/>
            </cc:Work>
        </rdf:RDF>
    </metadata>
    <g
        id="layer1"
        transform="translate(0,-540.36216)"
        inkscape:groupmode="layer"
        inkscape:label="Layer 1">
        <path
            style="fill:#ffb907;fill-opacity:1;stroke-width:1.04220557"
            d="M 472.50635,921.36218 C 455.00635,951.67307 291,1046.3622 256,1046.3622 c -35,0 -199.006352,-94.68913 -216.506351,-125.00002 -17.5,-30.31089 -17.5,-219.68911 1e-6,-250 17.5,-30.31089 181.50635,-125 216.50635,-125 35,0 199.00635,94.68911 216.50635,125 17.5,30.31089 17.5,219.68911 0,250 z"
            id="path929"
            inkscape:flatsided="true"
            inkscape:randomized="0"
            inkscape:rounded="0.14"
            sodipodi:arg1="0.52359878"
            sodipodi:arg2="1.0471976"
            sodipodi:cx="256"
            sodipodi:cy="796.36216"
            sodipodi:r1="250"
            sodipodi:r2="216.50633"
            sodipodi:sides="6"
            sodipodi:type="star"/>
        <path
            style="fill:#ff8205;fill-opacity:1;stroke-width:1.04220557"
            clip-path="url(#clipPath4258)"
            d="M 472.50635,922.16412 C 455.00635,952.47501 291,1047.1641 256,1047.1641 c -35,0 -199.006352,-94.68909 -216.506351,-124.99998 -17.5,-30.31089 -17.5,-219.68911 1e-6,-250 17.5,-30.31089 181.50635,-125 216.50635,-125 35,0 199.00635,94.68912 216.50635,125 17.5,30.31089 17.5,219.68912 0,250 z"
            id="path931"
            mask="none"
            transform="translate(-1.5e-5,-0.80199)"
            inkscape:flatsided="true"
            inkscape:randomized="0"
            inkscape:rounded="0.14"
            sodipodi:arg1="0.52359878"
            sodipodi:arg2="1.0471976"
            sodipodi:cx="256"
            sodipodi:cy="797.16412"
            sodipodi:r1="250"
            sodipodi:r2="216.50633"
            sodipodi:sides="6"
            sodipodi:type="star"/>
        <path
            style="fill:url(#linearGradient890);fill-opacity:1;stroke-width:1.04220557"
            d="M 256 6 C 248.34375 6 234.51507 10.530733 217.39648 17.927734 C 214.95097 18.984449 212.4366 20.100692 209.86523 21.269531 C 202.15161 24.775876 193.90865 28.764884 185.36523 33.105469 C 182.51723 34.552429 179.6351 36.038344 176.72852 37.558594 C 168.00925 42.119115 159.06291 46.987896 150.11914 52.033203 C 147.1377 53.715069 144.15635 55.416491 141.18359 57.132812 C 117.40212 70.863139 94.166188 85.542337 75.783203 98.681641 C 73.485277 100.32409 71.2629 101.94173 69.125 103.53125 C 63.780777 107.50471 58.963057 111.29937 54.802734 114.83594 C 53.970601 115.54331 53.16323 116.23953 52.384766 116.92578 C 51.606703 117.61169 50.855157 118.28757 50.132812 118.95117 C 49.41012 119.61509 48.715601 120.26783 48.050781 120.9082 C 47.386338 121.54823 46.751014 122.17768 46.146484 122.79297 C 44.936798 124.02419 43.849752 125.20518 42.892578 126.33008 C 41.456818 128.01743 40.314453 129.57918 39.494141 131 C 39.226618 131.46336 38.962469 131.96733 38.703125 132.50391 C 38.60149 132.71422 38.502719 132.95251 38.402344 133.17383 C 38.247439 133.5153 38.09332 133.84954 37.941406 134.2168 C 37.83257 134.47999 37.726437 134.77066 37.619141 135.04688 C 37.476695 135.41348 37.333099 135.77099 37.193359 136.16016 C 37.084136 136.46439 36.97866 136.79354 36.871094 137.11133 C 36.741364 137.49449 36.609747 137.8709 36.482422 138.27344 C 36.364127 138.64756 36.249026 139.045 36.132812 139.43555 C 36.019454 139.81632 35.906305 140.19177 35.794922 140.58789 C 35.668025 141.03944 35.544249 141.51327 35.419922 141.98438 C 35.32684 142.33685 35.23227 142.68364 35.140625 143.04688 C 34.998187 143.61183 34.859662 144.19861 34.720703 144.78906 C 34.652689 145.07783 34.582808 145.3615 34.515625 145.65625 C 34.370719 146.29256 34.228919 146.94962 34.087891 147.61328 C 34.023344 147.91676 33.958268 148.21631 33.894531 148.52539 C 33.757143 149.19224 33.621896 149.87593 33.488281 150.56836 C 33.429641 150.87195 33.370416 151.17401 33.3125 151.48242 C 33.171234 152.23548 33.033426 153.00594 32.896484 153.78711 C 32.857619 154.00857 32.817815 154.22945 32.779297 154.45312 C 32.542237 155.83127 32.321526 157.30612 32.097656 158.76562 C 31.951383 159.71808 31.802768 160.65123 31.662109 161.63672 C 31.46274 163.03539 31.273996 164.49695 31.085938 165.95898 C 30.95434 166.98068 30.819434 167.9899 30.693359 169.04102 C 30.509936 170.57248 30.337717 172.15549 30.166016 173.74609 C 30.054063 174.78162 29.940969 175.80991 29.833984 176.86914 C 29.654906 178.64506 29.485431 180.46425 29.320312 182.30273 C 29.241433 183.17946 29.161641 184.05129 29.085938 184.94141 C 28.91727 186.92828 28.758324 188.95481 28.605469 191.00391 C 28.540286 191.87606 28.474426 192.74626 28.412109 193.62891 C 28.260356 195.78254 28.117127 197.96847 27.982422 200.17969 C 27.937054 200.9229 27.893049 201.66681 27.849609 202.41602 C 27.712003 204.79434 27.583049 207.19962 27.464844 209.63281 C 27.433695 210.27259 27.402853 210.91343 27.373047 211.55664 C 27.255936 214.08961 27.149051 216.6462 27.052734 219.22656 C 27.032055 219.77933 27.011911 220.33398 26.992188 220.88867 C 26.893678 223.66547 26.805072 226.46127 26.730469 229.2793 C 26.723258 229.55104 26.717925 229.82364 26.710938 230.0957 C 26.634991 233.05952 26.571059 236.0419 26.521484 239.03711 C 26.516739 239.32329 26.512317 239.61009 26.507812 239.89648 C 26.4596 242.96777 26.42288 246.0498 26.402344 249.13867 C 26.402214 249.15825 26.402473 249.17768 26.402344 249.19727 L 485.59766 249.19727 C 485.59753 249.17774 485.59779 249.15819 485.59766 249.13867 C 485.57712 246.0498 485.5404 242.96777 485.49219 239.89648 C 485.48768 239.61009 485.48326 239.32329 485.47852 239.03711 C 485.42894 236.0419 485.36501 233.05952 485.28906 230.0957 C 485.28207 229.82364 485.27674 229.55104 485.26953 229.2793 C 485.19493 226.46127 485.10632 223.66547 485.00781 220.88867 C 484.98809 220.33398 484.96795 219.77933 484.94727 219.22656 C 484.85095 216.6462 484.74406 214.08961 484.62695 211.55664 C 484.59715 210.91343 484.56631 210.27259 484.53516 209.63281 C 484.41695 207.19962 484.288 204.79434 484.15039 202.41602 C 484.10695 201.66681 484.06295 200.9229 484.01758 200.17969 C 483.88287 197.96847 483.73964 195.78254 483.58789 193.62891 C 483.52557 192.74626 483.45971 191.87606 483.39453 191.00391 C 483.24168 188.95481 483.08273 186.92828 482.91406 184.94141 C 482.83836 184.05129 482.75857 183.17946 482.67969 182.30273 C 482.51457 180.46425 482.34509 178.64506 482.16602 176.86914 C 482.05903 175.80991 481.94594 174.78162 481.83398 173.74609 C 481.66228 172.15549 481.49006 170.57248 481.30664 169.04102 C 481.18057 167.9899 481.04566 166.98068 480.91406 165.95898 C 480.726 164.49695 480.53726 163.03539 480.33789 161.63672 C 480.19723 160.65123 480.04862 159.71808 479.90234 158.76562 C 479.67847 157.30612 479.45776 155.83127 479.2207 154.45312 C 479.18219 154.22945 479.14238 154.00857 479.10352 153.78711 C 478.96657 153.00594 478.82877 152.23548 478.6875 151.48242 C 478.62958 151.17401 478.57036 150.87195 478.51172 150.56836 C 478.3781 149.87593 478.24286 149.19224 478.10547 148.52539 C 478.04173 148.21631 477.97666 147.91676 477.91211 147.61328 C 477.77108 146.94962 477.62928 146.29256 477.48438 145.65625 C 477.41719 145.3615 477.34731 145.07783 477.2793 144.78906 C 477.14034 144.19861 477.00181 143.61183 476.85938 143.04688 C 476.76773 142.68364 476.67316 142.33685 476.58008 141.98438 C 476.45575 141.51327 476.33198 141.03944 476.20508 140.58789 C 476.09369 140.19177 475.98055 139.81632 475.86719 139.43555 C 475.75097 139.045 475.63587 138.64756 475.51758 138.27344 C 475.39025 137.8709 475.25864 137.49449 475.12891 137.11133 C 475.02134 136.79354 474.91586 136.46439 474.80664 136.16016 C 474.6669 135.77099 474.52331 135.41348 474.38086 135.04688 C 474.27356 134.77066 474.16743 134.47999 474.05859 134.2168 C 473.90668 133.84954 473.75256 133.5153 473.59766 133.17383 C 473.49728 132.95251 473.39851 132.71422 473.29688 132.50391 C 473.03753 131.96733 472.77338 131.46336 472.50586 131 C 471.68555 129.57918 470.54318 128.01743 469.10742 126.33008 C 468.15025 125.20518 467.0632 124.02419 465.85352 122.79297 C 465.24899 122.17768 464.61366 121.54823 463.94922 120.9082 C 463.94889 120.90788 463.9476 120.90852 463.94727 120.9082 C 462.61795 119.62777 461.17173 118.29793 459.61523 116.92578 C 459.61487 116.92546 459.61364 116.9261 459.61328 116.92578 C 454.94282 112.80856 449.28815 108.29946 442.875 103.53125 C 442.87459 103.53095 442.87346 103.53155 442.87305 103.53125 C 415.08078 82.867725 373.05663 57.32173 335.27148 37.558594 C 335.27097 37.558322 335.27005 37.558865 335.26953 37.558594 C 323.6438 31.477905 312.41977 25.944736 302.13477 21.269531 C 302.13421 21.269278 302.13337 21.269785 302.13281 21.269531 C 281.56195 11.91882 264.75 6 256 6 z "
            id="path882"
            transform="translate(0,540.36216)"/>
        <g
            style="font-style:normal;font-weight:normal;font-size:52.1415863px;line-height:125%;font-family:sans-serif;letter-spacing:0px;word-spacing:0px;fill:#ffffff;fill-opacity:1;stroke:none;stroke-width:1px;stroke-linecap:butt;stroke-linejoin:miter;stroke-opacity:1"
            id="text4154-1"
            transform="translate(8.763916,-1.2840038)"/>
        <g
            style="font-style:normal;font-variant:normal;font-weight:normal;font-stretch:normal;font-size:193.20237732px;line-height:125%;font-family:sans-serif;-inkscape-font-specification:'sans-serif, Normal';text-align:start;letter-spacing:0px;word-spacing:0px;writing-mode:lr-tb;text-anchor:start;fill:#ffffff;fill-opacity:1;stroke:none;stroke-width:1px;stroke-linecap:butt;stroke-linejoin:miter;stroke-opacity:1"
            id="text4154-1-1"
            transform="translate(8.763916,-1.2840038)"/>
        <g
            clip-path="url(#clipPath913)"
            id="g1009"
            transform="matrix(0.89735215,0,0,0.89735215,29.285237,87.196513)">
            <path
                style="font-style:normal;font-variant:normal;font-weight:500;font-stretch:normal;font-size:153.61869812px;line-height:125%;font-family:Roboto;-inkscape-font-specification:'Roboto, Medium';text-align:start;letter-spacing:0px;word-spacing:0px;writing-mode:lr-tb;text-anchor:start;fill:url(#linearGradient945);fill-opacity:1;stroke:none;stroke-width:1.05419028;stroke-linecap:butt;stroke-linejoin:miter;stroke-opacity:1"
                clip-path="none"
                d="m 207.7049,736.23234 c -10.79013,-10.72293 -22.80332,-24.99677 -33.54743,-34.11821 -8.57742,0.91363 -16.4572,-0.51119 -19.36592,2.44437 -0.41897,29.21093 0.8341,59.51103 -0.61976,88.04784 -29.3851,-30.25207 -9.81484,-10.81524 -40.39895,-41.31237 l -66.185441,29.41437 c -0.311068,8.06561 -0.04667,9.25968 -0.336638,14.62748 17.919495,17.39965 40.485717,40.96519 58.411809,58.36093 6.92992,7.26783 14.13153,14.35843 21.37413,21.42369 -0.0689,4.41597 -2.73825,9.44678 -3.0933,16.12799 383.84613,383.72687 22.30887,21.80267 308.9979,309.46487 84.63608,-19.4774 213.05333,-100.2587 310.27365,-141.5603 0,0 -189.07463,-188.67609 -278.14965,-278.33025 -11.39578,-4.03534 -21.32077,-7.60716 -35.29491,-14.97265 l -46.99264,-42.40713 c -15.82475,-1.66984 -21.47788,45.3027 -27.16792,34.76343 -12.91487,-12.26741 -39.63608,-38.75111 -52.55183,-51.01652 -26.93924,-2.83528 -88.20356,-13.01593 -95.3531,29.04246 z"
                id="path933"
                inkscape:connector-curvature="0"
                sodipodi:nodetypes="cccccccccccccccccc"/>
            <path
                style="font-style:normal;font-variant:normal;font-weight:500;font-stretch:normal;font-size:153.61869812px;line-height:125%;font-family:Roboto;-inkscape-font-specification:'Roboto, Medium';text-align:start;letter-spacing:0px;word-spacing:0px;writing-mode:lr-tb;text-anchor:start;fill:#ffffff;fill-opacity:1;stroke:none;stroke-width:1.05419028px;stroke-linecap:butt;stroke-linejoin:miter;stroke-opacity:1"
                clip-path="none"
                d="m 445.71104,788.16217 -48.86767,-17.94979 v -18.89861 l 68.31979,29.41544 v 15.26134 l -68.31979,29.41544 v -18.89872 z"
                id="path935"
                inkscape:connector-curvature="0"/>
            <path
                style="font-style:normal;font-variant:normal;font-weight:500;font-stretch:normal;font-size:153.61869812px;line-height:125%;font-family:Roboto;-inkscape-font-specification:'Roboto, Medium';text-align:start;letter-spacing:0px;word-spacing:0px;writing-mode:lr-tb;text-anchor:start;fill:#ffffff;fill-opacity:1;stroke:none;stroke-width:1.05419028px;stroke-linecap:butt;stroke-linejoin:miter;stroke-opacity:1"
                clip-path="none"
                d="m 337.77518,848.33739 h -15.10313 l 45.30939,-125.01583 h 15.10314 z"
                id="path937"
                inkscape:connector-curvature="0"/>
            <path
                style="font-style:normal;font-variant:normal;font-weight:500;font-stretch:normal;font-size:153.61869812px;line-height:125%;font-family:Roboto;-inkscape-font-specification:'Roboto, Medium';text-align:start;letter-spacing:0px;word-spacing:0px;writing-mode:lr-tb;text-anchor:start;fill:#ffffff;fill-opacity:1;stroke:none;stroke-width:1.05419028px;stroke-linecap:butt;stroke-linejoin:miter;stroke-opacity:1"
                clip-path="none"
                d="m 303.23392,707.01755 v 19.5915 q -11.43669,-5.46968 -21.5805,-8.15491 -10.1438,-2.68512 -19.59138,-2.68512 -16.40926,0 -25.35973,6.3648 -8.85091,6.36479 -8.85091,18.09971 0,9.84558 5.86746,14.91748 5.96701,4.97246 22.4755,8.05535 l 12.13292,2.48623 q 22.4755,4.27635 33.11664,15.11626 10.74047,10.74058 10.74047,28.8403 0,21.5805 -14.51959,32.71886 -14.42015,11.13825 -42.36544,11.13825 -10.54159,0 -22.4755,-2.38679 -11.83448,-2.38678 -24.56395,-7.0609 v -20.68539 q 12.23225,6.86191 23.96728,10.34269 11.73503,3.48068 23.07217,3.48068 17.20471,0 26.55295,-6.76246 9.34825,-6.76257 9.34825,-19.29316 0,-10.93947 -6.76257,-17.10527 -6.66302,-6.1659 -21.97828,-9.2488 l -12.23225,-2.38678 q -22.47551,-4.47523 -32.51986,-14.02237 -10.04436,-9.54713 -10.04436,-26.55296 0,-19.69093 13.82337,-31.02818 13.92292,-11.33715 38.28798,-11.33715 10.44225,0 21.28217,1.88946 10.83991,1.88956 22.17716,5.66867 z"
                id="path939"
                inkscape:connector-curvature="0"/>
            <path
                style="font-style:normal;font-variant:normal;font-weight:500;font-stretch:normal;font-size:153.61869812px;line-height:125%;font-family:Roboto;-inkscape-font-specification:'Roboto, Medium';text-align:start;letter-spacing:0px;word-spacing:0px;writing-mode:lr-tb;text-anchor:start;fill:#ffffff;fill-opacity:1;stroke:none;stroke-width:1.05419028px;stroke-linecap:butt;stroke-linejoin:miter;stroke-opacity:1"
                clip-path="none"
                d="m 154.15955,702.14454 h 20.08871 v 138.13502 q 0,26.85129 -10.24324,38.98409 -10.14392,12.13281 -32.71886,12.13281 h -7.65758 v -16.90637 h 6.26535 q 13.32615,0 18.79583,-7.45869 5.46979,-7.45868 5.46979,-26.75184 z"
                id="path941"
                inkscape:connector-curvature="0"/>
            <path
                style="font-style:normal;font-variant:normal;font-weight:500;font-stretch:normal;font-size:153.61869812px;line-height:125%;font-family:Roboto;-inkscape-font-specification:'Roboto, Medium';text-align:start;letter-spacing:0px;word-spacing:0px;writing-mode:lr-tb;text-anchor:start;fill:#ffffff;fill-opacity:1;stroke:none;stroke-width:1.05419028px;stroke-linecap:butt;stroke-linejoin:miter;stroke-opacity:1"
                clip-path="none"
                d="m 66.487301,787.90732 46.653619,17.71259 v 19.21492 L 46.956077,795.34028 v -15.26123 l 66.184843,-29.41544 v 19.21492 z"
                id="path943"
                inkscape:connector-curvature="0"/>
    </g>
    </g>
</svg>
