<?xml version="1.0" encoding="UTF-8" standalone="no"?>
<!-- Created with Inkscape (http://www.inkscape.org/) -->

<svg
    xmlns:cc="http://creativecommons.org/ns#"
    xmlns:dc="http://purl.org/dc/elements/1.1/"
    xmlns:inkscape="http://www.inkscape.org/namespaces/inkscape"
    xmlns:rdf="http://www.w3.org/1999/02/22-rdf-syntax-ns#"
    xmlns:sodipodi="http://sodipodi.sourceforge.net/DTD/sodipodi-0.dtd"
    xmlns:xlink="http://www.w3.org/1999/xlink"
    height="512"
    id="svg2"
    version="1.1"
    viewBox="0 0 512.00001 512.00001"
    width="512"
    xmlns="http://www.w3.org/2000/svg"
    inkscape:export-filename="logo.png"
    inkscape:export-xdpi="75"
    inkscape:export-ydpi="75"
    inkscape:version="0.92.2 (5c3e80d, 2017-08-06)"
    sodipodi:docname="logo.svg">
    <sodipodi:namedview
        bordercolor="#666666"
        borderopacity="1.0"
        id="base"
        pagecolor="#ffffff"
        showborder="true"
        showgrid="false"
        showguides="false"
        units="px"
        inkscape:current-layer="layer1"
        inkscape:cx="13.182337"
        inkscape:cy="292.57101"
        inkscape:document-units="px"
        inkscape:pageopacity="0"
        inkscape:pageshadow="2"
        inkscape:showpageshadow="false"
        inkscape:snap-global="false"
        inkscape:window-height="1017"
        inkscape:window-maximized="1"
        inkscape:window-width="1920"
        inkscape:window-x="-8"
        inkscape:window-y="-8"
        inkscape:zoom="0.54914641"/>
    <defs
        id="defs4">
        <linearGradient
            id="linearGradient8385"
            inkscape:collect="always">
            <stop
                style="stop-color:#e94000;stop-opacity:1"
                id="stop8381"
                offset="0"/>
            <stop
                style="stop-color:#ee8c33;stop-opacity:0"
                id="stop8383"
                offset="1"/>
        </linearGradient>
        <linearGradient
            id="linearGradient8379"
            inkscape:collect="always">
            <stop
                style="stop-color:#e95200;stop-opacity:0.9522059"
                id="stop8375"
                offset="0"/>
            <stop
                style="stop-color:#ee8c33;stop-opacity:0"
                id="stop8377"
                offset="1"/>
        </linearGradient>
        <linearGradient
            id="linearGradient15825"
            inkscape:collect="always">
            <stop
                style="stop-color:#e95200;stop-opacity:1"
                id="stop15827"
                offset="0"/>
            <stop
                style="stop-color:#ee8c33;stop-opacity:0"
                id="stop15829"
                offset="1"/>
        </linearGradient>
        <clipPath
            clipPathUnits="userSpaceOnUse"
            id="clipPath4175">
            <rect
                style="fill:#080808;fill-opacity:1"
                height="711.04456"
                id="rect4177"
                width="643.80292"
                x="-60.923595"
                y="-64.988785"/>
        </clipPath>
        <clipPath
            clipPathUnits="userSpaceOnUse"
            id="clipPath4203">
            <rect
                style="fill:#f0624f;fill-opacity:1"
                height="256"
                id="rect4205"
                width="512"
                x="0"
                y="796.36212"/>
        </clipPath>
        <clipPath
            clipPathUnits="userSpaceOnUse"
            id="clipPath852">
            <circle
                style="fill:#ffc107;fill-opacity:1"
                cx="256"
                cy="796.36218"
                id="circle854"
                r="256"/>
        </clipPath>
        <clipPath
            clipPathUnits="userSpaceOnUse"
            id="clipPath846">
            <circle
                style="fill:#ffc107;fill-opacity:1;stroke-width:0.84065276"
                cx="267.02515"
                cy="793.85657"
                id="circle848"
                r="215.20711"/>
        </clipPath>
        <clipPath
            clipPathUnits="userSpaceOnUse"
            id="clipPath874">
            <rect
                style="fill:#ff0020;fill-opacity:0.4070352;stroke:none;stroke-width:22.6955719;stroke-linecap:round;stroke-miterlimit:4;stroke-dasharray:none;stroke-opacity:1"
                height="525.302"
                id="rect876"
                width="1582.4559"
                x="417.01083"
                y="232.05699"/>
        </clipPath>
        <linearGradient
            gradientTransform="translate(12)"
            gradientUnits="userSpaceOnUse"
            id="linearGradient15823-5"
            x1="222.98964"
            x2="349.48532"
            y1="723.14233"
            y2="984.80243"
            inkscape:collect="always"
            xlink:href="#linearGradient15825"/>
        <mask
            id="mask981"
            maskUnits="userSpaceOnUse">
            <path
                style="fill:#ffc107;fill-opacity:1;stroke:none;stroke-width:8.83193779;stroke-linecap:round;stroke-miterlimit:4;stroke-dasharray:none;stroke-opacity:1"
                d="m 389.83068,1002.0845 c -6.05888,3.4981 -227.14742,3.4981 -233.2063,0 C 150.5655,998.58643 40.02124,807.11813 40.02124,800.12194 c 1e-6,-6.99619 110.54428,-198.46448 116.60316,-201.96258 6.05888,-3.49809 227.14742,-3.49808 233.2063,10e-6 6.05888,3.4981 116.60314,194.9664 116.60314,201.96259 0,6.99619 -110.54428,198.46448 -116.60316,201.96254 z"
                id="path983"
                inkscape:flatsided="true"
                inkscape:randomized="0"
                inkscape:rounded="0.03"
                inkscape:transform-center-y="-1.3893513e-006"
                sodipodi:arg1="1.0471976"
                sodipodi:arg2="1.5707963"
                sodipodi:cx="273.22754"
                sodipodi:cy="800.12195"
                sodipodi:r1="233.2063"
                sodipodi:r2="201.96259"
                sodipodi:sides="6"
                sodipodi:type="star"/>
        </mask>
        <clipPath
            clipPathUnits="userSpaceOnUse"
            id="clipPath993">
            <path
                style="fill:#ffc107;fill-opacity:1;stroke:none;stroke-width:9.69517612;stroke-linecap:round;stroke-miterlimit:4;stroke-dasharray:none;stroke-opacity:1"
                d="m 383.99999,1018.0647 c -6.65108,3.84 -249.34893,3.84 -256,0 C 121.34891,1014.2247 -3.7480982e-7,804.04217 0,796.36217 c 3.7481044e-7,-7.68 121.34894,-217.8625 128.00001,-221.7025 6.65108,-3.84 249.34893,-3.83998 256,2e-5 C 390.65109,578.49969 512,788.6822 512,796.3622 c 0,7.68 -121.34894,217.8625 -128.00001,221.7025 z"
                id="path995"
                inkscape:flatsided="true"
                inkscape:randomized="0"
                inkscape:rounded="0.03"
                inkscape:transform-center-y="-1.3893513e-006"
                sodipodi:arg1="1.0471976"
                sodipodi:arg2="1.5707963"
                sodipodi:cx="256"
                sodipodi:cy="796.36219"
                sodipodi:r1="256"
                sodipodi:r2="221.70251"
                sodipodi:sides="6"
                sodipodi:type="star"/>
        </clipPath>
        <clipPath
            clipPathUnits="userSpaceOnUse"
            id="clipPath869">
            <rect
                style="fill:#ffc107;fill-opacity:0.55778898;stroke:none;stroke-width:20.59689903;stroke-linecap:round;stroke-miterlimit:4;stroke-dasharray:none;stroke-opacity:1"
                height="256"
                id="rect871"
                width="795.76593"
                x="-141.88297"
                y="540.36218"/>
        </clipPath>
        <clipPath
            clipPathUnits="userSpaceOnUse"
            id="clipPath916">
            <path
                style="fill:#ffc107;fill-opacity:1;stroke:none;stroke-width:21.15226936;stroke-linecap:round;stroke-miterlimit:4;stroke-dasharray:none;stroke-opacity:1"
                d="m 498.92461,931.07915 c -4.3035,7.45389 -239.85589,143.45015 -248.4629,143.45015 -8.607,0 -244.1593859,-135.99627 -248.4628894,-143.45015 C -2.304683,923.62526 -2.3046818,651.6328 1.9988218,644.17891 6.3023254,636.72502 241.85471,500.72879 250.46172,500.72879 c 8.607,0 244.15939,135.99623 248.46289,143.45012 4.3035,7.45389 4.3035,279.44635 0,286.90024 z"
                id="path918"
                inkscape:flatsided="true"
                inkscape:randomized="0"
                inkscape:rounded="0.03"
                sodipodi:arg1="0.52359878"
                sodipodi:arg2="1.0471976"
                sodipodi:cx="250.46172"
                sodipodi:cy="787.62903"
                sodipodi:r1="286.90024"
                sodipodi:r2="248.46291"
                sodipodi:sides="6"
                sodipodi:type="star"/>
        </clipPath>
        <linearGradient
            gradientTransform="matrix(1.0541903,0,0,1.0541903,-13.813008,-51.374264)"
            gradientUnits="userSpaceOnUse"
            id="linearGradient945"
            x1="222.98964"
            x2="508.43848"
            y1="723.14233"
            y2="1074.9689"
            inkscape:collect="always"
            xlink:href="#linearGradient8385"/>
        <clipPath
            clipPathUnits="userSpaceOnUse"
            id="clipPath970">
            <rect
                style="fill:#ffc107;fill-opacity:1;stroke-width:1.00359225"
                height="300"
                id="rect972"
                width="604.94604"
                x="-46.473022"
                y="540.36218"/>
        </clipPath>
        <clipPath
            clipPathUnits="userSpaceOnUse"
            id="clipPath4208">
            <rect
                style="fill:#ffa000;fill-opacity:1;stroke-width:1.1093775"
                height="328.32825"
                id="rect4210"
                width="742.97125"
                x="-65.485626"
                y="596.36218"/>
        </clipPath>
        <clipPath
            clipPathUnits="userSpaceOnUse"
            id="clipPath4249">
            <path
                style="fill:#ffc107;fill-opacity:1;stroke-width:1.04220557"
                d="m 1685.47,1542.8101 c -17.5,30.3108 -181.5064,125 -216.5064,125 -35,0 -199.0063,-94.6892 -216.5063,-125 -17.5,-30.3109 -17.5,-219.6892 0,-250 17.5,-30.3109 181.5063,-125 216.5063,-125 35,0 199.0064,94.6891 216.5064,125 17.5,30.3108 17.5,219.6891 0,250 z"
                id="path4251"
                inkscape:flatsided="true"
                inkscape:randomized="0"
                inkscape:rounded="0.14"
                sodipodi:arg1="0.52359878"
                sodipodi:arg2="1.0471976"
                sodipodi:cx="1468.9636"
                sodipodi:cy="1417.81"
                sodipodi:r1="250"
                sodipodi:r2="216.50633"
                sodipodi:sides="6"
                sodipodi:type="star"/>
        </clipPath>
        <clipPath
            clipPathUnits="userSpaceOnUse"
            id="clipPath4258">
            <rect
                style="fill:#ffc107;fill-opacity:1;stroke-width:0.91904479"
                height="250"
                id="rect4260"
                width="608.77484"
                x="-37.341774"
                y="540.36212"/>
        </clipPath>
        <clipPath
            clipPathUnits="userSpaceOnUse"
            id="clipPath8162">
            <path
                style="fill:#ffc107;fill-opacity:1;stroke-width:1.04220557"
                clip-path="none"
                d="m 1625.756,2059.0242 c -35,0 -199.0059,94.6891 -216.5059,125 -11.4688,19.8646 -15.4211,108.0445 -11.8574,175 h 456.7266 c 3.5637,-66.9555 -0.3886,-155.1354 -11.8574,-175 -17.5,-30.3109 -181.5059,-125 -216.5059,-125 z"
                id="path8164"
                mask="none"
                inkscape:connector-curvature="0"/>
        </clipPath>
        <clipPath
            clipPathUnits="userSpaceOnUse"
            id="clipPath8252">
            <g
                id="g8260"
                transform="translate(495.73433,684.699)">
                <path
                    style="fill:#ffa802;fill-opacity:1;stroke-width:1.04220557"
                    clip-path="none"
                    d="m 868.69627,1524.4696 c -3.0985,66.2452 0.9276,150.4454 12.1036,169.8027 17.5,30.3109 181.50583,125 216.50583,125 35,0 199.0059,-94.6891 216.5059,-125 11.1759,-19.3573 15.202,-103.5575 12.1035,-169.8027 z"
                    id="path8254"
                    inkscape:connector-curvature="0"/>
                <path
                    style="fill:#ff5307;fill-opacity:1;stroke-width:1.00359225"
                    d="m 868.76277,1524.4696 c 0,0.039 0,0.076 -0.01,0.1152 h 0.064 c 0,0.039 0,0.078 -0.01,0.1172 h 0.066 c 0,0.039 0,0.076 -0.01,0.1152 h 0.066 c 0,0.039 0,0.076 -0.01,0.1152 h 0.064 c 0,0.039 0,0.076 -0.01,0.1153 h 0.066 c 0,0.039 0,0.078 -0.01,0.1172 h 0.066 c 0,0.039 0,0.076 -0.01,0.1152 h 0.064 c 0,0.039 0,0.076 -0.01,0.1152 h 0.066 c 0,0.039 0,0.076 -0.01,0.1153 h 0.066 c 0,0.039 0,0.078 -0.01,0.1172 h 0.064 c 0,0.039 0,0.076 -0.01,0.1152 h 0.066 c 0,0.039 0,0.076 -0.01,0.1152 h 0.066 c 0,0.039 0,0.078 -0.01,0.1172 h 0.064 c 0,0.039 0,0.076 -0.01,0.1152 h 0.066 c 0,0.039 0,0.077 -0.01,0.1153 h 0.066 c 0,0.039 0,0.076 -0.01,0.1152 h 0.064 c 0,0.039 0,0.078 -0.01,0.1172 h 0.066 c 0,0.039 0,0.076 -0.01,0.1152 h 0.066 c 0,0.039 0,0.077 -0.01,0.1153 h 0.064 c 0,0.039 0,0.076 -0.01,0.1152 h 0.066 c 0,0.039 0,0.078 -0.01,0.1172 h 0.064 c 0,0.039 0,0.076 -0.01,0.1152 v 0 h 0.064 c 0,0.039 0,0.077 -0.01,0.1153 h 0.066 c 0,0.039 0,0.078 -0.01,0.1172 h 0.065 c 0,0.039 0,0.076 -0.01,0.1152 v 0 h 0.064 c 0,0.039 0,0.076 -0.01,0.1152 h 0.066 c 0,0.039 0,0.076 -0.01,0.1153 h 0.064 c 0,0.039 0,0.078 -0.01,0.1171 v 0 h 0.064 c 0,0.039 0,0.077 -0.01,0.1153 h 0.066 c 0,0.039 0,0.076 -0.01,0.1152 h 0.064 c 0,0.039 0,0.076 -0.01,0.1152 v 0 h 0.064 c 0,0.039 0,0.078 -0.01,0.1172 h 0.066 c 0,0.039 0,0.077 -0.01,0.1153 h 0.064 c 0,0.039 0,0.076 -0.01,0.1152 v 0 h 0.064 c 0,0.039 0,0.078 -0.01,0.1172 h 0.066 c 0,0.039 0,0.076 -0.01,0.1152 h 0.064 c 0,0.039 0,0.077 -0.01,0.1153 v 0 h 0.064 c 0,0.039 0,0.076 -0.01,0.1152 h 0.066 c 0,0.039 0,0.078 -0.01,0.1172 h 0.064 c 0,0.039 0,0.076 -0.01,0.1152 v 0 h 0.064 c 0,0.039 0,0.076 -0.01,0.1152 h 0.066 c 0,0.039 0,0.077 -0.01,0.1153 h 0.064 c 0,0.039 0,0.078 -0.01,0.1172 h 0.066 c 0,0.039 0,0.076 -0.01,0.1152 h 0.066 c 0,0.039 0,0.076 -0.01,0.1152 h 0.064 c 0,0.039 0,0.078 -0.01,0.1172 h 0.066 c 0,0.039 0,0.076 -0.01,0.1153 h 0.066 c 0,0.039 0,0.076 -0.01,0.1152 h 0.065 c 0,0.039 0,0.076 -0.01,0.1152 h 0.066 c 0,0.039 0,0.078 -0.01,0.1172 h 0.066 c 0,0.039 0,0.076 -0.01,0.1153 h 0.064 c 0,0.039 0,0.076 -0.01,0.1152 h 0.066 c 0,0.039 0,0.076 -0.01,0.1152 h 0.066 c 0,0.039 0,0.078 -0.01,0.1172 h 0.064 c 0,0.039 0,0.076 -0.01,0.1152 h 0.066 c 0,0.039 0,0.077 -0.01,0.1153 h 0.066 c 0,0.039 0,0.078 -0.01,0.1172 h 0.064 c 0,0.039 0,0.076 -0.01,0.1152 h 0.066 c 0,0.039 0,0.076 -0.01,0.1152 h 0.066 c 0,0.039 0,0.077 -0.01,0.1153 h 0.064 c 0,0.039 0,0.078 -0.01,0.1172 h 0.066 c 0,0.039 0,0.076 -0.01,0.1152 h 0.065 c 0,0.039 0,0.076 -0.01,0.1152 v 0 h 0.064 c 0,0.04 0,0.078 -0.01,0.1172 h 0.066 c 0,0.039 0,0.077 -0.01,0.1152 h 0.064 c 0,0.039 0,0.076 -0.01,0.1153 v 0 h 0.064 c 0,0.039 0,0.076 -0.01,0.1152 h 0.066 c 0,0.04 0,0.078 -0.01,0.1172 h 0.064 c 0,0.039 0,0.076 -0.01,0.1152 v 0 h 0.064 c 0,0.039 0,0.076 -0.01,0.1153 h 0.066 c 0,0.039 0,0.076 -0.01,0.1152 h 0.064 c 0,0.039 0,0.078 -0.01,0.1172 v 0 h 0.065 c 0,0.039 0,0.076 -0.01,0.1152 h 0.066 c 0,0.039 0,0.076 -0.01,0.1153 h 0.064 c 0,0.039 0,0.078 -0.01,0.1171 v 0 h 0.064 c 0,0.039 0,0.077 -0.01,0.1153 h 0.066 c 0,0.039 0,0.076 -0.01,0.1152 h 0.064 c 0,0.039 0,0.076 -0.01,0.1153 v 0 h 0.064 c 0,0.039 0,0.078 -0.01,0.1171 h 0.066 c 0,0.039 0,0.077 -0.01,0.1153 h 0.064 c 0,0.039 0,0.076 -0.01,0.1152 h 0.066 c 0,0.039 0,0.076 -0.01,0.1152 h 0.066 c 0,0.04 0,0.078 -0.01,0.1172 h 0.064 c 0,0.039 0,0.077 -0.01,0.1153 h 0.066 c 0,0.039 0,0.076 -0.01,0.1152 h 0.066 c 0,0.039 0,0.078 -0.01,0.1172 h 0.065 c 0,0.039 0,0.076 -0.01,0.1152 h 0.066 c 0,0.039 0,0.076 -0.01,0.1153 h 0.066 c 0,0.039 0,0.076 -0.01,0.1152 h 0.064 c 0,0.039 0,0.078 -0.01,0.1172 h 0.066 c 0,0.039 0,0.076 -0.01,0.1152 h 0.066 c 0,0.039 0,0.076 -0.01,0.1152 h 0.064 c 0,0.039 0,0.076 -0.01,0.1153 h 0.066 c 0,0.039 0,0.078 -0.01,0.1172 h 0.066 c 0,0.039 0,0.076 -0.01,0.1152 h 0.064 c 0,0.039 0,0.076 -0.01,0.1152 h 0.066 c 0,0.039 0,0.078 -0.01,0.1172 h 0.066 c 0,0.039 0,0.077 -0.01,0.1153 h 0.064 c 0,0.039 0,0.076 -0.01,0.1152 h 0.066 c 0,0.039 0,0.076 -0.01,0.1152 h 0.066 c 0,0.039 0,0.078 -0.01,0.1172 h 0.064 c 0,0.039 0,0.076 -0.01,0.1152 h 0.066 c 0,0.039 0,0.077 -0.01,0.1153 h 0.066 c 0,0.039 0,0.076 -0.01,0.1152 h 0.064 c 0,0.039 0,0.078 -0.01,0.1172 h 0.066 c 0,0.039 0,0.076 -0.01,0.1152 h 0.064 c 0,0.039 0,0.077 -0.01,0.1153 v 0 h 0.064 c 0,0.039 0,0.078 -0.01,0.1172 h 0.066 c 0,0.039 0,0.076 -0.01,0.1152 h 0.064 c 0,0.039 0,0.076 -0.01,0.1152 v 0 h 0.065 c 0,0.039 0,0.077 -0.01,0.1153 h 0.066 c 0,0.039 0,0.078 -0.01,0.1172 h 0.064 c 0,0.039 0,0.076 -0.01,0.1152 v 0 h 0.064 c 0,0.039 0,0.076 -0.01,0.1152 h 0.066 c 0,0.039 0,0.076 -0.01,0.1153 h 0.064 c 0,0.039 0,0.078 -0.01,0.1171 v 0 h 0.064 c 0,0.039 0,0.077 -0.01,0.1153 h 0.066 c 0,0.039 0,0.076 -0.01,0.1152 h 0.064 c 0,0.039 0,0.078 -0.01,0.1172 v 0 h 0.064 c 0,0.039 0,0.076 -0.01,0.1152 h 0.066 c 0,0.039 0,0.077 -0.01,0.1153 h 0.064 c 0,0.039 0,0.076 -0.01,0.1152 h 0.066 c 0,0.039 0,0.078 -0.01,0.1172 h 0.066 c 0,0.039 0,0.076 -0.01,0.1152 h 0.065 c 0,0.039 0,0.077 -0.01,0.1153 h 0.066 c 0,0.039 0,0.076 -0.01,0.1152 h 0.066 c 0,0.039 0,0.078 -0.01,0.1172 h 0.064 c 0,0.039 0,0.076 -0.01,0.1152 h 0.066 c 0,0.039 0,0.076 -0.01,0.1152 h 0.066 c 0,0.039 0,0.078 -0.01,0.1172 h 0.064 c 0,0.039 0,0.076 -0.01,0.1153 h 0.066 c 0,0.039 0,0.076 -0.01,0.1152 h 0.066 c 0,0.039 0,0.076 -0.01,0.1152 h 0.064 c 0,0.039 0,0.078 -0.01,0.1172 h 0.066 c 0,0.039 0,0.076 -0.01,0.1153 h 0.066 c 0,0.039 0,0.076 -0.01,0.1152 h 0.064 c 0,0.039 0,0.076 -0.01,0.1152 h 0.066 c 0,0.039 0,0.078 -0.01,0.1172 h 0.066 c 0,0.039 0,0.076 -0.01,0.1153 h 0.064 c 0,0.039 0,0.076 -0.01,0.1152 h 0.066 c 0,0.039 0,0.078 -0.01,0.1172 h 0.066 c 0,0.039 0,0.076 -0.01,0.1152 h 0.064 c 0,0.039 0,0.076 -0.01,0.1152 h 0.067 c 0,0.039 0,0.077 -0.01,0.1153 h 0.066 c 0,0.039 0,0.078 -0.01,0.1172 h 0.064 c 0,0.039 0,0.076 -0.01,0.1152 h 0.066 c 0,0.039 0,0.076 -0.01,0.1152 h 0.064 c 0,0.039 0,0.077 -0.01,0.1153 v 0 h 0.065 c 0,0.039 0,0.078 -0.01,0.1172 h 0.066 c 0,0.039 0,0.076 -0.01,0.1152 h 0.064 c 0,0.039 0,0.076 -0.01,0.1152 v 0 h 0.064 c 0,0.04 0,0.078 -0.01,0.1172 h 0.066 c 0,0.039 0,0.077 -0.01,0.1152 h 0.064 c 0,0.039 0,0.076 -0.01,0.1153 v 0 h 0.064 c 0,0.039 0,0.076 -0.01,0.1152 h 0.066 c 0,0.04 0,0.078 -0.01,0.1172 h 0.064 c 0,0.039 0,0.076 -0.01,0.1152 v 0 h 0.064 c 0,0.039 0,0.076 -0.01,0.1153 h 0.066 c 0,0.039 0,0.076 -0.01,0.1152 h 0.064 c 0,0.039 0,0.078 -0.01,0.1172 v 0 h 0.064 c 0,0.039 0,0.076 -0.01,0.1152 h 0.066 c 0,0.039 0,0.076 -0.01,0.1153 h 0.064 c 0,0.039 0,0.078 -0.01,0.1171 h 0.066 c 0,0.039 0,0.077 -0.01,0.1153 h 0.066 c 0,0.039 0,0.076 -0.01,0.1152 h 0.064 c 0,0.039 0,0.076 -0.01,0.1153 h 0.066 c 0,0.039 0,0.078 -0.01,0.1171 h 0.067 c 0,0.039 0,0.077 -0.01,0.1153 h 0.064 c 0,0.039 0,0.076 -0.01,0.1152 h 0.066 c 0,0.039 0,0.076 -0.01,0.1152 h 0.066 c 0,0.04 0,0.078 -0.01,0.1172 h 0.064 c 0,0.039 0,0.077 -0.01,0.1153 h 0.066 c 0,0.039 0,0.076 -0.01,0.1152 h 0.066 c 0,0.039 0,0.078 -0.01,0.1172 h 0.064 c 0,0.039 0,0.076 -0.01,0.1152 h 0.066 c 0,0.039 0,0.076 -0.01,0.1153 h 0.066 c 0,0.039 0,0.076 -0.01,0.1152 h 0.064 c 0,0.039 0,0.078 -0.01,0.1172 h 0.066 c 0,0.039 0,0.076 -0.01,0.1152 h 0.066 c 0,0.039 0,0.076 -0.01,0.1152 h 0.064 c 0,0.039 0,0.076 -0.01,0.1153 h 0.066 c 0,0.039 0,0.078 -0.01,0.1172 h 0.066 c 0,0.039 0,0.076 -0.01,0.1152 h 0.064 c 0,0.039 0,0.076 -0.01,0.1152 h 0.066 c 0,0.039 0,0.078 -0.01,0.1172 h 0.066 c 0,0.039 0,0.077 -0.01,0.1153 h 0.064 c 0,0.039 0,0.076 -0.01,0.1152 h 0.066 c 0,0.039 0,0.076 -0.01,0.1152 h 0.064 c 0,0.039 0,0.078 -0.01,0.1172 v 0 h 0.064 c 0,0.039 0,0.076 -0.01,0.1152 h 0.066 c 0,0.039 0,0.077 -0.01,0.1153 h 0.065 c 0,0.039 0,0.078 -0.01,0.1172 v 0 h 0.064 c 0,0.039 0,0.076 -0.01,0.1152 h 0.066 c 0,0.039 0,0.076 -0.01,0.1152 h 0.064 c 0,0.039 0,0.077 -0.01,0.1153 v 0 h 0.064 c 0,0.039 0,0.078 -0.01,0.1172 h 0.066 c 0,0.039 0,0.076 -0.01,0.1152 h 0.064 c 0,0.039 0,0.076 -0.01,0.1152 v 0 h 0.064 c 0,0.039 0,0.077 -0.01,0.1153 h 0.066 c 0,0.039 0,0.078 -0.01,0.1172 h 0.064 c 0,0.039 0,0.076 -0.01,0.1152 h 0.066 c 0,0.039 0,0.076 -0.01,0.1152 h 0.066 c 0,0.039 0,0.078 -0.01,0.1172 h 0.064 c 0,0.039 0,0.076 -0.01,0.1152 h 0.066 c 0,0.039 0,0.077 -0.01,0.1153 h 0.066 c 0,0.039 0,0.076 -0.01,0.1152 h 0.064 c 0,0.039 0,0.078 -0.01,0.1172 h 0.066 c 0,0.039 0,0.076 -0.01,0.1152 h 0.066 c 0,0.039 0,0.077 -0.01,0.1153 h 0.064 c 0,0.039 0,0.076 -0.01,0.1152 h 0.066 c 0,0.039 0,0.078 -0.01,0.1172 h 0.066 c 0,0.039 0,0.076 -0.01,0.1152 h 0.064 c 0,0.039 0,0.077 -0.01,0.1153 h 0.066 c 0,0.039 0,0.078 -0.01,0.1171 h 0.066 c 0,0.039 0,0.076 -0.01,0.1153 h 0.065 c 0,0.039 0,0.076 -0.01,0.1152 h 0.066 c 0,0.039 0,0.076 -0.01,0.1152 h 0.066 c 0,0.039 0,0.078 -0.01,0.1172 h 0.064 c 0,0.039 0,0.076 -0.01,0.1153 h 0.066 c 0,0.039 0,0.076 -0.01,0.1152 h 0.066 c 0,0.039 0,0.076 -0.01,0.1152 h 0.064 c 0,0.039 0,0.078 -0.01,0.1172 h 0.066 c 0,0.039 0,0.076 -0.01,0.1153 h 0.066 c 0,0.039 0,0.076 -0.01,0.1152 h 0.064 c 0,0.039 0,0.078 -0.01,0.1172 h 0.066 c 0,0.039 0,0.076 -0.01,0.1152 h 0.066 c 0,0.039 0,0.076 -0.01,0.1153 h 0.064 c 0,0.039 0,0.076 -0.01,0.1152 h 0.066 c 0,0.039 0,0.078 -0.01,0.1172 h 0.065 c 0,0.039 0,0.076 -0.01,0.1152 v 0 h 0.064 c 0,0.039 0,0.076 -0.01,0.1152 h 0.066 c 0,0.039 0,0.077 -0.01,0.1153 h 0.064 c 0,0.039 0,0.078 -0.01,0.1172 v 0 h 0.064 c 0,0.039 0,0.076 -0.01,0.1152 h 0.066 c 0,0.039 0,0.076 -0.01,0.1152 h 0.064 c 0,0.04 0,0.078 -0.01,0.1172 v 0 h 0.064 c 0,0.039 0,0.077 -0.01,0.1153 h 0.066 c 0,0.039 0,0.076 -0.01,0.1152 h 0.064 c 0,0.039 0,0.076 -0.01,0.1152 v 0 h 0.065 c 0,0.04 0,0.078 -0.01,0.1172 h 0.066 c 0,0.039 0,0.076 -0.01,0.1152 h 0.064 c 0,0.039 0,0.076 -0.01,0.1153 h 0.066 c 0,0.039 0,0.076 -0.01,0.1152 h 0.066 c 0,0.04 0,0.078 -0.01,0.1172 h 0.064 c 0,0.039 0,0.076 -0.01,0.1152 h 0.066 c 0,0.039 0,0.076 -0.01,0.1153 h 0.066 c 0,0.039 0,0.078 -0.01,0.1172 h 0.064 c 0,0.039 0,0.076 -0.01,0.1152 h 0.066 c 0,0.039 0,0.076 -0.01,0.1152 h 0.066 c 0,0.039 0,0.076 -0.01,0.1153 h 0.064 c 0,0.039 0,0.078 -0.01,0.1171 h 0.066 c 0,0.039 0,0.077 -0.01,0.1153 h 0.066 c 0,0.039 0,0.076 -0.01,0.1152 h 0.065 c 0,0.039 0,0.076 -0.01,0.1153 h 0.066 c 0,0.039 0,0.078 -0.01,0.1171 h 0.066 c 0,0.039 0,0.077 -0.01,0.1153 h 0.064 c 0,0.039 0,0.076 -0.01,0.1152 h 0.066 c 0,0.039 0,0.078 -0.01,0.1172 h 0.066 c 0,0.039 0,0.076 -0.01,0.1152 h 0.064 c 0,0.039 0,0.077 -0.01,0.1153 h 0.066 c 0,0.039 0,0.076 -0.01,0.1152 h 0.066 c 0,0.039 0,0.078 -0.01,0.1172 h 0.064 c 0,0.039 0,0.076 -0.01,0.1152 h 0.066 c 0,0.039 0,0.076 -0.01,0.1153 h 0.066 c 0,0.039 0,0.076 -0.01,0.1152 h 0.064 c 0,0.039 0,0.078 -0.01,0.1172 h 0.066 c 0,0.039 0,0.076 -0.01,0.1152 h 0.066 c 0,0.039 0,0.076 -0.01,0.1152 h 0.064 c 0,0.039 0,0.078 -0.01,0.1172 h 0.066 c 0,0.039 0,0.077 -0.01,0.1153 h 0.066 c 0,0.039 0,0.076 -0.01,0.1152 h 0.064 c 0,0.039 0,0.076 -0.01,0.1152 h 0.066 c 0,0.039 0,0.078 -0.01,0.1172 h 0.064 c 0,0.039 0,0.077 -0.01,0.1153 v 0 h 0.064 c 0,0.039 0,0.076 -0.01,0.1152 h 0.066 c 0,0.039 0,0.076 -0.01,0.1152 h 0.064 c 0,0.039 0,0.078 -0.01,0.1172 v 0 h 0.065 c 0,0.039 0,0.076 -0.01,0.1152 h 0.066 c 0,0.039 0,0.077 -0.01,0.1153 h 0.064 c 0,0.039 0,0.078 -0.01,0.1172 v 0 h 0.064 c 0,0.039 0,0.076 -0.01,0.1152 h 0.066 c 0,0.039 0,0.076 -0.01,0.1152 h 0.064 c 0,0.039 0,0.077 -0.01,0.1153 h 0.066 c 0,0.039 0,0.078 -0.01,0.1172 h 0.066 c 0,0.039 0,0.076 -0.01,0.1152 h 0.064 c 0,0.039 0,0.076 -0.01,0.1152 h 0.067 c 0,0.039 0,0.077 -0.01,0.1153 h 0.066 c 0,0.039 0,0.078 -0.01,0.1172 h 0.064 c 0,0.039 0,0.076 -0.01,0.1152 h 0.066 c 0,0.039 0,0.076 -0.01,0.1152 h 0.066 c 0,0.039 0,0.078 -0.01,0.1172 h 0.065 c 0,0.039 0,0.076 -0.01,0.1152 h 0.066 c 0,0.039 0,0.077 -0.01,0.1153 h 0.066 c 0,0.039 0,0.076 -0.01,0.1152 h 0.064 c 0,0.039 0,0.078 -0.01,0.1172 h 0.066 c 0,0.039 0,0.076 -0.01,0.1152 h 0.066 c 0,0.039 0,0.077 -0.01,0.1153 h 0.064 c 0,0.039 0,0.076 -0.01,0.1152 h 0.066 c 0,0.039 0,0.078 -0.01,0.1172 h 0.066 c 0,0.039 0,0.076 -0.01,0.1152 h 0.064 c 0,0.039 0,0.077 -0.01,0.1153 h 0.066 c 0,0.039 0,0.078 -0.01,0.1171 h 0.066 c 0,0.039 0,0.076 -0.01,0.1153 h 0.064 c 0,0.039 0,0.076 -0.01,0.1152 h 0.066 c 0,0.039 0,0.076 -0.01,0.1152 h 0.066 c 0,0.039 0,0.078 -0.01,0.1172 h 0.064 c 0,0.039 0,0.076 -0.01,0.1153 h 0.066 c 0,0.039 0,0.076 -0.01,0.1152 h 0.066 c 0,0.039 0,0.076 -0.01,0.1152 h 0.064 c 0,0.039 0,0.078 -0.01,0.1172 h 0.067 c 0,0.039 0,0.076 -0.01,0.1153 h 0.066 c 0,0.039 0,0.076 -0.01,0.1152 h 0.064 c 0,0.039 0,0.078 -0.01,0.1172 h 0.066 c 0,0.039 0,0.076 -0.01,0.1152 h 0.064 c 0,0.039 0,0.076 -0.01,0.1153 v 0 h 0.065 c 0,0.039 0,0.076 -0.01,0.1152 h 0.066 c 0,0.039 0,0.078 -0.01,0.1172 h 0.064 c 0,0.039 0,0.076 -0.01,0.1152 v 0 h 0.064 c 0,0.039 0,0.076 -0.01,0.1152 h 0.066 c 0,0.04 0,0.078 -0.01,0.1172 h 0.064 c 0,0.039 0,0.077 -0.01,0.1153 h 0.066 c 0,0.039 0,0.076 -0.01,0.1152 h 0.066 c 0,0.039 0,0.076 -0.01,0.1152 h 0.064 c 0,0.04 0,0.078 -0.01,0.1172 h 0.066 c 0,0.039 0,0.076 -0.01,0.1153 h 0.066 c 0,0.039 0,0.076 -0.01,0.1152 h 0.064 c 0,0.039 0,0.076 -0.01,0.1152 h 0.066 c 0,0.04 0,0.078 -0.01,0.1172 h 0.066 c 0,0.039 0,0.076 -0.01,0.1152 h 0.064 c 0,0.039 0,0.076 -0.01,0.1153 h 0.066 c 0,0.039 0,0.078 -0.01,0.1172 h 0.066 c 0,0.039 0,0.076 -0.01,0.1152 h 0.064 c 0,0.039 0,0.076 -0.01,0.1152 h 0.066 c 0,0.039 0,0.076 -0.01,0.1153 h 0.067 c 0,0.039 0,0.078 -0.01,0.1172 h 0.064 c 0,0.039 0,0.076 -0.01,0.1152 h 0.066 c 0,0.039 0,0.076 -0.01,0.1152 h 0.066 c 0,0.039 0,0.076 -0.01,0.1153 h 0.064 c 0,0.039 0,0.078 -0.01,0.1171 h 0.066 c 0,0.039 0,0.077 -0.01,0.1153 h 0.066 c 0,0.039 0,0.076 -0.01,0.1152 h 0.064 c 0,0.039 0,0.078 -0.01,0.1172 h 0.066 c 0,0.039 0,0.076 -0.01,0.1152 h 0.066 c 0,0.039 0,0.077 -0.01,0.1153 h 0.064 c 0,0.039 0,0.076 -0.01,0.1152 h 0.066 c 0,0.039 0,0.078 -0.01,0.1172 h 0.066 c 0,0.039 0,0.076 -0.01,0.1152 h 0.064 c 0,0.039 0,0.077 -0.01,0.1153 h 0.066 c 0,0.039 0,0.076 -0.01,0.1152 h 0.066 c 0,0.039 0,0.078 -0.01,0.1172 h 0.064 c 0,0.039 0,0.076 -0.01,0.1152 h 0.066 c 0,0.039 0,0.076 -0.01,0.1153 h 0.066 c 0,0.039 0,0.078 -0.01,0.1171 h 0.064 c 0,0.039 0,0.077 -0.01,0.1153 h 0.066 c 0,0.039 0,0.076 -0.01,0.1152 h 0.064 c 0,0.039 0,0.076 -0.01,0.1152 v 0 h 0.064 c 0,0.039 0,0.078 -0.01,0.1172 h 0.066 c 0,0.039 0,0.077 -0.01,0.1153 h 0.065 c 0,0.039 0,0.076 -0.01,0.1152 v 0 h 0.064 c 0,0.039 0,0.076 -0.01,0.1152 h 0.066 c 0,0.039 0,0.078 -0.01,0.1172 h 0.064 c 0,0.039 0,0.077 -0.01,0.1153 h 0.066 c 0,0.039 0,0.076 -0.01,0.1152 h 0.066 c 0,0.039 0,0.078 -0.01,0.1172 h 0.064 c 0,0.039 0,0.076 -0.01,0.1152 h 0.066 c 0,0.039 0,0.076 -0.01,0.1152 h 0.066 c 0,0.039 0,0.077 -0.01,0.1153 h 0.064 c 0,0.039 0,0.078 -0.01,0.1172 h 0.066 c 0,0.039 0,0.076 -0.01,0.1152 h 0.066 c 0,0.039 0,0.076 -0.01,0.1152 h 0.064 c 0,0.039 0,0.077 -0.01,0.1153 h 0.066 c 0,0.039 0,0.078 -0.01,0.1172 h 0.066 c 0,0.039 0,0.076 -0.01,0.1152 h 0.064 c 0,0.039 0,0.076 -0.01,0.1152 h 0.066 c 0,0.039 0,0.078 -0.01,0.1172 h 0.066 c 0,0.039 0,0.076 -0.01,0.1153 h 0.064 c 0,0.039 0,0.076 -0.01,0.1152 h 0.066 c 0,0.039 0,0.076 -0.01,0.1152 h 0.066 c 0,0.039 0,0.078 -0.01,0.1172 h 0.064 c 0,0.039 0,0.076 -0.01,0.1152 h 0.066 c 0,0.039 0,0.077 -0.01,0.1153 h 0.066 c 0,0.039 0,0.076 -0.01,0.1152 h 0.065 c 0,0.039 0,0.078 -0.01,0.1172 h 0.066 c 0,0.039 0,0.076 -0.01,0.1152 h 0.066 c 0,0.039 0,0.077 -0.01,0.1153 h 0.064 c 0,0.039 0,0.078 -0.01,0.1172 h 0.066 c 0,0.039 0,0.076 -0.01,0.1152 h 0.066 c 0,0.039 0,0.076 -0.01,0.1152 h 0.064 c 0,0.039 0,0.077 -0.01,0.1153 h 0.066 c 0,0.039 0,0.078 -0.01,0.1171 h 0.066 c 0,0.039 0,0.076 -0.01,0.1153 h 0.064 c 0,0.039 0,0.076 -0.01,0.1152 h 0.066 c 0,0.039 0,0.076 -0.01,0.1152 h 0.066 c 0,0.039 0,0.078 -0.01,0.1172 h 0.064 c 0,0.039 0,0.076 -0.01,0.1153 h 0.066 c 0,0.039 0,0.076 -0.01,0.1152 h 0.065 c 0,0.039 0,0.078 -0.01,0.1172 v 0 h 0.064 c 0,0.039 0,0.076 -0.01,0.1152 h 0.066 c 0,0.039 0,0.076 -0.01,0.1153 h 0.064 c 0,0.039 0,0.076 -0.01,0.1152 v 0 h 0.064 c 0,0.039 0,0.078 -0.01,0.1172 h 0.066 c 0,0.039 0,0.076 -0.01,0.1152 h 0.064 c 0,0.039 0,0.076 -0.01,0.1153 h 0.066 c 0,0.039 0,0.076 -0.01,0.1152 h 0.066 c 0,0.039 0,0.078 -0.01,0.1172 h 0.064 c 0,0.039 0,0.076 -0.01,0.1152 h 0.066 c 0,0.039 0,0.076 -0.01,0.1152 h 0.066 c 0,0.04 0,0.078 -0.01,0.1172 h 0.064 c 0,0.039 0,0.077 -0.01,0.1153 h 0.066 c 0,0.039 0,0.076 -0.01,0.1152 h 0.066 c 0,0.039 0,0.076 -0.01,0.1152 h 0.064 c 0,0.04 0,0.078 -0.01,0.1172 h 0.066 c 0,0.039 0,0.076 -0.01,0.1153 h 0.066 c 0,0.039 0,0.076 -0.01,0.1152 h 0.064 c 0,0.039 0,0.076 -0.01,0.1152 h 0.066 c 0,0.04 0,0.078 -0.01,0.1172 h 0.066 c 0,0.039 0,0.076 -0.01,0.1152 h 0.064 c 0,0.039 0,0.076 -0.01,0.1153 h 0.066 c 0,0.039 0,0.078 -0.01,0.1172 h 0.066 c 0,0.039 0,0.076 -0.01,0.1152 h 0.065 c 0,0.039 0,0.076 -0.01,0.1152 h 0.066 c 0,0.039 0,0.076 -0.01,0.1153 h 0.066 c 0,0.039 0,0.078 -0.01,0.1172 h 0.064 c 0,0.039 0,0.076 -0.01,0.1152 h 0.066 c 0,0.039 0,0.076 -0.01,0.1152 h 0.066 c 0,0.039 0,0.076 -0.01,0.1153 h 0.064 c 0,0.039 0,0.078 -0.01,0.1171 h 0.066 c 0,0.039 0,0.077 -0.01,0.1153 h 0.066 c 0,0.039 0,0.076 -0.01,0.1152 h 0.064 c 0,0.039 0,0.078 -0.01,0.1172 h 0.066 c 0,0.039 0,0.076 -0.01,0.1152 h 0.066 c 0,0.039 0,0.077 -0.01,0.1153 h 0.064 c 0,0.039 0,0.076 -0.01,0.1152 h 0.066 c 0,0.039 0,0.078 -0.01,0.1172 h 0.066 c 0,0.039 0,0.076 -0.01,0.1152 h 0.064 c 0,0.039 0,0.077 -0.01,0.1153 h 0.066 c 0,0.039 0,0.076 -0.01,0.1152 h 0.066 c 0,0.039 0,0.078 -0.01,0.1172 h 0.064 c 0,0.039 0,0.076 -0.01,0.1152 h 0.066 c 0,0.039 0,0.076 -0.01,0.1153 h 0.064 c 0,0.039 0,0.078 -0.01,0.1171 h 0.066 c 0,0.039 0,0.077 -0.01,0.1153 h 0.066 c 0,0.039 0,0.076 -0.01,0.1152 h 0.064 c 0,0.039 0,0.076 -0.01,0.1152 h 0.066 c 0,0.039 0,0.078 -0.01,0.1172 h 0.066 c 0,0.039 0,0.077 -0.01,0.1153 h 0.064 c 0,0.039 0,0.076 -0.01,0.1152 h 0.066 c 0,0.039 0,0.078 -0.01,0.1172 h 0.066 c 0,0.039 0,0.076 -0.01,0.1152 h 0.064 c 0,0.039 0,0.077 -0.01,0.1153 h 0.066 c 0,0.039 0,0.076 -0.01,0.1152 h 0.066 c 0,0.039 0,0.078 -0.01,0.1172 h 0.064 c 0,0.039 0,0.076 -0.01,0.1152 h 0.067 c 0,0.039 0,0.076 -0.01,0.1152 h 0.066 c 0,0.039 0,0.077 -0.01,0.1153 h 0.064 c 0,0.039 0,0.078 -0.01,0.1172 h 0.066 c 0,0.039 0,0.076 -0.01,0.1152 h 0.066 c 0,0.039 0,0.076 -0.01,0.1152 h 0.065 c 0,0.039 0,0.078 -0.01,0.1172 h 0.066 c 0,0.039 0,0.076 -0.01,0.1153 h 0.066 c 0,0.039 0,0.076 -0.01,0.1152 h 0.064 c 0,0.039 0,0.076 -0.01,0.1152 h 0.066 c 0,0.039 0,0.078 -0.01,0.1172 h 0.066 c 0,0.039 0,0.076 -0.01,0.1153 h 0.064 c 0,0.039 0,0.076 -0.01,0.1152 h 0.066 c 0,0.039 0,0.076 -0.01,0.1152 h 0.066 c 0,0.039 0,0.078 -0.01,0.1172 h 0.064 c 0,0.039 0,0.076 -0.01,0.1152 h 0.066 c 0,0.039 0,0.077 -0.01,0.1153 h 0.066 c 0,0.039 0,0.078 -0.01,0.1172 h 0.064 c 0,0.039 0,0.076 -0.01,0.1152 h 0.066 c 0,0.039 0,0.076 -0.01,0.1152 h 0.066 c 0,0.039 0,0.077 -0.01,0.1153 h 0.064 c 0,0.039 0,0.078 -0.01,0.1172 h 0.066 c 0,0.039 0,0.076 -0.01,0.1152 h 0.066 c 0,0.039 0,0.076 -0.01,0.1152 h 0.064 c 0,0.039 0,0.077 -0.01,0.1153 h 0.067 c 0,0.039 0,0.078 -0.01,0.1171 h 0.066 c 0,0.039 0,0.076 -0.01,0.1153 h 0.064 c 0,0.039 0,0.076 -0.01,0.1152 h 0.066 c 0,0.04 0,0.078 -0.01,0.1172 h 0.064 c 0,0.039 0,0.076 -0.01,0.1152 h 0.066 c 0,0.039 0,0.076 -0.01,0.1153 h 0.066 c 0,0.039 0,0.076 -0.01,0.1152 h 0.064 c 0,0.039 0,0.078 -0.01,0.1172 h 0.066 c 0,0.039 0,0.076 -0.01,0.1152 h 0.066 c 0,0.039 0,0.076 -0.01,0.1153 h 0.064 c 0,0.039 0,0.076 -0.01,0.1152 h 0.066 c 0,0.039 0,0.078 -0.01,0.1172 h 0.066 c 0,0.039 0,0.076 -0.01,0.1152 h 0.064 c 0,0.039 0,0.076 -0.01,0.1153 h 0.066 c 0,0.039 0,0.078 -0.01,0.1171 h 0.066 c 0,0.039 0,0.077 -0.01,0.1153 h 0.064 c 0,0.039 0,0.076 -0.01,0.1152 h 0.066 c 0,0.039 0,0.076 -0.01,0.1152 h 0.066 c 0,0.04 0,0.078 -0.01,0.1172 h 0.064 c 0,0.039 0,0.077 -0.01,0.1153 h 0.066 c 0,0.039 0,0.076 -0.01,0.1152 h 0.066 c 0,0.039 0,0.076 -0.01,0.1152 h 0.064 c 0,0.04 0,0.078 -0.01,0.1172 h 428.18753 c 0.2466,-19.4983 -0.043,-39.3837 -0.9082,-57.8847 z"
                    id="path8256"
                    inkscape:connector-curvature="0"/>
                <path
                    style="fill:#ffc107;fill-opacity:1;stroke-width:1.04220557"
                    clip-path="url(#clipPath970)"
                    d="M 472.50635,922.16412 C 455.00635,952.47501 291,1047.1641 256,1047.1641 c -35,0 -199.006352,-94.68909 -216.506351,-124.99998 -17.5,-30.31089 -17.5,-219.68911 1e-6,-250 17.5,-30.31089 181.50635,-125 216.50635,-125 35,0 199.00635,94.68912 216.50635,125 17.5,30.31089 17.5,219.68912 0,250 z"
                    id="path8258"
                    mask="none"
                    transform="translate(871.30567,742.1074)"
                    inkscape:flatsided="true"
                    inkscape:randomized="0"
                    inkscape:rounded="0.14"
                    sodipodi:arg1="0.52359878"
                    sodipodi:arg2="1.0471976"
                    sodipodi:cx="256"
                    sodipodi:cy="797.16412"
                    sodipodi:r1="250"
                    sodipodi:r2="216.50633"
                    sodipodi:sides="6"
                    sodipodi:type="star"/>
            </g>
        </clipPath>
        <clipPath
            clipPathUnits="userSpaceOnUse"
            id="clipPath1069">
            <g
                clip-path="none"
                id="g1075"
                transform="matrix(1.0344351,0,0,1.0344351,-12.272839,-28.02686)">
                <g
                    id="g1073"
                    inkscape:label="Clip">
                    <path
                        style="fill:url(#linearGradient1077);fill-opacity:1;stroke-width:1.04220557"
                        d="m 472.50638,921.36218 c -17.5,30.31089 -181.50635,125.00002 -216.50635,125.00002 -35,0 -199.006351,-94.68913 -216.506351,-125.00002 -17.5,-30.31089 -17.499999,-219.68911 10e-7,-250 17.5,-30.31089 181.50635,-125 216.50635,-125 35,0 199.00635,94.68911 216.50635,125 17.5,30.31089 17.5,219.68911 0,250 z"
                        id="path1071"
                        inkscape:flatsided="true"
                        inkscape:randomized="0"
                        inkscape:rounded="0.14"
                        sodipodi:arg1="0.52359878"
                        sodipodi:arg2="1.0471976"
                        sodipodi:cx="256.00003"
                        sodipodi:cy="796.36218"
                        sodipodi:r1="250"
                        sodipodi:r2="216.50633"
                        sodipodi:sides="6"
                        sodipodi:type="star"/>
                </g>
            </g>
        </clipPath>
        <linearGradient
            gradientUnits="userSpaceOnUse"
            id="linearGradient1077"
            x1="125.51751"
            x2="383.67062"
            y1="614.80396"
            y2="705.99023"
            inkscape:collect="always"
            xlink:href="#linearGradient8379"/>
        <linearGradient
            gradientUnits="userSpaceOnUse"
            id="linearGradient1100"
            x1="125.51751"
            x2="383.67062"
            y1="614.80396"
            y2="705.99023"
            inkscape:collect="always"
            xlink:href="#linearGradient8379"/>
    </defs>
    <metadata
        id="metadata7">
        <rdf:RDF>
            <cc:Work
                rdf:about="">
                <dc:format>image/svg+xml</dc:format>
                <dc:type
                    rdf:resource="http://purl.org/dc/dcmitype/StillImage"/>
                <dc:title/>
            </cc:Work>
        </rdf:RDF>
    </metadata>
    <g
        id="layer1"
        transform="translate(0,-540.36216)"
        inkscape:groupmode="layer"
        inkscape:label="Layer 1">
        <use
            height="100%"
            id="use1036"
            width="100%"
            x="0"
            y="0"
            xlink:href="#g1030"/>
        <path
            style="fill:#ffe107;fill-opacity:1;stroke-width:1.04220557"
            d="m 472.50638,921.36218 c -17.5,30.31089 -181.50635,125.00002 -216.50635,125.00002 -35,0 -199.006351,-94.68913 -216.506351,-125.00002 -17.5,-30.31089 -17.499999,-219.68911 10e-7,-250 17.5,-30.31089 181.50635,-125 216.50635,-125 35,0 199.00635,94.68911 216.50635,125 17.5,30.31089 17.5,219.68911 0,250 z"
            id="path929"
            inkscape:flatsided="true"
            inkscape:randomized="0"
            inkscape:rounded="0.14"
            sodipodi:arg1="0.52359878"
            sodipodi:arg2="1.0471976"
            sodipodi:cx="256.00003"
            sodipodi:cy="796.36218"
            sodipodi:r1="250"
            sodipodi:r2="216.50633"
            sodipodi:sides="6"
            sodipodi:type="star"/>
        <path
            style="fill:#ffa000;fill-opacity:1;stroke-width:1.04220557"
            clip-path="url(#clipPath4258)"
            d="M 472.50635,922.16412 C 455.00635,952.47501 291,1047.1641 256,1047.1641 c -35,0 -199.006352,-94.68909 -216.506351,-124.99998 -17.5,-30.31089 -17.5,-219.68911 1e-6,-250 17.5,-30.31089 181.50635,-125 216.50635,-125 35,0 199.00635,94.68912 216.50635,125 17.5,30.31089 17.5,219.68912 0,250 z"
            id="path931"
            mask="none"
            transform="translate(-1.5e-5,-0.80199)"
            inkscape:flatsided="true"
            inkscape:randomized="0"
            inkscape:rounded="0.14"
            sodipodi:arg1="0.52359878"
            sodipodi:arg2="1.0471976"
            sodipodi:cx="256"
            sodipodi:cy="797.16412"
            sodipodi:r1="250"
            sodipodi:r2="216.50633"
            sodipodi:sides="6"
            sodipodi:type="star"/>
        <g
            id="g1030"
            inkscape:label="Clip">
            <path
                style="fill:url(#linearGradient1100);fill-opacity:1;stroke-width:1.04220557"
                d="m 472.50638,921.36218 c -17.5,30.31089 -181.50635,125.00002 -216.50635,125.00002 -35,0 -199.006351,-94.68913 -216.506351,-125.00002 -17.5,-30.31089 -17.499999,-219.68911 10e-7,-250 17.5,-30.31089 181.50635,-125 216.50635,-125 35,0 199.00635,94.68911 216.50635,125 17.5,30.31089 17.5,219.68911 0,250 z"
                id="path8365"
                inkscape:flatsided="true"
                inkscape:randomized="0"
                inkscape:rounded="0.14"
                sodipodi:arg1="0.52359878"
                sodipodi:arg2="1.0471976"
                sodipodi:cx="256.00003"
                sodipodi:cy="796.36218"
                sodipodi:r1="250"
                sodipodi:r2="216.50633"
                sodipodi:sides="6"
                sodipodi:type="star"/>
        </g>
        <g
            style="font-style:normal;font-weight:normal;font-size:52.1415863px;line-height:125%;font-family:sans-serif;letter-spacing:0px;word-spacing:0px;fill:#ffffff;fill-opacity:1;stroke:none;stroke-width:1px;stroke-linecap:butt;stroke-linejoin:miter;stroke-opacity:1"
            id="text4154-1"
            transform="translate(8.763916,-1.2840038)"/>
        <g
            style="font-style:normal;font-variant:normal;font-weight:normal;font-stretch:normal;font-size:193.20237732px;line-height:125%;font-family:sans-serif;-inkscape-font-specification:'sans-serif, Normal';text-align:start;letter-spacing:0px;word-spacing:0px;writing-mode:lr-tb;text-anchor:start;fill:#ffffff;fill-opacity:1;stroke:none;stroke-width:1px;stroke-linecap:butt;stroke-linejoin:miter;stroke-opacity:1"
            id="text4154-1-1"
            transform="translate(8.763916,-1.2840038)"/>
        <g
            clip-path="url(#clipPath1069)"
            id="g1009"
            transform="matrix(0.96671116,0,0,0.96671116,11.86429,27.093878)">
            <path
                style="font-style:normal;font-variant:normal;font-weight:500;font-stretch:normal;font-size:153.61869812px;line-height:125%;font-family:Roboto;-inkscape-font-specification:'Roboto, Medium';text-align:start;letter-spacing:0px;word-spacing:0px;writing-mode:lr-tb;text-anchor:start;fill:url(#linearGradient945);fill-opacity:1;stroke:none;stroke-width:1.05419028;stroke-linecap:butt;stroke-linejoin:miter;stroke-opacity:1"
                clip-path="none"
                d="m 207.7049,736.23234 c -10.79013,-10.72293 -22.80332,-24.99677 -33.54743,-34.11821 -8.57742,0.91363 -16.4572,-0.51119 -19.36592,2.44437 -0.41897,29.21093 0.8341,59.51103 -0.61976,88.04784 -29.3851,-30.25207 -9.81484,-10.81524 -40.39895,-41.31237 l -66.185441,29.41437 c -0.311068,8.06561 -0.04667,9.25968 -0.336638,14.62748 17.919495,17.39965 40.485717,40.96519 58.411809,58.36093 6.92992,7.26783 14.13153,14.35843 21.37413,21.42369 -0.0689,4.41597 -2.73825,9.44678 -3.0933,16.12799 383.84613,383.72687 22.30887,21.80267 308.9979,309.46487 84.63608,-19.4774 213.05333,-100.2587 310.27365,-141.5603 0,0 -189.07463,-188.67609 -278.14965,-278.33025 -11.39578,-4.03534 -21.32077,-7.60716 -35.29491,-14.97265 l -46.99264,-42.40713 c -15.82475,-1.66984 -21.47788,45.3027 -27.16792,34.76343 -12.91487,-12.26741 -39.63608,-38.75111 -52.55183,-51.01652 -26.93924,-2.83528 -88.20356,-13.01593 -95.3531,29.04246 z"
                id="path933"
                inkscape:connector-curvature="0"
                sodipodi:nodetypes="cccccccccccccccccc"/>
            <path
                style="font-style:normal;font-variant:normal;font-weight:500;font-stretch:normal;font-size:153.61869812px;line-height:125%;font-family:Roboto;-inkscape-font-specification:'Roboto, Medium';text-align:start;letter-spacing:0px;word-spacing:0px;writing-mode:lr-tb;text-anchor:start;fill:#ffffff;fill-opacity:1;stroke:none;stroke-width:1.05419028px;stroke-linecap:butt;stroke-linejoin:miter;stroke-opacity:1"
                clip-path="none"
                d="m 445.71104,788.16217 -48.86767,-17.94979 v -18.89861 l 68.31979,29.41544 v 15.26134 l -68.31979,29.41544 v -18.89872 z"
                id="path935"
                inkscape:connector-curvature="0"/>
            <path
                style="font-style:normal;font-variant:normal;font-weight:500;font-stretch:normal;font-size:153.61869812px;line-height:125%;font-family:Roboto;-inkscape-font-specification:'Roboto, Medium';text-align:start;letter-spacing:0px;word-spacing:0px;writing-mode:lr-tb;text-anchor:start;fill:#ffffff;fill-opacity:1;stroke:none;stroke-width:1.05419028px;stroke-linecap:butt;stroke-linejoin:miter;stroke-opacity:1"
                clip-path="none"
                d="m 337.77518,848.33739 h -15.10313 l 45.30939,-125.01583 h 15.10314 z"
                id="path937"
                inkscape:connector-curvature="0"/>
            <path
                style="font-style:normal;font-variant:normal;font-weight:500;font-stretch:normal;font-size:153.61869812px;line-height:125%;font-family:Roboto;-inkscape-font-specification:'Roboto, Medium';text-align:start;letter-spacing:0px;word-spacing:0px;writing-mode:lr-tb;text-anchor:start;fill:#ffffff;fill-opacity:1;stroke:none;stroke-width:1.05419028px;stroke-linecap:butt;stroke-linejoin:miter;stroke-opacity:1"
                clip-path="none"
                d="m 303.23392,707.01755 v 19.5915 q -11.43669,-5.46968 -21.5805,-8.15491 -10.1438,-2.68512 -19.59138,-2.68512 -16.40926,0 -25.35973,6.3648 -8.85091,6.36479 -8.85091,18.09971 0,9.84558 5.86746,14.91748 5.96701,4.97246 22.4755,8.05535 l 12.13292,2.48623 q 22.4755,4.27635 33.11664,15.11626 10.74047,10.74058 10.74047,28.8403 0,21.5805 -14.51959,32.71886 -14.42015,11.13825 -42.36544,11.13825 -10.54159,0 -22.4755,-2.38679 -11.83448,-2.38678 -24.56395,-7.0609 v -20.68539 q 12.23225,6.86191 23.96728,10.34269 11.73503,3.48068 23.07217,3.48068 17.20471,0 26.55295,-6.76246 9.34825,-6.76257 9.34825,-19.29316 0,-10.93947 -6.76257,-17.10527 -6.66302,-6.1659 -21.97828,-9.2488 l -12.23225,-2.38678 q -22.47551,-4.47523 -32.51986,-14.02237 -10.04436,-9.54713 -10.04436,-26.55296 0,-19.69093 13.82337,-31.02818 13.92292,-11.33715 38.28798,-11.33715 10.44225,0 21.28217,1.88946 10.83991,1.88956 22.17716,5.66867 z"
                id="path939"
                inkscape:connector-curvature="0"/>
            <path
                style="font-style:normal;font-variant:normal;font-weight:500;font-stretch:normal;font-size:153.61869812px;line-height:125%;font-family:Roboto;-inkscape-font-specification:'Roboto, Medium';text-align:start;letter-spacing:0px;word-spacing:0px;writing-mode:lr-tb;text-anchor:start;fill:#ffffff;fill-opacity:1;stroke:none;stroke-width:1.05419028px;stroke-linecap:butt;stroke-linejoin:miter;stroke-opacity:1"
                clip-path="none"
                d="m 154.15955,702.14454 h 20.08871 v 138.13502 q 0,26.85129 -10.24324,38.98409 -10.14392,12.13281 -32.71886,12.13281 h -7.65758 v -16.90637 h 6.26535 q 13.32615,0 18.79583,-7.45869 5.46979,-7.45868 5.46979,-26.75184 z"
                id="path941"
                inkscape:connector-curvature="0"/>
            <path
                style="font-style:normal;font-variant:normal;font-weight:500;font-stretch:normal;font-size:153.61869812px;line-height:125%;font-family:Roboto;-inkscape-font-specification:'Roboto, Medium';text-align:start;letter-spacing:0px;word-spacing:0px;writing-mode:lr-tb;text-anchor:start;fill:#ffffff;fill-opacity:1;stroke:none;stroke-width:1.05419028px;stroke-linecap:butt;stroke-linejoin:miter;stroke-opacity:1"
                clip-path="none"
                d="m 66.487301,787.90732 46.653619,17.71259 v 19.21492 L 46.956077,795.34028 v -15.26123 l 66.184843,-29.41544 v 19.21492 z"
                id="path943"
                inkscape:connector-curvature="0"/>
        </g>
    </g>
</svg>
